<svg width="64" height="64" viewBox="0 0 64 64" fill="none" xmlns="http://www.w3.org/2000/svg">
<path d="M16 5.33333C16 6.35837 16.0057 7.3456 16.0179 8.29629M16.0179 8.29629H47.9821M16.0179 8.29629C16.2694 27.956 19.2879 32 31.9901 32C41.3437 32 45.4563 34.9237 47.0755 43.8517M48 58.6667C48 57.6432 47.9933 56.656 47.9795 55.7037M47.9795 55.7037C47.9085 50.9125 47.6477 47.0072 47.0755 43.8517M47.9795 55.7037H27.7261M23.3289 43.8517H16.9282M16.9282 43.8517C18.5521 34.9237 22.6701 32 32.0099 32C44.6933 32 47.7288 27.956 47.9821 8.29629M16.9282 43.8517C16.2403 47.6344 16 52.4944 16 58.6667M47.9821 8.29629C47.9941 7.3456 48 6.35837 48 5.33333M47.0755 43.8517H33.5891M16.8615 20.1482H29.1917" stroke="black" stroke-linecap="round"/>
</svg>
