<svg width="70" height="71" viewBox="0 0 70 71" fill="none" xmlns="http://www.w3.org/2000/svg">
<g filter="url(#filter0_d_16_290)">
<rect x="9" y="9.33008" width="50" height="50" rx="25" fill="white" shape-rendering="crispEdges"/>
<g clip-path="url(#clip0_16_290)">
<path fill-rule="evenodd" clip-rule="evenodd" d="M46.3025 34.3253C46.3025 34.0921 46.2099 33.8685 46.0451 33.7037C45.8803 33.5388 45.6568 33.4462 45.4237 33.4462H24.6975L30.2284 27.9151C30.3101 27.8334 30.3749 27.7364 30.4191 27.6296C30.4633 27.5228 30.4861 27.4084 30.4861 27.2928C30.4861 27.1772 30.4633 27.0627 30.4191 26.9559C30.3749 26.8492 30.3101 26.7521 30.2284 26.6704C30.1467 26.5887 30.0497 26.5238 29.943 26.4796C29.8362 26.4354 29.7218 26.4126 29.6062 26.4126C29.4907 26.4126 29.3763 26.4354 29.2695 26.4796C29.1628 26.5238 29.0658 26.5887 28.9841 26.6704L21.9541 33.7029C21.8723 33.7846 21.8073 33.8816 21.763 33.9884C21.7187 34.0952 21.6959 34.2096 21.6959 34.3253C21.6959 34.4409 21.7187 34.5554 21.763 34.6622C21.8073 34.769 21.8723 34.866 21.9541 34.9476L28.9841 41.9801C29.0658 42.0619 29.1628 42.1267 29.2695 42.1709C29.3763 42.2152 29.4907 42.2379 29.6062 42.2379C29.7218 42.2379 29.8362 42.2152 29.943 42.1709C30.0497 42.1267 30.1467 42.0619 30.2284 41.9801C30.3101 41.8984 30.3749 41.8014 30.4191 41.6946C30.4633 41.5878 30.4861 41.4734 30.4861 41.3578C30.4861 41.2422 30.4633 41.1277 30.4191 41.0209C30.3749 40.9142 30.3101 40.8171 30.2284 40.7354L24.6975 35.2043H45.4237C45.6568 35.2043 45.8803 35.1117 46.0451 34.9469C46.2099 34.782 46.3025 34.5584 46.3025 34.3253Z" fill="#3F9CF5"/>
</g>
</g>
<defs>
<filter id="filter0_d_16_290" x="0" y="0.330078" width="70" height="70" filterUnits="userSpaceOnUse" color-interpolation-filters="sRGB">
<feFlood flood-opacity="0" result="BackgroundImageFix"/>
<feColorMatrix in="SourceAlpha" type="matrix" values="0 0 0 0 0 0 0 0 0 0 0 0 0 0 0 0 0 0 127 0" result="hardAlpha"/>
<feOffset dx="1" dy="1"/>
<feGaussianBlur stdDeviation="5"/>
<feComposite in2="hardAlpha" operator="out"/>
<feColorMatrix type="matrix" values="0 0 0 0 0.454902 0 0 0 0 0.752941 0 0 0 0 0.988235 0 0 0 0.15 0"/>
<feBlend mode="normal" in2="BackgroundImageFix" result="effect1_dropShadow_16_290"/>
<feBlend mode="normal" in="SourceGraphic" in2="effect1_dropShadow_16_290" result="shape"/>
</filter>
<clipPath id="clip0_16_290">
<rect width="28.12" height="28.13" fill="white" transform="translate(19.9399 20.2603)"/>
</clipPath>
</defs>
</svg>
