<svg width="21" height="22" viewBox="0 0 21 22" fill="none" xmlns="http://www.w3.org/2000/svg">
<g clip-path="url(#clip0_17_78)">
<path d="M17.9638 3.79352C17.0354 2.85654 15.9298 2.11371 14.7115 1.60829C13.4932 1.10288 12.1864 0.844997 10.8674 0.849672C5.34042 0.849672 0.836063 5.35277 0.831 10.881C0.831 12.6516 1.29422 14.3741 2.16877 15.8992L0.75 21.0997L6.07069 19.705C7.54262 20.506 9.19163 20.9259 10.8674 20.9263H10.8725C16.4007 20.9263 20.9038 16.4232 20.9089 10.8899C20.9101 9.57115 20.6505 8.26521 20.1448 7.04728C19.6391 5.82936 18.8987 4.72354 17.9638 3.79352ZM10.8674 19.2278C9.3727 19.2283 7.90547 18.8261 6.61997 18.0634L6.31622 17.8812L3.15975 18.7089L4.00266 15.6296L3.80522 15.312C2.96966 13.9835 2.52776 12.4454 2.53073 10.876C2.53073 6.2868 6.27319 2.54308 10.8725 2.54308C11.9682 2.54111 13.0534 2.75605 14.0657 3.1755C15.0779 3.59495 15.9971 4.21061 16.7703 4.987C17.5462 5.76036 18.1612 6.67968 18.58 7.69193C18.9988 8.70419 19.2131 9.78934 19.2104 10.8848C19.2053 15.4904 15.4629 19.2278 10.8674 19.2278ZM15.4426 12.9832C15.1933 12.8579 13.9619 12.2517 13.7302 12.1656C13.4999 12.0834 13.3316 12.0403 13.167 12.2909C12.9987 12.5403 12.5178 13.1085 12.3735 13.2718C12.2292 13.4401 12.0799 13.4591 11.8293 13.3351C11.58 13.2085 10.7712 12.9453 9.81441 12.0884C9.06769 11.424 8.56777 10.6013 8.41842 10.352C8.27414 10.1014 8.4045 9.96723 8.5298 9.84194C8.63991 9.73056 8.77912 9.54831 8.90442 9.40403C9.03098 9.25975 9.07275 9.15344 9.15502 8.98637C9.23728 8.81678 9.19805 8.6725 9.13603 8.5472C9.07275 8.42191 8.57283 7.18539 8.36147 6.68673C8.15897 6.19441 7.95267 6.26275 7.79827 6.25642C7.65398 6.24756 7.48566 6.24756 7.31733 6.24756C7.19021 6.25072 7.06512 6.28012 6.94991 6.33392C6.8347 6.38771 6.73184 6.46474 6.64781 6.56017C6.41747 6.81077 5.77327 7.417 5.77327 8.65352C5.77327 9.89003 6.67186 11.0785 6.79842 11.2468C6.92245 11.4151 8.5627 13.9451 11.08 15.0335C11.6749 15.293 12.1432 15.4461 12.5089 15.5626C13.1101 15.7549 13.653 15.7258 14.0859 15.6638C14.5668 15.5904 15.5679 15.0563 15.7793 14.4703C15.9869 13.8831 15.9869 13.3819 15.9236 13.2768C15.8616 13.1705 15.6932 13.1085 15.4426 12.9832Z" fill="#AFAFAE"/>
</g>
<defs>
<clipPath id="clip0_17_78">
<rect width="20.25" height="20.25" fill="white" transform="translate(0.75 0.849609)"/>
</clipPath>
</defs>
</svg>
