<svg width="21" height="22" viewBox="0 0 21 22" fill="none" xmlns="http://www.w3.org/2000/svg">
<g clip-path="url(#clip0_17_75)">
<path d="M20.25 11.0369C20.25 5.40995 15.7165 0.848633 10.125 0.848633C4.5309 0.849898 -0.00256348 5.40995 -0.00256348 11.0382C-0.00256348 16.1222 3.70066 20.3367 8.54041 21.1012V13.982H5.97119V11.0382H8.54294V8.7917C8.54294 6.23893 10.0554 4.82902 12.3677 4.82902C13.4763 4.82902 14.6344 5.02773 14.6344 5.02773V7.53366H13.3574C12.1006 7.53366 11.7083 8.31962 11.7083 9.12582V11.0369H14.5154L14.0674 13.9808H11.707V21.0999C16.5467 20.3355 20.25 16.1209 20.25 11.0369Z" fill="#AFAFAE"/>
</g>
<defs>
<clipPath id="clip0_17_75">
<rect width="20.25" height="20.25" fill="white" transform="translate(0 0.849609)"/>
</clipPath>
</defs>
</svg>
