<svg width="64" height="64" viewBox="0 0 64 64" fill="none" xmlns="http://www.w3.org/2000/svg">
<path d="M29.0371 5.33333C25.7642 5.33333 23.1111 7.98645 23.1111 11.2593V23.1111H11.2593C7.98645 23.1111 5.33333 25.7642 5.33333 29.0371V34.9629C5.33333 38.2357 7.98645 40.8888 11.2593 40.8888H23.1111V52.7408C23.1111 56.0136 25.7642 58.6667 29.0371 58.6667H34.9629C38.2357 58.6667 40.8888 56.0136 40.8888 52.7408V40.8888H52.7408C56.0136 40.8888 58.6667 38.2357 58.6667 34.9629V29.0371C58.6667 25.7642 56.0136 23.1111 52.7408 23.1111H40.8888V11.2593C40.8888 7.98645 38.2357 5.33333 34.9629 5.33333H29.0371Z" stroke="black" stroke-linecap="round" stroke-linejoin="round"/>
</svg>
