<svg width="190" height="190" viewBox="0 0 190 190" fill="none" xmlns="http://www.w3.org/2000/svg">
<g clip-path="url(#clip0_32_68)">
<path d="M189.023 49.3326V0.00322457H92.3248C67.4267 0.00322457 47.2495 20.1804 47.2495 45.0785V94.3945H143.948C168.846 94.3945 189.023 74.2173 189.023 49.3326Z" fill="url(#paint0_linear_32_68)"/>
<path d="M0.417969 139.496V188.853H97.0764C121.988 188.853 142.178 168.662 142.178 143.751V94.3945H45.5199C20.6085 94.3945 0.417969 114.585 0.417969 139.496Z" fill="url(#paint1_linear_32_68)"/>
<path d="M142.545 94.2959H94.5088V142.278C94.5088 167.937 115.313 188.754 140.984 188.754H189.02V140.771C189.02 115.1 168.216 94.2959 142.545 94.2959Z" fill="url(#paint2_linear_32_68)"/>
<path d="M47.2625 0H0.000152588V141.667C0.000152588 167.765 21.1642 188.916 47.2625 188.916H94.5115V47.2623C94.5115 21.164 73.3608 0 47.2625 0Z" fill="url(#paint3_linear_32_68)" fill-opacity="0.78" style="mix-blend-mode:darken"/>
</g>
<defs>
<linearGradient id="paint0_linear_32_68" x1="189.023" y1="47.1989" x2="47" y2="94" gradientUnits="userSpaceOnUse">
<stop offset="0.677083" stop-color="#03A5B0"/>
<stop offset="1" stop-color="#03A5B0" stop-opacity="0"/>
</linearGradient>
<linearGradient id="paint1_linear_32_68" x1="3.73382e-06" y1="189" x2="142" y2="94" gradientUnits="userSpaceOnUse">
<stop offset="0.344597" stop-color="#03A5B0"/>
<stop offset="0.544392" stop-color="#03A5B0" stop-opacity="0.638288"/>
<stop offset="0.683759" stop-color="#03A5B0" stop-opacity="0.268923"/>
<stop offset="0.846918" stop-color="#03A5B0" stop-opacity="0"/>
</linearGradient>
<linearGradient id="paint2_linear_32_68" x1="93" y1="99.5" x2="190.5" y2="194.5" gradientUnits="userSpaceOnUse">
<stop offset="0.505208" stop-color="#C9EAFF"/>
<stop offset="1" stop-color="#C9EAFF" stop-opacity="0"/>
</linearGradient>
<linearGradient id="paint3_linear_32_68" x1="0.49999" y1="0.5" x2="94" y2="186.5" gradientUnits="userSpaceOnUse">
<stop offset="0.390008" stop-color="#03436E"/>
<stop offset="0.501605" stop-color="#03436E"/>
<stop offset="0.594983" stop-color="#03436E"/>
<stop offset="0.677423" stop-color="#03436E" stop-opacity="0.87872"/>
<stop offset="0.75989" stop-color="#03436E" stop-opacity="0.710865"/>
<stop offset="0.884938" stop-color="#03436E" stop-opacity="0.390081"/>
<stop offset="1" stop-color="#03436E" stop-opacity="0"/>
</linearGradient>
<clipPath id="clip0_32_68">
<rect width="189.024" height="189.024" fill="white"/>
</clipPath>
</defs>
</svg>
