<svg width="64" height="64" viewBox="0 0 64 64" fill="none" xmlns="http://www.w3.org/2000/svg">
<path d="M32.0003 13.9488L24.4893 6.43792C22.4065 4.35512 19.0297 4.35515 16.9469 6.43792L6.43808 16.9467C4.35528 19.0295 4.35528 22.4064 6.43808 24.4892L13.9489 32M32.0003 13.9488L13.9489 32M32.0003 13.9488L39.5109 6.43792C41.5939 4.35512 44.9707 4.35512 47.0533 6.43792L57.5621 16.9467C59.6451 19.0295 59.6451 22.4064 57.5621 24.4892L50.0515 32M13.9489 32L6.4381 39.5107C4.3553 41.5936 4.3553 44.9704 6.4381 47.0533L16.9469 57.5621C19.0297 59.6448 22.4066 59.6448 24.4894 57.5621L32 50.0512M50.0515 32L57.5621 39.5107C59.6451 41.5936 59.6451 44.9704 57.5621 47.0533L47.0533 57.5621C44.9707 59.6448 41.5939 59.6448 39.5109 57.5621L32 50.0512M50.0515 32L32 50.0512M35.8885 28.1611L35.9112 28.0165M28.0893 35.9835L28.1117 35.8389M42.6443 27.0216L42.6669 26.8771M34.8451 34.8443L34.8675 34.6997M27.0459 42.6667L27.0683 42.5221M36.932 21.4779L36.9547 21.3333M29.1328 29.3003L29.1552 29.1557M21.3335 37.1229L21.3561 36.9784" stroke="black" stroke-linecap="round"/>
</svg>
