<svg width="49" height="49" viewBox="0 0 49 49" fill="none" xmlns="http://www.w3.org/2000/svg">
<path d="M36.3219 24.584H24.1239V36.7685C24.1239 43.284 29.4068 48.5703 35.9257 48.5703H48.1238V36.3858C48.1238 29.8669 42.8409 24.584 36.3219 24.584Z" fill="#E1F3FF"/>
<path d="M23.87 11.9787V24.5839H40.3187C44.558 24.5839 47.9939 19.4274 47.9939 13.0652V0.459961H31.5452C27.3059 0.459961 23.87 5.61648 23.87 11.9787Z" fill="#C9EAFF"/>
<path d="M12.2611 0.714004H2.61746e-06V12.8985C2.61746e-06 19.414 5.31019 24.7003 11.8628 24.7003H24.1239V12.5158C24.1239 5.99688 18.8137 0.714004 12.2611 0.714004Z" fill="#E1F3FF"/>
<path d="M0 36.1027V48.7079H16.4488C20.688 48.7079 24.1239 43.5514 24.1239 37.1892L24.1239 24.584H7.67518C3.4359 24.584 0 29.7405 0 36.1027Z" fill="#C9EAFF"/>
</svg>
