<svg width="65" height="66" viewBox="0 0 65 66" fill="none" xmlns="http://www.w3.org/2000/svg">
<path d="M22.1001 3.86993L22.1 10.2699M6.90008 7.06994L11.4255 11.5955M3.70001 23.07L10.1 23.07M55.2431 30.2908C57.6614 30.4946 60.1497 29.6712 61.9999 27.821C65.3334 24.4876 65.3334 19.0829 61.9999 15.7494C60.0015 13.7511 57.0252 13.1846 54.9612 13.0514C53.1317 13.0514 52.1186 11.9622 52.1186 10.2087C51.9855 8.14491 51.4188 5.16837 49.4207 3.17003C46.0869 -0.163447 40.6825 -0.163447 37.349 3.17003C35.4988 5.0203 34.6754 7.50866 34.8792 9.92674C35.1567 13.2192 35.4549 17.1356 33.1186 19.472L32.5356 20.055C32.4335 20.1571 32.318 20.245 32.1922 20.3161L29.7871 21.6775C28.356 22.4874 28.9308 24.67 30.5752 24.67H42.1001L45.6981 32.0514C48.0345 29.7151 51.9509 30.0133 55.2431 30.2908ZM20.7937 30.2908L22.4832 34.766C22.731 35.4223 23.3776 35.8409 24.078 35.7977L34.4482 35.1621C35.4207 35.1026 36.2204 35.9186 36.1407 36.8898L35.7503 41.6575C35.718 42.0517 35.5407 42.4201 35.2527 42.6914L31.8815 45.8677C29.5452 48.2044 29.8434 52.1209 30.1208 55.413C30.3247 57.8313 29.5013 60.3196 27.6511 62.1698C24.3176 65.5033 18.913 65.5033 15.5795 62.1698C13.5812 60.1714 13.0147 57.1951 12.8815 55.1311C12.8815 53.47 11.9931 52.2885 10.0388 52.2885C7.97499 52.1554 4.99845 51.5887 3.00011 49.5906C-0.333369 46.2569 -0.333369 40.8524 3.00011 37.5189C4.85038 35.6687 7.33873 34.8453 9.75682 35.0492C13.0493 35.3266 18.4573 32.6271 20.7937 30.2908Z" stroke="black" stroke-linecap="round" stroke-linejoin="round"/>
</svg>
