<svg width="49" height="49" viewBox="0 0 49 49" fill="none" xmlns="http://www.w3.org/2000/svg">
<path d="M36.3219 24.5H24.1239V36.6845C24.1239 43.2001 29.4068 48.4863 35.9257 48.4863H48.1238V36.3019C48.1238 29.7829 42.8409 24.5 36.3219 24.5Z" fill="#E1F3FF"/>
<path d="M23.87 11.8947V24.4999H40.3187C44.558 24.4999 47.9939 19.3434 47.9939 12.9812V0.376022H31.5452C27.3059 0.376022 23.87 5.53254 23.87 11.8947Z" fill="#C9EAFF"/>
<path d="M12.2611 0.630065H2.61746e-06V12.8145C2.61746e-06 19.3301 5.31019 24.6163 11.8628 24.6163H24.1239V12.4319C24.1239 5.91294 18.8137 0.630065 12.2611 0.630065Z" fill="#E1F3FF"/>
<path d="M0 36.0188V48.624H16.4488C20.688 48.624 24.1239 43.4675 24.1239 37.1052L24.1239 24.5H7.67518C3.4359 24.5 0 29.6566 0 36.0188Z" fill="#C9EAFF"/>
</svg>
