<svg width="66" height="66" viewBox="0 0 66 66" fill="none" xmlns="http://www.w3.org/2000/svg">
<path d="M33.0001 11.3738L24.139 2.51283C21.6818 0.0556207 17.6979 0.0556522 15.2407 2.51283L2.8429 14.9107C0.385699 17.3679 0.385699 21.3518 2.8429 23.809L11.7038 32.6699M33.0001 11.3738L11.7038 32.6699M33.0001 11.3738L41.8609 2.51283C44.3183 0.0556207 48.3021 0.0556207 50.7591 2.51283L63.157 14.9107C65.6143 17.3679 65.6143 21.3518 63.157 23.809L54.2962 32.6699M11.7038 32.6699L2.84293 41.5307C0.385731 43.9881 0.385731 47.9719 2.84293 50.4293L15.2408 62.8271C17.698 65.2842 21.6819 65.2842 24.1391 62.8271L32.9998 53.966M54.2962 32.6699L63.157 41.5307C65.6143 43.9881 65.6143 47.9719 63.157 50.4293L50.7591 62.8271C48.3021 65.2842 44.3183 65.2842 41.8609 62.8271L32.9998 53.966M54.2962 32.6699L32.9998 53.966M37.5874 28.1409L37.6141 27.9704M28.3862 37.3695L28.4126 37.199M45.5575 26.7966L45.5842 26.6261M36.3563 36.0255L36.3827 35.855M27.1551 45.2541L27.1816 45.0835M38.8184 20.2564L38.8451 20.0858M29.6172 29.4849L29.6436 29.3144M20.4159 38.7138L20.4426 38.5433" stroke="black" stroke-linecap="round"/>
</svg>
