<svg width="65" height="66" viewBox="0 0 65 66" fill="none" xmlns="http://www.w3.org/2000/svg">
<path d="M32.5001 11.3738L23.639 2.51283C21.1818 0.0556207 17.1979 0.0556522 14.7407 2.51283L2.3429 14.9107C-0.114301 17.3679 -0.114301 21.3518 2.3429 23.809L11.2038 32.6699M32.5001 11.3738L11.2038 32.6699M32.5001 11.3738L41.3609 2.51283C43.8183 0.0556207 47.8021 0.0556207 50.2591 2.51283L62.657 14.9107C65.1143 17.3679 65.1143 21.3518 62.657 23.809L53.7962 32.6699M11.2038 32.6699L2.34293 41.5307C-0.114269 43.9881 -0.114269 47.9719 2.34293 50.4293L14.7408 62.8271C17.198 65.2842 21.1819 65.2842 23.6391 62.8271L32.4998 53.966M53.7962 32.6699L62.657 41.5307C65.1143 43.9881 65.1143 47.9719 62.657 50.4293L50.2591 62.8271C47.8021 65.2842 43.8183 65.2842 41.3609 62.8271L32.4998 53.966M53.7962 32.6699L32.4998 53.966M37.0874 28.1409L37.1141 27.9704M27.8862 37.3695L27.9126 37.199M45.0575 26.7966L45.0842 26.6261M35.8563 36.0255L35.8827 35.855M26.6551 45.2541L26.6816 45.0835M38.3184 20.2564L38.3451 20.0858M29.1172 29.4849L29.1436 29.3144M19.9159 38.7138L19.9426 38.5433" stroke="black" stroke-linecap="round"/>
</svg>
