<?xml version="1.0" encoding="utf-8"?>
<svg viewBox="-2361.891 112.829 3225.359 33.742" width="3225.359" height="33.742" xmlns="http://www.w3.org/2000/svg">
  <path d="M 461.454 135.232 C 454.04 135.232 450.392 131.123 445.774 125.916 C 440.606 120.084 434.172 112.83 421.715 112.83 C 409.262 112.83 402.828 120.084 397.656 125.916 C 393.043 131.123 389.394 135.232 381.98 135.232 C 374.574 135.232 370.929 131.123 366.316 125.92 C 361.148 120.088 354.718 112.83 342.269 112.83 C 329.82 112.83 323.39 120.083 318.218 125.916 C 313.605 131.123 309.96 135.232 302.546 135.232 C 295.14 135.232 291.495 131.123 286.882 125.919 C 281.714 120.084 275.284 112.829 262.835 112.829 C 250.39 112.829 243.964 120.087 238.796 125.915 C 234.187 131.122 230.546 135.232 223.14 135.232 C 215.734 135.232 212.093 131.122 207.484 125.919 C 202.316 120.087 195.886 112.829 183.441 112.829 C 170.996 112.829 164.57 120.087 159.402 125.915 C 154.793 131.122 151.148 135.232 143.746 135.232 C 136.348 135.232 132.707 131.122 128.098 125.919 C 122.93 120.087 116.504 112.829 104.063 112.829 C 91.618 112.829 85.184 120.083 80.016 125.915 C 75.407 131.122 71.762 135.232 64.356 135.232 C 56.95 135.232 53.309 131.122 48.7 125.919 C 43.532 120.087 37.102 112.829 24.657 112.829 C 21.563 112.829 19.055 115.337 19.055 118.431 C 19.055 121.525 21.563 124.032 24.657 124.032 C 32.063 124.032 35.708 128.142 40.317 133.345 C 45.485 139.177 51.911 146.431 64.356 146.431 C 76.801 146.431 83.235 139.177 88.403 133.345 C 93.016 128.138 96.657 124.028 104.063 124.028 C 111.461 124.028 115.102 128.138 119.711 133.341 C 124.879 139.173 131.305 146.431 143.746 146.431 C 156.191 146.431 162.617 139.173 167.785 133.345 C 172.394 128.138 176.039 124.029 183.441 124.029 C 190.847 124.029 194.488 128.138 199.097 133.341 C 204.269 139.173 210.695 146.431 223.14 146.431 C 235.585 146.431 242.011 139.173 247.179 133.345 C 251.792 128.138 255.433 124.029 262.835 124.029 C 270.241 124.029 273.886 128.138 278.499 133.341 C 283.667 139.177 290.097 146.431 302.546 146.431 C 314.995 146.431 321.429 139.177 326.597 133.345 C 331.214 128.138 334.859 124.029 342.269 124.029 C 349.679 124.029 353.32 128.138 357.933 133.345 C 363.101 139.177 369.531 146.431 381.98 146.431 C 394.433 146.431 400.867 139.177 406.039 133.345 C 410.652 128.138 414.301 124.029 421.715 124.029 C 429.133 124.029 432.777 128.142 437.399 133.345 C 442.567 139.177 449.004 146.431 461.454 146.431 C 464.548 146.431 467.056 143.923 467.056 140.83 C 467.056 137.736 464.548 135.232 461.454 135.232 Z" style="fill: rgb(50, 125, 196); paint-order: fill;"/>
  <path d="M 857.866 135.232 C 850.452 135.232 846.804 131.123 842.186 125.916 C 837.018 120.084 830.584 112.83 818.127 112.83 C 805.674 112.83 799.24 120.084 794.068 125.916 C 789.455 131.123 785.806 135.232 778.392 135.232 C 770.986 135.232 767.341 131.123 762.728 125.92 C 757.56 120.088 751.13 112.83 738.681 112.83 C 726.232 112.83 719.802 120.083 714.63 125.916 C 710.017 131.123 706.372 135.232 698.958 135.232 C 691.552 135.232 687.907 131.123 683.294 125.919 C 678.126 120.084 671.696 112.829 659.247 112.829 C 646.802 112.829 640.376 120.087 635.208 125.915 C 630.599 131.122 626.958 135.232 619.552 135.232 C 612.146 135.232 608.505 131.122 603.896 125.919 C 598.728 120.087 592.298 112.829 579.853 112.829 C 567.408 112.829 560.982 120.087 555.814 125.915 C 551.205 131.122 547.56 135.232 540.158 135.232 C 532.76 135.232 529.119 131.122 524.51 125.919 C 519.342 120.087 512.916 112.829 500.475 112.829 C 488.03 112.829 481.596 120.083 476.428 125.915 C 471.819 131.122 468.174 135.232 460.768 135.232 C 453.362 135.232 449.721 131.122 445.112 125.919 C 439.944 120.087 433.514 112.829 421.069 112.829 C 417.975 112.829 415.467 115.337 415.467 118.431 C 415.467 121.525 417.975 124.032 421.069 124.032 C 428.475 124.032 432.12 128.142 436.729 133.345 C 441.897 139.177 448.323 146.431 460.768 146.431 C 473.213 146.431 479.647 139.177 484.815 133.345 C 489.428 128.138 493.069 124.028 500.475 124.028 C 507.873 124.028 511.514 128.138 516.123 133.341 C 521.291 139.173 527.717 146.431 540.158 146.431 C 552.603 146.431 559.029 139.173 564.197 133.345 C 568.806 128.138 572.451 124.029 579.853 124.029 C 587.259 124.029 590.9 128.138 595.509 133.341 C 600.681 139.173 607.107 146.431 619.552 146.431 C 631.997 146.431 638.423 139.173 643.591 133.345 C 648.204 128.138 651.845 124.029 659.247 124.029 C 666.653 124.029 670.298 128.138 674.911 133.341 C 680.079 139.177 686.509 146.431 698.958 146.431 C 711.407 146.431 717.841 139.177 723.009 133.345 C 727.626 128.138 731.271 124.029 738.681 124.029 C 746.091 124.029 749.732 128.138 754.345 133.345 C 759.513 139.177 765.943 146.431 778.392 146.431 C 790.845 146.431 797.279 139.177 802.451 133.345 C 807.064 128.138 810.713 124.029 818.127 124.029 C 825.545 124.029 829.189 128.142 833.811 133.345 C 838.979 139.177 845.416 146.431 857.866 146.431 C 860.96 146.431 863.468 143.923 863.468 140.83 C 863.468 137.736 860.96 135.232 857.866 135.232 Z" style="fill: rgb(50, 125, 196); paint-order: fill;"/>
  <path d="M -332.136 135.312 C -339.55 135.312 -343.198 131.203 -347.816 125.996 C -352.984 120.164 -359.418 112.91 -371.875 112.91 C -384.328 112.91 -390.762 120.164 -395.934 125.996 C -400.547 131.203 -404.196 135.312 -411.61 135.312 C -419.016 135.312 -422.661 131.203 -427.274 126 C -432.442 120.168 -438.872 112.91 -451.321 112.91 C -463.77 112.91 -470.2 120.163 -475.372 125.996 C -479.985 131.203 -483.63 135.312 -491.044 135.312 C -498.45 135.312 -502.095 131.203 -506.708 125.999 C -511.876 120.164 -518.306 112.909 -530.755 112.909 C -543.2 112.909 -549.626 120.167 -554.794 125.995 C -559.403 131.202 -563.044 135.312 -570.45 135.312 C -577.856 135.312 -581.497 131.202 -586.106 125.999 C -591.274 120.167 -597.704 112.909 -610.149 112.909 C -622.594 112.909 -629.02 120.167 -634.188 125.995 C -638.797 131.202 -642.442 135.312 -649.844 135.312 C -657.242 135.312 -660.883 131.202 -665.492 125.999 C -670.66 120.167 -677.086 112.909 -689.527 112.909 C -701.972 112.909 -708.406 120.163 -713.574 125.995 C -718.183 131.202 -721.828 135.312 -729.234 135.312 C -736.64 135.312 -740.281 131.202 -744.89 125.999 C -750.058 120.167 -756.488 112.909 -768.933 112.909 C -772.027 112.909 -774.535 115.417 -774.535 118.511 C -774.535 121.605 -772.027 124.112 -768.933 124.112 C -761.527 124.112 -757.882 128.222 -753.273 133.425 C -748.105 139.257 -741.679 146.511 -729.234 146.511 C -716.789 146.511 -710.355 139.257 -705.187 133.425 C -700.574 128.218 -696.933 124.108 -689.527 124.108 C -682.129 124.108 -678.488 128.218 -673.879 133.421 C -668.711 139.253 -662.285 146.511 -649.844 146.511 C -637.399 146.511 -630.973 139.253 -625.805 133.425 C -621.196 128.218 -617.551 124.109 -610.149 124.109 C -602.743 124.109 -599.102 128.218 -594.493 133.421 C -589.321 139.253 -582.895 146.511 -570.45 146.511 C -558.005 146.511 -551.579 139.253 -546.411 133.425 C -541.798 128.218 -538.157 124.109 -530.755 124.109 C -523.349 124.109 -519.704 128.218 -515.091 133.421 C -509.923 139.257 -503.493 146.511 -491.044 146.511 C -478.595 146.511 -472.161 139.257 -466.993 133.425 C -462.376 128.218 -458.731 124.109 -451.321 124.109 C -443.911 124.109 -440.27 128.218 -435.657 133.425 C -430.489 139.257 -424.059 146.511 -411.61 146.511 C -399.157 146.511 -392.723 139.257 -387.551 133.425 C -382.938 128.218 -379.289 124.109 -371.875 124.109 C -364.457 124.109 -360.813 128.222 -356.191 133.425 C -351.023 139.257 -344.586 146.511 -332.136 146.511 C -329.042 146.511 -326.534 144.003 -326.534 140.91 C -326.534 137.816 -329.042 135.312 -332.136 135.312 Z" style="fill: rgb(50, 125, 196); paint-order: fill;"/>
  <path d="M 64.276 135.312 C 56.862 135.312 53.214 131.203 48.596 125.996 C 43.428 120.164 36.994 112.91 24.537 112.91 C 12.084 112.91 5.65 120.164 0.478 125.996 C -4.135 131.203 -7.784 135.312 -15.198 135.312 C -22.604 135.312 -26.249 131.203 -30.862 126 C -36.03 120.168 -42.46 112.91 -54.909 112.91 C -67.358 112.91 -73.788 120.163 -78.96 125.996 C -83.573 131.203 -87.218 135.312 -94.632 135.312 C -102.038 135.312 -105.683 131.203 -110.296 125.999 C -115.464 120.164 -121.894 112.909 -134.343 112.909 C -146.788 112.909 -153.214 120.167 -158.382 125.995 C -162.991 131.202 -166.632 135.312 -174.038 135.312 C -181.444 135.312 -185.085 131.202 -189.694 125.999 C -194.862 120.167 -201.292 112.909 -213.737 112.909 C -226.182 112.909 -232.608 120.167 -237.776 125.995 C -242.385 131.202 -246.03 135.312 -253.432 135.312 C -260.83 135.312 -264.471 131.202 -269.08 125.999 C -274.248 120.167 -280.674 112.909 -293.115 112.909 C -305.56 112.909 -311.994 120.163 -317.162 125.995 C -321.771 131.202 -325.416 135.312 -332.822 135.312 C -340.228 135.312 -343.869 131.202 -348.478 125.999 C -353.646 120.167 -360.076 112.909 -372.521 112.909 C -375.615 112.909 -378.123 115.417 -378.123 118.511 C -378.123 121.605 -375.615 124.112 -372.521 124.112 C -365.115 124.112 -361.47 128.222 -356.861 133.425 C -351.693 139.257 -345.267 146.511 -332.822 146.511 C -320.377 146.511 -313.943 139.257 -308.775 133.425 C -304.162 128.218 -300.521 124.108 -293.115 124.108 C -285.717 124.108 -282.076 128.218 -277.467 133.421 C -272.299 139.253 -265.873 146.511 -253.432 146.511 C -240.987 146.511 -234.561 139.253 -229.393 133.425 C -224.784 128.218 -221.139 124.109 -213.737 124.109 C -206.331 124.109 -202.69 128.218 -198.081 133.421 C -192.909 139.253 -186.483 146.511 -174.038 146.511 C -161.593 146.511 -155.167 139.253 -149.999 133.425 C -145.386 128.218 -141.745 124.109 -134.343 124.109 C -126.937 124.109 -123.292 128.218 -118.679 133.421 C -113.511 139.257 -107.081 146.511 -94.632 146.511 C -82.183 146.511 -75.749 139.257 -70.581 133.425 C -65.964 128.218 -62.319 124.109 -54.909 124.109 C -47.499 124.109 -43.858 128.218 -39.245 133.425 C -34.077 139.257 -27.647 146.511 -15.198 146.511 C -2.745 146.511 3.689 139.257 8.861 133.425 C 13.474 128.218 17.123 124.109 24.537 124.109 C 31.955 124.109 35.599 128.222 40.221 133.425 C 45.389 139.257 51.826 146.511 64.276 146.511 C 67.37 146.511 69.878 144.003 69.878 140.91 C 69.878 137.816 67.37 135.312 64.276 135.312 Z" style="fill: rgb(50, 125, 196); paint-order: fill;"/>
  <path d="M -1125.902 135.292 C -1133.316 135.292 -1136.964 131.183 -1141.582 125.976 C -1146.75 120.144 -1153.184 112.89 -1165.641 112.89 C -1178.094 112.89 -1184.528 120.144 -1189.7 125.976 C -1194.313 131.183 -1197.962 135.292 -1205.376 135.292 C -1212.782 135.292 -1216.427 131.183 -1221.04 125.98 C -1226.208 120.148 -1232.638 112.89 -1245.087 112.89 C -1257.536 112.89 -1263.966 120.143 -1269.138 125.976 C -1273.751 131.183 -1277.396 135.292 -1284.81 135.292 C -1292.216 135.292 -1295.861 131.183 -1300.474 125.979 C -1305.642 120.144 -1312.072 112.889 -1324.521 112.889 C -1336.966 112.889 -1343.392 120.147 -1348.56 125.975 C -1353.169 131.182 -1356.81 135.292 -1364.216 135.292 C -1371.622 135.292 -1375.263 131.182 -1379.872 125.979 C -1385.04 120.147 -1391.47 112.889 -1403.915 112.889 C -1416.36 112.889 -1422.786 120.147 -1427.954 125.975 C -1432.563 131.182 -1436.208 135.292 -1443.61 135.292 C -1451.008 135.292 -1454.649 131.182 -1459.258 125.979 C -1464.426 120.147 -1470.852 112.889 -1483.293 112.889 C -1495.738 112.889 -1502.172 120.143 -1507.34 125.975 C -1511.949 131.182 -1515.594 135.292 -1523 135.292 C -1530.406 135.292 -1534.047 131.182 -1538.656 125.979 C -1543.824 120.147 -1550.254 112.889 -1562.699 112.889 C -1565.793 112.889 -1568.301 115.397 -1568.301 118.491 C -1568.301 121.585 -1565.793 124.092 -1562.699 124.092 C -1555.293 124.092 -1551.648 128.202 -1547.039 133.405 C -1541.871 139.237 -1535.445 146.491 -1523 146.491 C -1510.555 146.491 -1504.121 139.237 -1498.953 133.405 C -1494.34 128.198 -1490.699 124.088 -1483.293 124.088 C -1475.895 124.088 -1472.254 128.198 -1467.645 133.401 C -1462.477 139.233 -1456.051 146.491 -1443.61 146.491 C -1431.165 146.491 -1424.739 139.233 -1419.571 133.405 C -1414.962 128.198 -1411.317 124.089 -1403.915 124.089 C -1396.509 124.089 -1392.868 128.198 -1388.259 133.401 C -1383.087 139.233 -1376.661 146.491 -1364.216 146.491 C -1351.771 146.491 -1345.345 139.233 -1340.177 133.405 C -1335.564 128.198 -1331.923 124.089 -1324.521 124.089 C -1317.115 124.089 -1313.47 128.198 -1308.857 133.401 C -1303.689 139.237 -1297.259 146.491 -1284.81 146.491 C -1272.361 146.491 -1265.927 139.237 -1260.759 133.405 C -1256.142 128.198 -1252.497 124.089 -1245.087 124.089 C -1237.677 124.089 -1234.036 128.198 -1229.423 133.405 C -1224.255 139.237 -1217.825 146.491 -1205.376 146.491 C -1192.923 146.491 -1186.489 139.237 -1181.317 133.405 C -1176.704 128.198 -1173.055 124.089 -1165.641 124.089 C -1158.223 124.089 -1154.579 128.202 -1149.957 133.405 C -1144.789 139.237 -1138.352 146.491 -1125.902 146.491 C -1122.808 146.491 -1120.3 143.983 -1120.3 140.89 C -1120.3 137.796 -1122.808 135.292 -1125.902 135.292 Z" style="fill: rgb(50, 125, 196); paint-order: fill;"/>
  <path d="M -729.49 135.292 C -736.904 135.292 -740.552 131.183 -745.17 125.976 C -750.338 120.144 -756.772 112.89 -769.229 112.89 C -781.682 112.89 -788.116 120.144 -793.288 125.976 C -797.901 131.183 -801.55 135.292 -808.964 135.292 C -816.37 135.292 -820.015 131.183 -824.628 125.98 C -829.796 120.148 -836.226 112.89 -848.675 112.89 C -861.124 112.89 -867.554 120.143 -872.726 125.976 C -877.339 131.183 -880.984 135.292 -888.398 135.292 C -895.804 135.292 -899.449 131.183 -904.062 125.979 C -909.23 120.144 -915.66 112.889 -928.109 112.889 C -940.554 112.889 -946.98 120.147 -952.148 125.975 C -956.757 131.182 -960.398 135.292 -967.804 135.292 C -975.21 135.292 -978.851 131.182 -983.46 125.979 C -988.628 120.147 -995.058 112.889 -1007.503 112.889 C -1019.948 112.889 -1026.374 120.147 -1031.542 125.975 C -1036.151 131.182 -1039.796 135.292 -1047.198 135.292 C -1054.596 135.292 -1058.237 131.182 -1062.846 125.979 C -1068.014 120.147 -1074.44 112.889 -1086.881 112.889 C -1099.326 112.889 -1105.76 120.143 -1110.928 125.975 C -1115.537 131.182 -1119.182 135.292 -1126.588 135.292 C -1133.994 135.292 -1137.635 131.182 -1142.244 125.979 C -1147.412 120.147 -1153.842 112.889 -1166.287 112.889 C -1169.381 112.889 -1171.889 115.397 -1171.889 118.491 C -1171.889 121.585 -1169.381 124.092 -1166.287 124.092 C -1158.881 124.092 -1155.236 128.202 -1150.627 133.405 C -1145.459 139.237 -1139.033 146.491 -1126.588 146.491 C -1114.143 146.491 -1107.709 139.237 -1102.541 133.405 C -1097.928 128.198 -1094.287 124.088 -1086.881 124.088 C -1079.483 124.088 -1075.842 128.198 -1071.233 133.401 C -1066.065 139.233 -1059.639 146.491 -1047.198 146.491 C -1034.753 146.491 -1028.327 139.233 -1023.159 133.405 C -1018.55 128.198 -1014.905 124.089 -1007.503 124.089 C -1000.097 124.089 -996.456 128.198 -991.847 133.401 C -986.675 139.233 -980.249 146.491 -967.804 146.491 C -955.359 146.491 -948.933 139.233 -943.765 133.405 C -939.152 128.198 -935.511 124.089 -928.109 124.089 C -920.703 124.089 -917.058 128.198 -912.445 133.401 C -907.277 139.237 -900.847 146.491 -888.398 146.491 C -875.949 146.491 -869.515 139.237 -864.347 133.405 C -859.73 128.198 -856.085 124.089 -848.675 124.089 C -841.265 124.089 -837.624 128.198 -833.011 133.405 C -827.843 139.237 -821.413 146.491 -808.964 146.491 C -796.511 146.491 -790.077 139.237 -784.905 133.405 C -780.292 128.198 -776.643 124.089 -769.229 124.089 C -761.811 124.089 -758.167 128.202 -753.545 133.405 C -748.377 139.237 -741.94 146.491 -729.49 146.491 C -726.396 146.491 -723.888 143.983 -723.888 140.89 C -723.888 137.796 -726.396 135.292 -729.49 135.292 Z" style="fill: rgb(50, 125, 196); paint-order: fill;"/>
  <path d="M -1919.492 135.372 C -1926.906 135.372 -1930.554 131.263 -1935.172 126.056 C -1940.34 120.224 -1946.774 112.97 -1959.231 112.97 C -1971.684 112.97 -1978.118 120.224 -1983.29 126.056 C -1987.903 131.263 -1991.552 135.372 -1998.966 135.372 C -2006.372 135.372 -2010.017 131.263 -2014.63 126.06 C -2019.798 120.228 -2026.228 112.97 -2038.677 112.97 C -2051.126 112.97 -2057.556 120.223 -2062.728 126.056 C -2067.341 131.263 -2070.986 135.372 -2078.4 135.372 C -2085.806 135.372 -2089.451 131.263 -2094.064 126.059 C -2099.232 120.224 -2105.662 112.969 -2118.111 112.969 C -2130.556 112.969 -2136.982 120.227 -2142.15 126.055 C -2146.759 131.262 -2150.4 135.372 -2157.806 135.372 C -2165.212 135.372 -2168.853 131.262 -2173.462 126.059 C -2178.63 120.227 -2185.06 112.969 -2197.505 112.969 C -2209.95 112.969 -2216.376 120.227 -2221.544 126.055 C -2226.153 131.262 -2229.798 135.372 -2237.2 135.372 C -2244.598 135.372 -2248.239 131.262 -2252.848 126.059 C -2258.016 120.227 -2264.442 112.969 -2276.883 112.969 C -2289.328 112.969 -2295.762 120.223 -2300.93 126.055 C -2305.539 131.262 -2309.184 135.372 -2316.59 135.372 C -2323.996 135.372 -2327.637 131.262 -2332.246 126.059 C -2337.414 120.227 -2343.844 112.969 -2356.289 112.969 C -2359.383 112.969 -2361.891 115.477 -2361.891 118.571 C -2361.891 121.665 -2359.383 124.172 -2356.289 124.172 C -2348.883 124.172 -2345.238 128.282 -2340.629 133.485 C -2335.461 139.317 -2329.035 146.571 -2316.59 146.571 C -2304.145 146.571 -2297.711 139.317 -2292.543 133.485 C -2287.93 128.278 -2284.289 124.168 -2276.883 124.168 C -2269.485 124.168 -2265.844 128.278 -2261.235 133.481 C -2256.067 139.313 -2249.641 146.571 -2237.2 146.571 C -2224.755 146.571 -2218.329 139.313 -2213.161 133.485 C -2208.552 128.278 -2204.907 124.169 -2197.505 124.169 C -2190.099 124.169 -2186.458 128.278 -2181.849 133.481 C -2176.677 139.313 -2170.251 146.571 -2157.806 146.571 C -2145.361 146.571 -2138.935 139.313 -2133.767 133.485 C -2129.154 128.278 -2125.513 124.169 -2118.111 124.169 C -2110.705 124.169 -2107.06 128.278 -2102.447 133.481 C -2097.279 139.317 -2090.849 146.571 -2078.4 146.571 C -2065.951 146.571 -2059.517 139.317 -2054.349 133.485 C -2049.732 128.278 -2046.087 124.169 -2038.677 124.169 C -2031.267 124.169 -2027.626 128.278 -2023.013 133.485 C -2017.845 139.317 -2011.415 146.571 -1998.966 146.571 C -1986.513 146.571 -1980.079 139.317 -1974.907 133.485 C -1970.294 128.278 -1966.645 124.169 -1959.231 124.169 C -1951.813 124.169 -1948.169 128.282 -1943.547 133.485 C -1938.379 139.317 -1931.942 146.571 -1919.492 146.571 C -1916.398 146.571 -1913.89 144.063 -1913.89 140.97 C -1913.89 137.876 -1916.398 135.372 -1919.492 135.372 Z" style="fill: rgb(50, 125, 196); paint-order: fill;"/>
  <path d="M -1523.08 135.372 C -1530.494 135.372 -1534.142 131.263 -1538.76 126.056 C -1543.928 120.224 -1550.362 112.97 -1562.819 112.97 C -1575.272 112.97 -1581.706 120.224 -1586.878 126.056 C -1591.491 131.263 -1595.14 135.372 -1602.554 135.372 C -1609.96 135.372 -1613.605 131.263 -1618.218 126.06 C -1623.386 120.228 -1629.816 112.97 -1642.265 112.97 C -1654.714 112.97 -1661.144 120.223 -1666.316 126.056 C -1670.929 131.263 -1674.574 135.372 -1681.988 135.372 C -1689.394 135.372 -1693.039 131.263 -1697.652 126.059 C -1702.82 120.224 -1709.25 112.969 -1721.699 112.969 C -1734.144 112.969 -1740.57 120.227 -1745.738 126.055 C -1750.347 131.262 -1753.988 135.372 -1761.394 135.372 C -1768.8 135.372 -1772.441 131.262 -1777.05 126.059 C -1782.218 120.227 -1788.648 112.969 -1801.093 112.969 C -1813.538 112.969 -1819.964 120.227 -1825.132 126.055 C -1829.741 131.262 -1833.386 135.372 -1840.788 135.372 C -1848.186 135.372 -1851.827 131.262 -1856.436 126.059 C -1861.604 120.227 -1868.03 112.969 -1880.471 112.969 C -1892.916 112.969 -1899.35 120.223 -1904.518 126.055 C -1909.127 131.262 -1912.772 135.372 -1920.178 135.372 C -1927.584 135.372 -1931.225 131.262 -1935.834 126.059 C -1941.002 120.227 -1947.432 112.969 -1959.877 112.969 C -1962.971 112.969 -1965.479 115.477 -1965.479 118.571 C -1965.479 121.665 -1962.971 124.172 -1959.877 124.172 C -1952.471 124.172 -1948.826 128.282 -1944.217 133.485 C -1939.049 139.317 -1932.623 146.571 -1920.178 146.571 C -1907.733 146.571 -1901.299 139.317 -1896.131 133.485 C -1891.518 128.278 -1887.877 124.168 -1880.471 124.168 C -1873.073 124.168 -1869.432 128.278 -1864.823 133.481 C -1859.655 139.313 -1853.229 146.571 -1840.788 146.571 C -1828.343 146.571 -1821.917 139.313 -1816.749 133.485 C -1812.14 128.278 -1808.495 124.169 -1801.093 124.169 C -1793.687 124.169 -1790.046 128.278 -1785.437 133.481 C -1780.265 139.313 -1773.839 146.571 -1761.394 146.571 C -1748.949 146.571 -1742.523 139.313 -1737.355 133.485 C -1732.742 128.278 -1729.101 124.169 -1721.699 124.169 C -1714.293 124.169 -1710.648 128.278 -1706.035 133.481 C -1700.867 139.317 -1694.437 146.571 -1681.988 146.571 C -1669.539 146.571 -1663.105 139.317 -1657.937 133.485 C -1653.32 128.278 -1649.675 124.169 -1642.265 124.169 C -1634.855 124.169 -1631.214 128.278 -1626.601 133.485 C -1621.433 139.317 -1615.003 146.571 -1602.554 146.571 C -1590.101 146.571 -1583.667 139.317 -1578.495 133.485 C -1573.882 128.278 -1570.233 124.169 -1562.819 124.169 C -1555.401 124.169 -1551.757 128.282 -1547.135 133.485 C -1541.967 139.317 -1535.53 146.571 -1523.08 146.571 C -1519.986 146.571 -1517.478 144.063 -1517.478 140.97 C -1517.478 137.876 -1519.986 135.372 -1523.08 135.372 Z" style="fill: rgb(50, 125, 196); paint-order: fill;"/>
</svg>