<?xml version="1.0" encoding="utf-8"?>
<svg viewBox="27.114 194.195 448.001 33.602" width="448.001" height="33.602" xmlns="http://www.w3.org/2000/svg">
  <path d="M 505.9 432.012 C 498.486 432.012 494.838 427.903 490.22 422.696 C 485.052 416.864 478.618 409.61 466.161 409.61 C 453.708 409.61 447.274 416.864 442.102 422.696 C 437.489 427.903 433.84 432.012 426.426 432.012 C 419.02 432.012 415.375 427.903 410.762 422.7 C 405.594 416.868 399.164 409.61 386.715 409.61 C 374.266 409.61 367.836 416.863 362.664 422.696 C 358.051 427.903 354.406 432.012 346.992 432.012 C 339.586 432.012 335.941 427.903 331.328 422.699 C 326.16 416.864 319.73 409.609 307.281 409.609 C 294.836 409.609 288.41 416.867 283.242 422.695 C 278.633 427.902 274.992 432.012 267.586 432.012 C 260.18 432.012 256.539 427.902 251.93 422.699 C 246.762 416.867 240.332 409.609 227.887 409.609 C 215.442 409.609 209.016 416.867 203.848 422.695 C 199.239 427.902 195.594 432.012 188.192 432.012 C 180.794 432.012 177.153 427.902 172.544 422.699 C 167.376 416.867 160.95 409.609 148.509 409.609 C 136.064 409.609 129.63 416.863 124.462 422.695 C 119.853 427.902 116.208 432.012 108.802 432.012 C 101.396 432.012 97.755 427.902 93.146 422.699 C 87.978 416.867 81.548 409.609 69.103 409.609 C 66.009 409.609 63.501 412.117 63.501 415.211 C 63.501 418.305 66.009 420.812 69.103 420.812 C 76.509 420.812 80.154 424.922 84.763 430.125 C 89.931 435.957 96.357 443.211 108.802 443.211 C 121.247 443.211 127.681 435.957 132.849 430.125 C 137.462 424.918 141.103 420.808 148.509 420.808 C 155.907 420.808 159.548 424.918 164.157 430.121 C 169.325 435.953 175.751 443.211 188.192 443.211 C 200.637 443.211 207.063 435.953 212.231 430.125 C 216.84 424.918 220.485 420.809 227.887 420.809 C 235.293 420.809 238.934 424.918 243.543 430.121 C 248.715 435.953 255.141 443.211 267.586 443.211 C 280.031 443.211 286.457 435.953 291.625 430.125 C 296.238 424.918 299.879 420.809 307.281 420.809 C 314.687 420.809 318.332 424.918 322.945 430.121 C 328.113 435.957 334.543 443.211 346.992 443.211 C 359.441 443.211 365.875 435.957 371.043 430.125 C 375.66 424.918 379.305 420.809 386.715 420.809 C 394.125 420.809 397.766 424.918 402.379 430.125 C 407.547 435.957 413.977 443.211 426.426 443.211 C 438.879 443.211 445.313 435.957 450.485 430.125 C 455.098 424.918 458.747 420.809 466.161 420.809 C 473.579 420.809 477.223 424.922 481.845 430.125 C 487.013 435.957 493.45 443.211 505.9 443.211 C 508.994 443.211 511.502 440.703 511.502 437.61 C 511.502 434.516 508.994 432.012 505.9 432.012 L 505.9 432.012 Z" style="fill: rgb(50, 125, 196); paint-order: fill;" transform="matrix(1, 0, 0, 1, -36.386967, -215.413757)"/>
</svg>