<svg version="1.2" xmlns="http://www.w3.org/2000/svg" viewBox="0 0 1221 1517" width="1221" height="1517">
	<title>Bureau_Veritas-svg</title>
	<style>
		.s0 { fill: #151616 } 
		.s1 { fill: #676659 } 
		.s2 { fill: #ffffff } 
	</style>
	<g id="g10">
		<path id="path118" class="s0" d="m363.3 36.3c2.9-1-3 0.9 0 0z"/>
		<path id="path122" class="s0" d="m363.3 36.3c0.5-0.2-0.5 0.1 0 0z"/>
		<path id="path126" class="s1" d="m608.7 1517c-85.4 0-167.7-12.8-245.4-36.2-83.7-29.1-161.2-87.2-209.1-159.9-79.2-115.6-151-339.3-154.1-561.9v-0.7c3.1-222.6 74.9-446.3 154.1-562 47.9-72.6 125.4-131 209.1-160 77.7-23.5 161.8-36 247.2-36 85.4 0 169.5 12.5 247.3 36 83.6 29 161.2 87.4 209.1 160 79.2 115.7 151 339.4 154 562v0.7c-3 222.6-74.8 446.3-154 561.9-47.9 72.7-127.3 131.1-210.9 160.1-77.8 23.5-158.2 36-243.7 36h-1.8z"/>
		<path id="path130" class="s2" d="m1173.8 758.6c2.7 167.7-48.4 371.3-97.7 479.7-54.6 123.8-137.9 199.1-260.4 232.5-65.9 17-135.1 25.6-206.2 25.6-71.1 0-140.7-8.6-206.6-25.6-122.4-33.4-205.8-108.7-260.2-232.5-49.4-108.4-100.5-312-97.8-479.7-2.7-167.7 48.4-371.2 97.8-479.5 54.4-123.9 137.8-199.2 260.2-232.6 65.9-16.9 135.5-25.6 206.6-25.6 71.1 0 140.3 8.7 206.2 25.6 122.5 33.4 205.8 108.7 260.4 232.6 49.3 108.3 100.4 311.8 97.7 479.5z"/>
		<path id="path134" class="s1" d="m611.5 200c58.6 0 117.1 8.2 171.1 22.7 57.5 16.5 104.6 56.1 128.3 110 51.5 110.6 85.5 269.6 85.5 425.9 0 156.5-34 315.4-85.5 426-23.7 53.8-70.8 93.6-128.3 109.9-54 14.6-112.5 22.7-171.1 22.7h-1.9c-58.6 0-117.1-8.1-171.1-22.7-57.5-16.3-104.6-56.1-128.4-109.9-51.7-110.6-85.4-269.5-85.4-426 0-156.3 33.7-315.3 85.4-425.9 23.8-53.9 70.9-93.5 128.4-110 54-14.5 112.5-22.7 171.1-22.7z"/>
		<path id="path138" class="s2" d="m694.4 413.4c-8.2-13.7-1.5-1.5-10-17.4"/>
		<path id="path142" class="s2" d="m520.1 728.7v56.2l-193.5 0.1v-56.2z"/>
		<path id="path146" class="s2" d="m476.3 1215.5c-4-8.8-5.7-11.9-6-21.1 40.4 0 67.8 0 110.7 0-0.3 15.4-9 30.4-23 40.4-15.3 11.1-40.8 13.7-57.8 4.2-9.8-4.7-18.5-14.2-23.9-23.5z"/>
		<path id="path150" class="s2" d="m595.8 1170.6l-59.4 0.1v-27.5h59.6l18.7-22.2c9.1 10.6 9.8 11.4 19.3 22.2h59.5v27.5l-59.6-0.1c0 29.7 0 33.8 0 68.4-11.9 0-27.2 0-38.1 0z"/>
		<path id="path154" class="s2" d="m602.8 1085.3c12.2-4 29.4-11 32.8-22.8-0.9-18.3 11.7-33 21.1-47.6 4.8-6.3 5.4-10.2 4-17.1 18.9 0.8 38.1 16.6 45.5 34.3 7.5 18 4.6 41.6-7.1 56.6-14.6 17.7-34.8 27.1-58.3 22.8-14.8-3.2-29.4-12.3-38-26.2z"/>
		<path id="path158" class="s2" d="m477.8 914.9c-7.4-4.9-8.6-5.5-16-7.5-6.5-1.4-13.6-0.2-18.7 3.7-6.1 5.6-6.8 11-6.9 20.8-0.5 34.9 3.4 58.9-14.1 72.6-11.3 7.9-21.7 8.6-32.8 8.6-3.6-0.1-10-0.6-13.7-1.7-8.3-2.1-20.2-6.6-27.2-17.9l-1.4-2.6-1.3-3.4-1.5-3.6-0.6-5.7v-105.1c-0.9-13.2-5.9-13.4-16.6-21.5l3.8-1.3 42.6-13.9c6 6.6 7.4 15.1 8 23.8v82.2c-0.1 5.3 4.5 8.4 10.7 8.6 7.2 0 10.2-2.7 10.8-8.5 0.6-36.8-0.6-47.1 0-80.5 1-11.3 11-22.5 20.5-25.1 11.8-5.6 26.1-3.4 36.6 1.8 19 9 18 46.1 17.8 76.2z"/>
		<path id="path162" class="s2" d="m854.9 970.5c-31.1-30.5-84.9-73-89.3-91.1-4.7-12.1-3.2-26.7-3.5-40.8 9.1-7 16.4-13.1 27.3-21.6-0.8 21.5-3.8 43.3 6.6 56.1 25.4 25.3 48.4 48.1 71.2 70.6 8.5 9.2 15.3 22.3 9.7 34.4-2.7 5.9-6.3 12.4-10.2 17.7 0-11.7-5.1-18.6-11.8-25.3z"/>
		<path id="path166" class="s2" d="m678.9 815.6c23.7-0.4 31.3 0.3 55.9-0.2v166.2h-56.1z"/>
		<path id="path170" class="s2" d="m804.5 831c6-6.6 8.1-9 15.1-15.8l14.1 17v47.2c20-9.7 15.1-38 15.1-62.5 11.9 9.7 17.9 15.1 29.1 25.8 6.4 28.3-10.5 44.3-23.2 64.2l-50.2-48z"/>
		<path id="path174" class="s2" d="m763.1 704l-12.9-28.2c-21.1-1.9-22.6-1.9-43.9-3.5 20-25.7 40.5-51.2 54.3-79.4v-40.1l39.3-5c0 33.7 0 59.2 0 95.1 0 3.3 4.8 6.7 9.7 6.7h2.1c1.6 0 9.1-1.6 9.2-6.3v-98.8c13.7-3.1 27.4-7.8 40.2-10.4v59.5c7.7-0.9 11.6-1.9 21.1-3.3v78.4l-24.4 3.6-7.6 31.7z"/>
		<path id="path178" class="s2" d="m403.9 684.5c-0.7-26-1.8-43-2.4-68.6 8-2.1 15.9 2.9 22.1 7.6-1 32.6-1 32.2-1.7 66.5h-17.9z"/>
		<path id="path182" class="s2" d="m400.3 535.3c-4.2-25.6-4.7-27.5-7-46.2-6.3 0-8.4 0-16.3 0v-18c28.1 0 43.7 0.1 72 0.1v17.9c-7 0-9.8 0-16.9 0l-7.3 60.2c-7.2-6.5-15.4-11.1-24.5-14z"/>
		<path id="path186" class="s2" d="m397.4 458.3c-24.1-25.8-25.7-64.5-21.1-99.4v-0.2c4.4 12.9 12.6 22.2 25.6 28.4-1.5-6.9-7.6-13.2-9.5-20.4-5.6-14.2-5.1-34.4 4.1-46.7 6.6-9.8 16-13.8 26.3-17.1-3.9 11.8-5.1 25.7-0.3 37.5 6.7-5.1 7.1-5.5 12.3-10.6 2-1.8 2.9-2.4 4.6-3.7 9.6 20.5 20.4 48.6 14.1 72.5l-3.9 10.2c-1.6-16.8-4.3-24.8-15.6-30.9-1.5 9.8 4.8 16.8 6.2 29.5 4.7 19.8 1 39.4-11.2 50.9z"/>
		<path id="path190" class="s2" d="m694.4 413.4l-24.9 27.2c-6.7-6.4-7.2-7-13.9-14 12.8-13.4 14-14.8 28.8-30.6"/>
		<path id="path194" class="s2" d="m726.9 347.2c5-23.5 7.7-50.8 33.6-60.5 9.8-2.8 23.1-1.6 31.4 5.7 11.1 8.1 14.4 21.7 11.7 34.3-7.8 27.4-38.4 32.5-63.2 39z"/>
		<path id="path198" class="s2" d="m898.7 728.7v56.6l-193.5-0.3v-56.2z"/>
		<path id="path202" class="s2" d="m431.4 1106.4c-7.8-35.7 35.3-48.5 45.5-78.2 8-49.6 10.4-101.9 45-140.5 3.3-72.8 26.9-137.3 78.7-190.2-2.4-16.5-9.1-30.7-14.1-46-6.7-0.3-11.3-1.6-17.5-7.1-4.5-6.3-6.3-11.1-7.5-18.7-18 22.3-40.4 47.3-64.9 62.4-4.5 2.6-10.2-2.8-18.5-10.4-30.2-23.8-35.2-77.7-81.2-75.4-20.9-7-19.9-31.6-23.4-50 7.8-5.6 20.4-5.4 29.7-1.7 28.7 15.3 47.8 47.6 74.9 69.3 7.3 5.8 13.8 13.3 20.5 16.1 17.8-15.3 32-28.4 44.1-52.1 8.3-13.5 22.2-19.3 37.6-19.4l10.9-12.9-5.8-32.1c-11.2-14.4-20.5-29.4-28-45.5 3.9-18.4 6.3-39.9 25-50 12.2-7.6 22.1 9.7 32.1-1.3 7.3-1.5 13.6 0.5 18.7 4.7 7.6 13.1 16.5 26.2 17 41.5-4.6 14.9-11.6 28.7-18.7 42.6-1.6 3.1-5.9 4.1-8.8 6.3 1.8 6.3 3.3 13.3 7.6 18.2 5.5 1.2 10.8 2.2 17.5 1 5.4-16.3 22.9-23.6 37.5-28l32-20.9c-5.1-24.3 10.5-45.7 1.8-69.9-18.3-8.7-23.5-29.3-27.5-45.6 2.9-10 7.9-20.8 15.2-29.4l1 1.3c17.6 20.3 33.6 41.3 39.2 66.6 3.2 32.3 6.3 65.4 4.2 99.1-17.4 17.3-38.2 27.5-57.9 40.4l-14.6 28c-1.7 28.8-10.2 54.8-14.7 82.8 12.5 33.8 27.2 78.8 16.4 110.1-8.4 18.6-25.9 28.8-38.9 39.2l-32.9 26.2c33 36.4 25.1 77.6 26.5 130.2-0.4 12.7 22.4 23.3 10.3 37.8-10.2 16.2-26 29.4-23.4 50.7-10.1 17-34.2 20.6-45.6 20.5-2.4 0.1-4.4-1.7-4.4-4.1 2.4-8.8 9.2-15.6 12.8-23.9 11.7-18 6.4-42.8 21-59.5-12-39.1-30.2-75.3-35.2-117.1l-0.3-2.7c-9.8 19.2-4.4 38 0.8 53.2-32.4 40.8-67.5 80-67.5 133.6-13.9 24.6-33.5 47-43.8 73-3.4 4.3-9.9 0.6-13.8-1.7-9.2-6.1-11.3-12.1-14.6-20.5z"/>
		<path id="path206" class="s2" d="m786.6 930.4c31.1 30.5 84.9 73 89.2 91.1 4.7 12.2 3.2 26.7 3.4 40.8-8.9 7.1-16.4 13.2-27.2 21.6 0.8-21.5 3.8-43.4-6.5-56.1-25.4-25.2-48.4-48.1-71.3-70.5-8.5-9.2-15.3-22.3-9.7-34.5 2.6-5.8 6.3-12.4 10.2-17.7 0 11.8 5.2 18.6 11.9 25.3z"/>
		<path id="path210" class="s2" d="m836.9 1069.9c-6 6.6-8.1 9-15.1 15.9l-14.1-17v-47.3c-19.9 9.8-15.2 38-15.2 62.5-11.7-9.6-17.7-15.1-29-25.7-6.4-28.3 10.5-44.3 23.3-64.2l50.1 48z"/>
		<path id="path214" class="s2" d="m729.3 1239c-17 9.5-42.6 6.9-57.8-4.2-13.9-10-22.7-25-22.9-40.4 42.9 0 70.1 0 110.6 0-0.4 9.2-1.9 12.3-6 21.1-5.5 9.3-14.1 18.8-23.9 23.5z"/>
		<path id="path218" class="s1" d="m630.1 1456.8c-0.6-30.6 29.5-46.2 48.4-66.5 5.1-4.9 7-14.6 3.4-22.7-2.3-5-5.6-7.5-9.8-8.6-6.6-1.5-12.2-0.5-16.4 3.2-5.9 5.4-7.5 12.5-7.2 20.2l-21.1 1.2c-1.8-11.6 1.1-22.9 8.2-31.7 9.8-10.5 24.6-13.4 38.9-12.4 11.4 1.9 24.8 8.8 29.5 20.7 6.1 13 4.1 29.7-5.5 40.7-12.5 13.2-28.6 20.4-38.9 35.3l53-3.2c0.5 6.5 0.9 12.9 1.2 19z"/>
		<path id="path222" class="s1" d="m441.7 1324.2l-0.4 0.9-34.5 106.1-22.2-7.3 23.8-72.5 0.4-1.2c-8.9-3.1-19.5-6.1-28-9.1l4.5-13.8c11.1 2.9 22.6 4.8 32.4-3.2 3.5-2.9 4.1-3.6 6.1-5.7z"/>
		<path id="path226" fill-rule="evenodd" class="s1" d="m852.3 1415.4c-6.6 6.1-15.9 10.7-26.1 13.2-10.2 2.4-20.6 2.6-29.1 0.4-11.5-3.4-21-12.6-23.5-24.3-2.4-10.5-1.3-20.6 7.6-29.1l5.2-4.4c-8.3-1.1-18.6-6.8-20.9-16.4-3.8-10.4 0-20.2 7-28.1 6.6-6.4 15.6-10.8 25.4-13 9.6-2.5 19.8-3 28.5-0.3 9.9 3.7 17.8 10.7 19.4 21.6 2.3 9.5-4.1 19.4-11 24.3l6.7 1.5c11.7 3.3 17.5 11.7 20.3 22.1 3.1 11.7-1 24.1-9.5 32.5zm-54.9-56.1c3.6 0.8 7.7 0.7 11.6-0.4 4-0.9 7.8-2.6 10.5-5.1 2.7-2.5 4.5-5.7 4.6-9.8 0.1-5.3-3.5-12.2-9.7-14.1-3.8-1.3-8.4-1.3-12.6-0.2-4.3 1.1-8.2 3.1-10.9 6-4.8 4.6-4.8 12.4-2.1 17 2 3.6 5.1 5.6 8.6 6.6zm41.9 29.6c-1.5-7.3-6.9-13.2-14.5-14.1-3.1-0.4-7.4-0.2-11.7 0.7-4.2 1.2-8 3-10.8 4.8-6.1 4.4-8.2 12-6.1 19.3 1.3 4.9 5.2 9.1 10.6 11.1 4 1.7 9.6 1.5 15.1 0.2 5.4-1.3 10.5-3.9 13.3-7.1 3.8-4.3 5.1-9.9 4.1-14.9z"/>
		<path id="path230" fill-rule="evenodd" class="s1" d="m556.5 1450.8c-8.1 3.9-18.5 5.6-28.8 5.1-10.5-0.8-20.5-3.7-28-8.5-9.9-6.6-16.2-18.1-15.2-30.1 0.8-10.8 4.9-20.1 15.9-25.5l6.4-2.7c-7.7-3.5-15.8-12.1-15.3-21.9-0.4-11 6.2-19.2 15.3-24.8 8-4.1 18.1-5.6 28-4.8 10.1 0.5 19.8 3 27.3 8.2 8.3 6.5 13.8 15.5 12.1 26.5-0.7 9.9-9.7 17.4-17.7 19.9l6 3.4c10.1 6.6 13.1 16.4 12.7 27.2-0.5 12-8 22.6-18.7 28zm-35.7-69.8c3.1 1.9 7.1 3 11.2 3.1 4.1 0.3 8.2-0.2 11.5-1.6 3.2-1.7 6.1-4.1 7.3-8.1 1.7-5 0.4-12.8-5.1-16.3-3.1-2.4-7.5-3.7-11.9-3.9-4.3-0.4-8.9 0.4-12.2 2.4-5.9 2.9-8.2 10.4-7.1 15.5 0.8 4.1 3.3 7 6.3 8.9zm31.2 40.8c0.7-7.5-2.7-14.7-9.6-17.9-2.9-1.3-7.2-2.3-11.4-2.6-4.4-0.3-8.6 0.3-11.7 1.3-7.2 2.3-11.5 9-11.6 16.4-0.2 5.2 2.1 10.4 6.8 14 3.3 2.6 8.7 4.3 14.2 4.6 5.6 0.4 11.2-0.6 14.9-2.9 4.9-3 7.9-8 8.4-12.9z"/>
		<path id="path234" class="s1" d="m1074.4 347.3l-103.2 44.5-9.2-21.5 103.2-44.5z"/>
		<path id="path238" class="s1" d="m685.5 168.9l-26.5-115.6 24.5 2.4c4.9 28.7 9.9 61.1 15.7 85.3 10.6-22.6 22-53.3 32.4-80.3l24.2 2.4-48.9 108z"/>
		<path id="path242" class="s1" d="m263.6 244.5l-25.2 44.9 27.5 15.4 28.8-51.6 16.3 9.1-40.3 72.1-98-54.8 40.2-72.1 16.1 9.2-28.7 51.5 21.2 11.7 25-44.8z"/>
		<path id="path246" fill-rule="evenodd" class="s1" d="m190.9 778.5l-0.1 8.2-111.5 0.1c0.7-24.1-2.5-65.9 4.9-75.4 5.4-9.5 16.2-12.6 27.5-11.2 10.8 1.4 17.2 9.9 18.9 16.7 4.8-11.7 13.4-19.3 24.7-20.7 13.4-0.7 26.5 4.1 31.8 16.2 5.7 16.4 3.1 21.8 3.8 66.1zm-68.4-49.3c-2.2-5.7-4.7-7.8-14-7.1-15.8 1.7-11.6 15.5-12.4 41.2h27.6c0-22.3 0.5-28.4-1.2-34.1zm45.1-5.4c-3.9-3.9-10.3-4.4-15.5-3-14.8 2.8-10.9 17.5-11.5 42.5h0.2 31.4c-0.2-23.2 1.7-33.4-4.6-39.5z"/>
		<path id="path250" class="s1" d="m1075.3 409.7l17.9-4.6 22.6 87.8-17.9 4.6-8.3-32.4-90.3 23.2-5.7-22.7 90.1-23.3z"/>
		<path id="path254" class="s1" d="m508.1 175.4c-12.6 2.1-25.5 0.9-35.8-5.4-8.9-5.3-12.1-11.9-13.7-20.1l-12.9-80.2 22.8-3.8 12.9 80.3c1.4 6.6 7.2 10.6 13.3 11.9 3.3 0.8 7.1 0.7 10.7 0.1"/>
		<path id="path258" class="s1" d="m505.4 158.1c3.7-0.5 7.2-1.5 10.2-3.4 5.3-3.2 9.5-9.4 8.8-15.4l-12.9-80.3 22.9-3.7 12.8 80.4c1.1 8.2 0.1 15.6-6.7 23.2-7.9 9.3-19.7 14.5-32.2 16.4"/>
		<path id="path262" fill-rule="evenodd" class="s1" d="m1130.6 592.8l-105.9 54.5-3.1-22.8 23-11.4-5.5-40.2-25.4-4.7-3.2-22.7 116.7 23.4zm-23.7-8.9h0.1 0.1-0.2l-48.5-7.4 3.9 27.8z"/>
		<path id="path266" class="s1" d="m1110.3 761.9l2.1-0.4 2.6-0.6 1.8-0.8c7.4-4 9.2-13.8 8.7-21.8-0.2-8.1-2.7-16.4-10.3-19.4-4-1.1-8.9-1.4-11.6 2.7-12.7 18.8-3.9 58.5-36.6 65.4-14.2 2.5-26.7-3.8-34.1-15.2-10.1-18-11-46.3 0.6-63.9 7-9.1 16.4-14.7 27.8-14.8l1.5 21.5c-7.1 1-14 4.5-17.2 11.5-4.6 11.2-3.6 29.1 4.7 35.7 3.1 3.4 10 3 13.8 1 13-9.3 10.4-32.6 16.9-48.2 2.1-6.6 8.3-13.2 14.4-16.6 11.5-4.9 26.3-3.2 35.6 6 14.9 14.1 15.6 41.7 8.7 58.5-3.9 11.7-16.6 20.1-29.6 20.9l-1.4-21.5z"/>
		<path id="path270" class="s1" d="m206 592.5c-1.9 12.4-7 24.3-16.2 32.2-7.7 6.8-15 7.9-23.3 6.9l-80.4-12.6 3.6-22.8 80.3 12.4c6.6 0.8 12.2-3.5 15.3-8.8 2-3 3.1-6.5 3.6-10.2"/>
		<path id="path274" class="s1" d="m188.9 589.6c0.6-3.7 0.6-7.3-0.2-10.8-1.3-5.9-5.9-12.1-11.9-13l-80.4-12.8 3.6-22.7 80.4 12.5c8.2 1.6 14.9 4.8 20.1 13.8 6.4 10.2 7.6 23 5.5 35.6"/>
		<path id="path278" fill-rule="evenodd" class="s1" d="m422.6 187.7l-19.6 12-19.7-16.8-34.6 21.1 5.8 25.2-19.8 11.9-24.6-116.4 20.6-12.5zm-54.4-17.5l-36.3-32.8-0.1-0.3v0.3l-0.1-0.1 0.1 0.2 12.4 47.3z"/>
		<path id="path282" class="s1" d="m868.6 166.8l-47.6-20.1-12.1 29 54.5 22.8-7.2 17.2-76.2-31.8 43.4-103.6 76.2 31.8-7.3 17.2-54.3-22.8-9.3 22.4 47.2 19.8z"/>
		<path id="path286" fill-rule="evenodd" class="s1" d="m250.6 392.5l-6.6 22.3c-11.3 1.7-39.8-15.7-47.5 2-2 2.9-6.3 16-9.1 26.4l1.7 0.4 42.6 12.6-6.8 22.6-107.6-32.1c13.9-45.5 17.2-74.2 42.2-78 9.6-0.7 19.5 2.2 25.6 8.6 6.4 6.2 6.8 12.6 6.8 20.3 13.7-21.2 39.5-4 58.7-5.1zm-74.5 5.9c-3.1-3.9-6.8-5.4-12.3-6.3-13.5-1.1-16.2 18.2-22.5 37.4l28.3 8.3c5.1-18.5 11.8-32.9 6.5-39.4z"/>
		<path id="path290" fill-rule="evenodd" class="s1" d="m1015.5 254c-5.2 8.2-13.3 14.4-22.1 15.6-8.8 1.7-14.2-1.7-20.5-6.3 9.1 23.5-20 34.1-30.4 50.3l-14.1-18.4c5.1-10.2 36.2-22.9 26.3-39.6-1-3.3-9.3-14.4-15.8-22.8l-1.6 1.1-35.2 26.8-14.1-18.6 89.1-68c28.7 37.8 49.9 57.4 38.4 79.9zm-38.6-50.3l-23.3 17.8c11.9 15 19.5 28.9 28 28.5 5.1-0.2 8.4-2.3 12.3-6.1 8.9-10.3-5.1-24-17-40.2z"/>
		<g id="g378">
		</g>
	</g>
</svg>