<?xml version="1.0" encoding="utf-8"?>
<svg viewBox="69.571 89.018 362.014 429.603" width="362.014" height="429.603" xmlns="http://www.w3.org/2000/svg">
  <path d="M 292.139 374.868 C 289.774 379.287 280.339 384.372 271.855 385.799 C 270.129 386.089 268.653 386.391 268.575 386.469 C 268.497 386.547 269.931 389.21 271.761 392.386 L 291.761 426.716 C 292.105 427.042 303.848 427.656 319.494 428.166 C 327.937 428.44 328.054 428.462 328.252 429.76 C 328.448 431.047 331.18 429.648 305.327 441.496 L 273.827 455.997 L 265.684 459.736 L 261.708 461.545 L 253.184 457.654 L 195.871 431.434 C 193.506 430.351 192.832 429.212 193.915 428.129 C 193.96 428.085 201.721 427.943 211.162 427.814 L 228.447 427.472 C 228.589 427.346 202.236 380.358 201.678 379.743 C 201.378 379.411 201.022 379.525 199.979 380.288 C 189.982 387.599 171.23 388.404 159.012 382.047 C 155.917 380.436 151.494 376.572 151.014 375.059 C 150.685 374.022 150.47 374.135 149.196 376.012 C 140.452 388.903 110.804 389.98 98.209 377.866 C 96.873 376.582 96.157 376.075 96.27 376.495 L 97.63 381.716 C 115.996 452.562 190.602 499.655 269.66 490.304 C 335.504 482.516 389.492 436.36 402.62 376.633 C 402.684 376.342 401.806 377.017 400.67 378.133 C 388.16 390.419 357.882 388.589 349.132 375.018 L 348.609 374.207 L 347.557 375.736 C 337.571 390.251 302.463 389.932 293.533 375.245 C 292.628 373.757 292.72 373.782 292.139 374.868" fill="#0782f5"/>
  <path d="M 244.16 89.207 C 182.214 92.261 137.009 116.184 116.861 156.576 C 104.116 182.128 104.674 207.36 118.527 231.828 L 132.996 257.495 L 154.768 296.162 L 169.477 322.328 L 178.322 337.995 L 187.991 355.162 L 199.943 376.385 L 200.823 377.941 L 199.184 379.144 C 184.2 390.144 155.776 385.273 150.656 370.828 C 150.466 370.29 150.3 370.508 149.794 371.959 C 143.463 390.147 97.494 388.616 95.589 370.154 C 95.409 368.411 95.357 368.328 94.447 368.328 C 93.313 368.328 93.336 368.007 94.154 372.52 C 104.529 429.759 152.961 476.624 214.827 489.29 C 302.395 507.218 388.449 454.934 404.483 374.061 C 405.705 367.896 405.699 368.26 404.577 368.39 C 403.746 368.485 403.641 368.65 403.456 370.165 C 401.203 388.628 356.687 390.236 349.324 372.121 L 348.585 370.302 L 347.804 372.398 C 341.915 388.209 302.253 389.51 294.58 374.145 C 294.035 373.054 293.476 371.712 293.338 371.162 C 293.088 370.17 293.078 370.179 292.069 372.273 C 289.1 378.433 279.407 383.788 269.327 384.836 L 267.327 385.044 L 266.642 383.769 C 266.266 383.069 263.579 378.37 260.672 373.328 L 253.631 361.078 L 251.875 357.995 L 283.935 357.993 L 315.994 357.992 L 317.433 355.174 L 325.644 339.662 L 342.331 308.328 L 355.993 282.662 L 367.16 261.662 L 375.16 246.662 L 380.489 236.662 L 385.187 227.995 C 405.856 191.768 388.172 140.813 345.66 114.103 C 319.115 97.424 278.676 87.505 244.16 89.207 M 263.66 91.836 C 292.768 94.516 311.941 99.353 331.66 108.99 C 377.632 131.458 400.927 175.959 387.778 216.192 C 386.26 220.836 384.925 223.584 377.026 238.328 L 370.162 251.162 L 359.328 271.495 L 350.912 287.328 L 348.154 292.495 L 335.664 315.995 L 323.675 338.495 C 323.261 339.228 321.932 341.703 320.723 343.995 L 316.576 351.828 L 314.627 355.495 L 284.394 355.58 C 264.607 355.636 254.16 355.551 254.16 355.335 C 254.16 355.154 255.937 351.965 258.108 348.25 L 305.577 264.662 L 310.683 255.328 C 315.54 246.452 325.972 225.84 327.592 221.918 C 338.765 194.867 332.158 157.11 311.648 130.804 C 299.394 115.088 273.239 104.636 248.16 105.435 C 225.351 106.161 202.472 115.729 191.131 129.285 C 170.284 154.205 162.686 193.26 173.393 220.464 C 176.159 227.493 190.44 254.443 205.996 281.995 L 210.495 289.995 L 257.211 371.904 L 290.427 429.062 C 290.555 429.19 297.858 429.613 306.656 430.002 L 322.731 430.788 C 322.774 430.831 320.376 431.975 317.402 433.33 L 308.66 437.343 L 297.66 442.421 L 275.878 452.446 L 261.762 458.944 L 256.378 456.507 L 242.827 450.333 L 229.327 444.158 L 214.827 437.509 L 202.583 431.918 C 200.891 431.159 199.541 430.508 199.583 430.47 C 199.715 430.353 217.263 430 225.077 429.956 C 229.156 429.934 232.493 429.821 232.493 429.705 C 232.492 429.483 231.998 428.598 220.006 407.328 L 184.902 344.995 L 167.998 314.995 L 160.497 301.662 L 154.323 290.662 L 141.148 267.328 L 122.544 234.328 C 111.688 215.128 108.428 201.792 110.504 185.077 C 116.608 135.933 163.695 99.307 229.327 92.653 L 233.827 92.144 C 234.285 92.069 237.06 91.909 239.994 91.789 C 242.928 91.669 245.402 91.497 245.494 91.407 C 245.676 91.227 260.969 91.588 263.66 91.836 M 260.494 108.168 C 284.959 111.618 302.594 121.073 312.71 136.162 C 324.851 154.27 330.676 172.633 330.635 192.662 C 330.599 210.037 327.714 218.737 312.725 246.662 C 299.476 271.346 281.611 303.123 260.72 339.162 L 252.185 353.909 C 250.782 356.359 250.852 356.333 249.965 354.742 L 238.011 333.828 L 195.319 257.995 L 191.391 250.828 C 182.507 234.637 176.259 222.027 174.486 216.711 C 166.172 191.78 172.325 158.775 189.75 134.828 C 199.945 120.819 215.359 112.41 237.66 108.692 C 244.442 107.561 254.548 107.329 260.494 108.168 M 250.327 126.78 C 247.76 127.173 245.449 127.631 245.191 127.797 C 244.794 128.053 244.758 130.359 244.955 142.88 C 245.15 155.247 245.114 157.662 244.734 157.662 C 243.292 157.662 227.679 151.665 226.303 150.583 C 223.83 148.638 222.664 145.205 224.017 143.852 C 224.692 143.178 224.643 143.173 227.893 144.219 C 231.084 145.245 234.838 145.407 238.604 144.681 C 241.944 144.038 242.061 143.009 238.98 141.379 C 236.706 140.176 236.759 139.972 239.531 139.252 C 243.149 138.313 243.272 138.213 243.065 136.379 C 242.316 129.726 225.226 129.005 218.357 135.336 C 215.418 138.045 214.35 141.909 215.133 146.995 C 216.539 156.124 223.28 161.687 239.994 167.51 L 244.994 169.252 L 245.16 171.501 L 245.327 173.75 L 243.458 175.019 C 234.454 181.133 230.673 194.679 235.569 203.284 C 237.082 205.943 239.416 208.596 242.751 211.449 L 245.729 213.995 L 245.971 224.55 C 246.202 234.577 246.183 235.121 245.604 235.427 C 244.3 236.116 241.574 239.353 240.596 241.374 C 236.968 248.871 238.455 256.955 244.756 263.995 L 246.397 265.828 L 246.642 278.005 L 246.886 290.182 L 240.492 296.172 C 231.518 304.579 230.749 305.614 232.312 307.177 C 233.496 308.361 233.955 308.159 244.947 301.591 C 245.837 301.059 246.64 300.697 246.731 300.788 C 246.822 300.879 246.999 306.55 247.125 313.391 C 247.374 326.927 247.397 327.084 249.365 328.632 C 250.364 329.418 251.202 329.507 252.266 328.941 C 254.757 327.614 254.91 326.361 255.359 303.651 L 255.567 293.139 L 257.063 292.521 C 259.082 291.685 261.993 288.776 262.987 286.598 C 266.586 278.719 265.002 271.309 258.013 263.328 L 256.115 261.162 L 256.303 258.495 C 256.405 257.028 256.491 253.477 256.492 250.603 L 256.494 245.377 L 258.41 244.292 C 267.99 238.87 271.671 226.368 266.587 216.526 C 265.645 214.702 264.464 213.264 261.424 210.239 L 257.483 206.315 L 257.664 199.239 L 257.995 188.995 L 258.152 184.629 C 258.159 183.555 258.3 183.367 259.495 182.828 C 267.384 179.27 268.039 168.884 260.642 164.651 L 258.728 163.556 L 258.956 157.713 C 259.249 150.203 259.661 149.241 265.618 142.162 L 268.142 139.162 L 267.937 136.495 C 267.555 131.548 267.225 131.399 263.565 134.527 C 256.857 140.261 255.511 139.629 256.654 131.284 C 257.48 125.251 257.981 125.607 250.327 126.78 M 254.483 129.245 C 254.478 129.566 254.322 130.953 254.138 132.328 C 252.935 141.298 257.389 143.381 264.24 137.054 C 265.254 136.118 265.313 136.131 265.604 137.348 C 265.773 138.058 265.414 138.674 263.465 141.015 C 257.689 147.951 256.982 149.601 256.652 156.912 L 256.368 162.324 C 256.345 162.321 254.377 161.521 251.994 160.546 L 247.66 158.772 L 247.456 151.967 C 247.244 144.874 247.099 129.68 247.244 129.637 C 247.719 129.494 252.88 128.732 253.577 128.702 C 254.246 128.672 254.491 128.819 254.483 129.245 M 237.595 133.972 C 238.915 134.386 241.141 136.126 240.794 136.473 C 240.588 136.679 235.255 137.856 233.109 138.169 C 230.716 138.518 231.058 139.744 233.991 141.327 C 237.31 143.118 234.133 143.698 229.261 142.19 C 225.283 140.959 224.661 140.884 223.399 141.483 C 220.066 143.065 220.585 148.683 224.365 151.932 C 226.168 153.482 228.448 154.452 239.894 158.534 C 256.145 164.331 261.59 167.004 262.864 169.807 C 264.356 173.092 263.192 177.234 260.088 179.688 C 257.713 181.565 257.494 181.471 257.492 178.578 C 257.487 171.981 255.6 170.47 241.16 165.498 C 223.796 159.519 217.341 153.693 217.332 143.995 C 217.327 138.504 220.083 135.42 226.418 133.83 C 228.67 133.265 235.624 133.353 237.595 133.972 M 235.281 135.162 C 234.988 135.924 235.398 136.662 236.114 136.662 C 236.903 136.662 237.307 135.741 236.792 135.119 C 236.29 134.515 235.521 134.537 235.281 135.162 M 250.253 171.473 C 254.379 173.434 254.897 174.217 255.285 179.079 C 255.625 183.334 255.628 195.35 255.291 201.245 L 255.096 204.661 L 254.105 203.955 C 252.014 202.466 249.705 199.807 248.802 197.849 L 247.871 195.828 L 247.766 183.078 L 247.753 170.328 C 247.804 170.328 248.929 170.843 250.253 171.473 M 246.39 198.406 C 247.895 201.582 249.133 202.982 253.494 206.436 C 263.875 214.661 266.533 218.676 266.554 226.162 C 266.572 232.502 263.835 237.712 258.554 241.39 C 256.613 242.741 256.677 243.092 257.108 233.508 C 257.642 221.65 257.24 220.792 247.095 212.096 C 237.17 203.59 234.938 199.688 235.838 192.42 C 236.615 186.138 238.998 181.607 243.469 177.911 L 244.994 176.65 L 245.16 186.406 L 245.327 196.162 L 246.39 198.406 M 250.844 218.703 C 252.085 220.009 253.475 221.772 253.934 222.62 L 254.768 224.162 L 254.437 240.662 C 254.052 259.839 254.155 259.158 252.05 256.478 C 249.589 253.347 249.092 252.02 248.806 247.828 C 248.461 242.78 248.092 216.328 248.366 216.328 C 248.489 216.328 249.604 217.397 250.844 218.703 M 246.177 241.578 C 246.234 252.43 246.889 254.31 253.001 261.162 C 258.086 266.861 259.68 268.987 261.104 271.966 C 264.146 278.327 262.09 286.997 256.842 289.947 L 255.446 290.731 L 255.658 288.446 C 255.775 287.19 255.898 283.387 255.932 279.995 C 256.007 272.475 256.13 272.794 251.075 267.408 C 243.791 259.646 241.807 256.627 241.129 252.273 C 240.45 247.905 241.863 242.542 244.479 239.563 C 246.027 237.799 246.158 237.955 246.177 241.578 M 253.398 273.992 C 254.413 278.035 252.361 326.995 251.176 326.995 C 249.552 326.995 249.568 327.326 249.041 284.162 L 248.849 268.495 L 251.019 270.828 C 252.213 272.112 253.283 273.535 253.398 273.992 M 246.095 298.161 C 245.376 298.81 236.115 304.061 235.961 303.907 C 235.882 303.828 238.183 301.544 241.072 298.831 L 246.327 293.899 L 246.429 295.834 C 246.496 297.115 246.383 297.901 246.095 298.161 M 418.494 372.971 C 418.494 373.784 419.017 374.412 421.619 376.721 C 423.435 378.333 424.587 379.582 424.369 379.704 C 424.163 379.819 422.301 380.414 420.231 381.028 C 417.026 381.978 416.44 382.258 416.275 382.918 C 415.965 384.152 416.179 384.129 421.125 382.387 L 425.823 380.733 L 428.566 381.345 C 431.654 382.033 431.449 382.057 431.57 380.994 C 431.654 380.258 431.463 380.156 428.934 379.578 L 426.209 378.956 L 422.551 375.475 C 418.475 371.597 418.494 371.609 418.494 372.971 M 77.897 374.843 C 70.47 376.61 69.295 377.475 69.619 380.941 C 70.029 385.329 72.236 387.345 75.923 386.699 C 81.593 385.705 85.494 384.58 85.494 383.938 C 85.494 382.903 84.798 382.91 80.124 383.998 C 72.693 385.727 70.827 385.157 70.827 381.156 C 70.827 378.585 71.923 377.922 78.545 376.487 C 80.865 375.985 82.922 375.476 83.116 375.356 C 83.475 375.134 83.256 373.642 82.871 373.686 C 82.755 373.699 80.517 374.22 77.897 374.843 M 293.876 375.741 C 302.967 389.938 337.788 389.935 347.557 375.736 L 348.609 374.207 L 349.134 375.018 C 358.251 389.106 389.033 390.37 401.608 377.172 C 402.494 376.242 402.834 376.033 402.713 376.495 L 401.367 381.662 C 386.839 437.526 336.259 480.603 274.576 489.644 C 193.038 501.596 115.817 453.94 97.173 380.162 L 96.161 375.932 C 96.161 375.805 96.94 376.526 97.892 377.533 C 109.482 389.787 139.62 389.075 148.9 376.327 C 150.624 373.958 150.446 373.99 151.619 375.846 C 158.95 387.45 187.092 389.967 200.146 380.186 C 201.6 379.096 201.171 378.576 206.166 387.495 L 215.253 403.662 L 228.359 427.126 C 228.503 427.5 225.567 427.619 211.214 427.824 L 193.895 428.072 L 193.69 429.096 C 193.417 430.46 190.748 429.108 220.994 442.928 L 254.614 458.297 C 258.255 459.964 261.452 461.328 261.719 461.328 C 262.158 461.328 270.098 457.705 312.66 438.083 L 327.229 431.435 C 328.377 430.97 328.737 429.641 327.968 428.711 C 327.914 428.647 319.798 428.24 309.932 427.808 L 291.921 427.008 C 291.626 426.954 268.214 386.328 268.479 386.328 C 276.012 386.328 289.503 379.794 292.139 374.868 C 292.724 373.774 292.565 373.694 293.876 375.741 M 415.016 387.428 L 413.348 392.817 C 412.746 394.752 412.627 395.538 412.908 395.712 C 413.526 396.094 413.715 395.8 414.338 393.499 L 414.96 391.33 C 414.978 391.331 417.839 392.22 421.316 393.305 C 427.938 395.372 428.162 395.402 428.157 394.225 C 428.155 393.604 427.769 393.379 425.574 392.721 L 419.263 390.792 L 415.533 389.637 L 416.017 388.066 C 416.886 385.244 416.903 385.095 416.367 384.89 C 415.97 384.738 415.671 385.3 415.016 387.428 M 79.532 389.695 C 71.767 392.299 72.492 391.951 72.851 392.9 C 73.129 393.636 73.148 393.632 79.001 391.65 L 85.058 389.662 C 85.16 389.662 83.049 391.97 80.368 394.79 C 75.442 399.973 75.24 400.284 75.811 401.786 L 76.128 402.621 L 82.728 400.432 C 89.983 398.026 89.987 398.024 89.676 397.046 C 89.468 396.389 89.245 396.438 83.778 398.346 C 80.652 399.436 77.948 400.328 77.768 400.328 C 77.588 400.328 79.59 398.07 82.217 395.31 C 87.404 389.86 87.397 389.871 86.761 388.411 L 86.327 387.416 L 79.532 389.695 M 411.52 398.078 C 410.596 400.422 409.65 402.758 408.681 405.084 C 408.159 406.311 408.164 406.346 408.903 406.639 L 415.683 409.415 L 421.705 411.893 L 423.601 407.215 C 425.017 403.721 425.392 402.471 425.081 402.28 C 424.486 401.911 424.362 402.114 422.823 405.995 C 422.059 407.92 421.383 409.548 421.319 409.612 C 421.255 409.676 420.007 409.24 418.544 408.642 C 415.554 407.419 415.683 407.9 417.312 404.03 C 418.024 402.338 418.119 401.842 417.771 401.627 C 417.185 401.265 417.07 401.434 415.98 404.262 C 414.82 407.272 414.983 407.188 412.348 406.133 C 409.768 405.1 409.805 405.312 411.488 401.176 C 412.218 399.381 412.734 397.781 412.635 397.621 C 412.315 397.104 411.818 397.308 411.52 398.078 M 84.369 403.814 L 77.917 406.794 C 77.708 407.003 79.738 411.471 80.767 413.066 C 83.913 417.94 93.381 415.031 93.73 409.083 C 93.843 407.16 91.855 401.393 90.979 401.101 C 90.804 401.043 87.829 402.263 84.369 403.814 M 91.653 405.039 C 93.301 408.711 92.249 411.348 88.489 412.965 C 84.245 414.791 80.725 412.934 79.759 408.361 C 79.681 407.989 89.302 403.226 90.531 403.028 C 90.644 403.01 91.149 403.915 91.653 405.039 M 406.046 410.73 C 405.806 411.648 405.017 411.152 412.283 414.649 C 419.244 418 419.03 417.93 419.335 416.97 C 419.615 416.088 420.267 416.497 413.04 413.017 C 406.005 409.629 406.308 409.729 406.046 410.73 M 90.66 417.702 L 84.55 421.164 C 84.451 421.26 89.021 429.625 89.363 429.973 C 89.441 430.052 89.67 429.952 89.873 429.749 C 90.141 429.481 89.724 428.418 88.332 425.823 C 87.282 423.866 86.552 422.153 86.709 422.015 C 86.866 421.877 87.993 421.218 89.214 420.547 L 91.434 419.329 L 92.841 421.912 C 94.536 425.024 94.335 424.783 94.952 424.438 C 95.382 424.198 95.25 423.79 94.106 421.824 C 93.36 420.543 92.683 419.326 92.602 419.12 C 92.443 418.717 96.781 416.172 97.094 416.484 C 97.197 416.587 98.123 418.16 99.151 419.979 C 100.573 422.493 101.133 423.218 101.486 423 C 102.03 422.664 102.087 422.799 99.33 417.886 C 96.937 413.622 97.922 413.643 90.66 417.702 M 404.328 416.187 C 398.075 419.447 399.985 427.689 407.45 429.658 C 412.534 430.999 417.092 425.423 414.9 420.545 L 414.323 419.262 L 413.678 419.976 C 413.064 420.654 413.06 420.735 413.596 421.643 C 415.73 425.256 412.01 429.228 407.787 427.847 C 402.732 426.193 400.504 422.258 402.799 419.035 C 403.516 418.027 405.489 417.127 406.299 417.438 C 406.662 417.578 407.494 416.446 407.494 415.813 C 407.494 415.447 405.235 415.714 404.328 416.187 M 97.56 429.477 C 91.51 433.572 91.493 433.587 92.078 434.31 L 92.666 435.035 L 95.067 433.348 L 97.469 431.661 L 98.315 432.906 C 99.366 434.453 99.366 434.453 98.157 438.464 L 97.161 441.767 L 97.809 442.79 C 98.539 443.942 98.516 443.974 99.333 440.662 L 100.203 437.208 L 100.539 435.922 L 101.266 436.583 C 105.021 440 109.67 436.586 107.696 431.862 C 107.44 431.251 106.421 429.54 105.43 428.06 L 103.629 425.37 L 97.56 429.477 M 104.83 429.165 C 107.041 432.379 107.294 433.912 105.853 435.354 C 103.965 437.242 101.331 435.96 99.068 432.052 L 98.476 431.029 L 100.902 429.363 C 103.859 427.332 103.578 427.346 104.83 429.165 M 396.313 429.288 C 391.856 431.313 390.675 436.704 393.918 440.222 C 398.27 444.943 404.094 444.453 406.532 439.162 C 409.1 433.585 401.986 426.711 396.313 429.288 M 400.994 431.114 C 405.539 433.241 407.091 437.695 404.236 440.419 C 402.001 442.551 399.113 442.315 395.994 439.744 C 390.654 435.343 394.787 428.211 400.994 431.114 M 108.853 438.858 C 107.499 439.997 107.493 441.549 108.827 445.495 C 109.994 448.948 110.027 449.341 109.23 450.325 C 107.36 452.635 102.354 449.141 102.961 445.949 C 103.175 444.828 101.991 443.513 101.626 444.465 C 100.499 447.401 104.455 452.662 107.79 452.662 C 111.317 452.662 112.192 450.36 110.494 445.548 C 109.185 441.842 109.174 440.511 110.446 439.853 C 112.302 438.893 115.16 441.41 115.16 444.003 C 115.16 445.436 116 446.452 116.514 445.64 C 118.615 442.319 111.853 436.333 108.853 438.858 M 386.474 441.415 C 382.794 443.895 381.8 448.184 384.531 449.798 C 385.895 450.603 387.061 450.334 390.327 448.462 C 393.611 446.58 394.82 446.321 395.789 447.291 C 397.8 449.301 395.105 453.995 391.94 453.995 C 391.052 453.995 390.289 455.271 391.011 455.548 C 393.587 456.536 397.883 452.069 397.883 448.403 C 397.883 444.64 394.782 444.009 389.994 446.797 C 386.9 448.598 385.306 448.762 384.606 447.349 C 383.772 445.667 386.131 442.328 388.154 442.328 C 389.015 442.328 389.827 441.611 389.827 440.85 C 389.827 440.35 387.463 440.749 386.474 441.415 M 115.063 452.427 L 109.799 457.495 L 113.357 461.071 C 116.63 464.359 117.494 464.949 117.494 463.899 C 117.494 463.684 116.259 462.267 114.749 460.75 L 112.004 457.991 L 114.105 455.91 L 116.206 453.828 L 118.339 456.105 C 120.219 458.111 121.16 458.628 121.16 457.654 C 121.16 457.488 120.26 456.391 119.16 455.215 C 116.753 452.641 116.768 453.049 119.013 451.131 L 120.865 449.548 L 123.675 452.343 C 125.906 454.562 126.569 455.053 126.896 454.726 C 127.223 454.399 126.589 453.597 123.818 450.836 L 120.327 447.359 L 115.063 452.427 M 370.483 458.273 C 369.819 458.814 378.522 468.933 379.926 469.253 C 380.668 469.422 386.358 463.393 385.894 462.929 C 385.571 462.606 384.961 463.041 382.988 465.001 L 380.491 467.481 L 379.374 466.321 L 374.711 461.44 C 371.276 457.834 371.144 457.735 370.483 458.273 M 125.657 462.655 C 118.542 466.549 118.464 466.608 119.517 467.266 C 120.12 467.642 120.44 467.567 122.013 466.68 C 124.289 465.395 124.038 465.355 126.358 467.377 C 128.745 469.458 128.736 469.427 127.658 471.866 L 126.791 473.826 L 127.523 474.419 C 128.433 475.156 127.965 475.989 131.255 467.769 L 134.08 460.71 L 133.195 459.862 L 132.31 459.014 L 125.657 462.655 M 130.906 464.434 C 130.037 466.392 129.177 467.991 128.994 467.987 C 128.522 467.977 125.416 464.962 125.643 464.735 C 125.995 464.382 132.3 460.69 132.392 460.782 C 132.443 460.833 131.774 462.476 130.906 464.434 M 363.392 464.392 L 362.54 465.162 L 364.851 471.662 C 367.988 480.488 367.711 479.926 368.53 479.107 C 369.197 478.44 369.197 478.44 368.376 476.259 L 367.555 474.078 L 369.877 472.168 L 372.199 470.257 L 374.172 471.475 C 376.094 472.661 377.494 472.74 377.494 471.663 C 377.494 471.395 365.832 464.232 364.671 463.786 C 364.436 463.696 363.86 463.969 363.392 464.392 M 370.827 469.677 C 370.827 470.14 367.39 472.691 367.129 472.422 C 366.9 472.184 364.16 465.499 364.16 465.176 C 364.16 465.1 365.66 466.022 367.494 467.227 C 369.328 468.432 370.827 469.534 370.827 469.677 M 354.747 471.132 C 349.147 473.148 348.183 478.908 352.673 483.519 C 356.27 487.212 361.693 486.256 363.644 481.584 C 364.141 480.395 364.36 477.995 363.972 477.995 C 363.116 477.995 362.494 478.806 362.492 479.923 C 362.486 485.834 355.201 485.765 352.231 479.826 C 349.992 475.349 353.073 471.044 357.352 472.671 C 358.678 473.175 359.954 472.085 358.759 471.469 C 357.433 470.785 356.036 470.668 354.747 471.132 M 148.325 475.133 C 147.883 475.576 147.44 476.326 147.341 476.8 L 146.987 478.495 C 146.858 479.117 146.602 479.328 145.977 479.328 C 142.187 479.328 140.079 483.415 142.629 485.82 C 143.79 486.915 146.415 487.891 147.293 487.554 C 147.631 487.425 147.847 487.663 147.992 488.323 C 148.108 488.849 148.565 489.517 149.009 489.808 L 149.815 490.336 L 149.62 488.911 C 149.426 487.494 149.435 487.479 151.127 486.382 C 153.068 485.124 153.818 484.098 153.019 483.792 C 152.722 483.678 151.894 484.108 150.996 484.844 C 149.158 486.35 149.039 486.259 148.827 483.183 L 148.66 480.76 L 150.566 480.367 C 151.846 480.102 152.638 479.734 152.982 479.243 C 154.88 476.535 150.654 472.805 148.325 475.133 M 151.76 476.062 C 153.009 477.31 151.588 479.328 149.462 479.328 C 148.435 479.328 148.412 479.296 148.602 478.12 C 148.936 476.065 150.648 474.949 151.76 476.062 M 343.787 478.07 C 343.313 478.392 343.584 478.996 345.982 482.966 C 351.087 491.417 350.807 491.029 351.521 490.647 C 352.476 490.136 352.402 489.964 348.539 483.685 C 344.823 477.643 344.674 477.468 343.787 478.07 M 147.272 483.39 C 147.51 486.475 147.523 486.439 146.148 486.439 C 143.426 486.439 142.138 483.248 144.169 481.539 C 146.26 479.78 147.029 480.238 147.272 483.39 M 337.33 482.401 C 336.293 482.622 331.153 484.984 330.538 485.521 C 330.403 485.639 336.28 496.908 336.966 497.847 C 337.458 498.519 341.685 496.529 343.607 494.719 C 348.147 490.445 343.39 481.109 337.33 482.401 M 339.76 484.13 C 342.863 485.744 344.737 491.176 342.994 493.499 C 342.627 493.988 341.417 494.897 340.305 495.52 L 338.283 496.653 L 337.271 494.741 L 334.361 489.266 L 332.464 485.704 L 334.557 484.683 C 336.842 483.568 338.369 483.406 339.76 484.13 M 169.274 486.578 C 168.897 487.449 167.563 490.385 166.309 493.102 C 164.431 497.174 164.115 498.096 164.512 498.347 C 165.45 498.94 165.754 498.631 167.011 495.811 C 167.71 494.242 168.406 492.882 168.559 492.788 C 168.817 492.629 174.675 495.135 175.257 495.654 C 175.402 495.783 174.915 497.142 174.174 498.674 C 172.629 501.87 172.572 502.202 173.519 502.503 C 174.389 502.779 173.953 503.516 177.344 496.049 C 179.719 490.818 180.182 489.546 179.799 489.304 C 178.892 488.73 178.607 489.015 177.305 491.805 L 175.994 494.615 L 172.66 493.105 C 170.827 492.275 169.259 491.53 169.176 491.45 C 169.093 491.37 169.581 490.183 170.26 488.811 C 171.631 486.041 171.738 485.493 170.966 485.197 C 170.083 484.858 169.983 484.94 169.274 486.578 M 322.994 488.879 L 318.577 490.812 C 318.512 490.868 324.092 503.963 324.292 504.223 C 324.425 504.397 333.328 500.325 333.42 500.048 C 333.692 499.234 332.636 499.438 329.38 500.829 C 327.449 501.653 325.789 502.328 325.69 502.328 C 325.452 502.328 324.661 500.778 323.854 498.73 L 323.2 497.071 L 325.763 496.003 C 328.667 494.793 329.112 494.48 328.625 493.993 C 328.399 493.767 327.382 494.05 325.529 494.853 C 324.011 495.511 322.723 495.999 322.667 495.938 C 322.461 495.718 320.827 491.674 320.827 491.385 C 320.827 491.221 322.401 490.429 324.324 489.625 C 326.868 488.56 327.821 488.003 327.824 487.578 C 327.828 486.791 327.909 486.769 322.994 488.879 M 182.175 490.745 C 182.183 490.974 182.618 493.254 183.142 495.811 L 184.095 500.461 L 183.115 503.117 C 182.347 505.201 182.228 505.833 182.565 506.051 C 183.467 506.633 183.982 506.091 184.809 503.687 L 185.66 501.215 L 189.772 497.944 C 193.81 494.732 193.868 494.666 193.032 494.285 C 192.118 493.868 191.567 494.223 187.404 497.912 C 185.259 499.812 185.339 499.89 184.658 495.192 C 184.114 491.435 183.986 491.022 183.261 490.692 C 182.25 490.232 182.157 490.236 182.175 490.745 M 314.27 492.403 C 312.866 492.854 312.782 493.308 312.857 500.044 C 312.929 506.619 312.947 506.573 311.278 504.257 C 310.571 503.277 308.827 500.957 307.401 499.102 L 304.808 495.73 L 303.567 496.092 C 302.885 496.291 302.275 496.49 302.211 496.534 C 301.956 496.713 306.672 510.328 306.988 510.323 C 308.338 510.303 308.288 509.786 306.396 504.261 L 304.313 498.146 C 304.006 497.2 305.015 498.382 309.123 503.779 C 312.522 508.244 312.817 508.512 313.827 508.055 C 314.431 507.781 314.377 508.418 314.47 500.412 L 314.546 493.828 L 316.624 499.974 C 318.704 506.126 318.934 506.566 319.782 506.03 C 320.218 505.754 315.991 491.932 315.5 492.029 C 315.405 492.048 314.851 492.216 314.27 492.403 M 195.338 497.078 C 192.22 507.826 191.887 509.16 192.264 509.404 C 193.161 509.985 193.658 509.428 194.318 507.103 C 195.172 504.093 195.08 504.161 197.366 504.825 C 201.45 506.013 203.695 505.5 204.849 503.116 C 206.378 499.957 204.846 497.983 199.593 496.341 C 195.559 495.08 195.937 495.015 195.338 497.078 M 200.009 497.667 C 206 499.728 204.186 505.38 198.039 503.802 C 195.425 503.131 195.42 503.124 196.013 501.155 L 196.849 498.245 C 197.239 496.797 197.397 496.768 200.009 497.667 M 207.536 506.021 C 206.746 509.885 206.152 513.085 206.214 513.132 C 207.196 513.874 216.16 515.127 216.16 514.523 C 216.16 514.056 215.576 513.884 210.959 512.988 C 208.001 512.415 208.068 512.518 208.692 509.472 C 208.99 508.018 209.27 506.788 209.314 506.739 C 209.398 506.646 213.902 507.547 214.91 507.859 C 215.327 507.988 215.494 507.856 215.494 507.393 C 215.494 506.848 215.036 506.653 212.577 506.149 L 209.571 505.489 C 209.466 505.417 210.463 500.581 210.614 500.43 C 210.714 500.33 216.756 501.518 217.91 501.865 C 218.323 501.988 218.494 501.854 218.494 501.408 C 218.494 500.836 211.579 498.995 209.43 498.995 C 209.1 498.995 208.568 500.967 207.536 506.021 M 286.797 500.255 C 280.121 503.742 283.981 515.762 291.327 514.362 C 293.812 513.888 295.222 512.865 296.287 510.762 C 296.994 509.365 296.984 509.328 295.91 509.332 C 295.16 509.334 294.894 509.574 294.441 510.651 C 292.209 515.965 285.772 513.088 285.247 506.542 C 284.862 501.752 289.568 498.529 292.446 501.611 C 293.276 502.499 294.827 502.537 294.827 501.669 C 294.827 499.602 289.756 498.709 286.797 500.255 M 221.05 508.392 C 219.973 516.839 219.983 515.995 220.958 515.995 C 221.857 515.995 221.992 515.646 222.35 512.412 L 222.58 510.328 L 223.953 510.333 C 225.768 510.34 225.77 510.342 228.002 513.942 C 230.003 517.17 230.301 517.455 231.486 517.271 C 232.13 517.172 231.999 516.876 230.038 514.004 L 227.881 510.846 L 229.426 510.454 C 235.978 508.79 233.274 502.609 225.66 501.845 C 224.377 501.716 223.018 501.538 222.641 501.45 C 221.985 501.295 221.914 501.603 221.05 508.392 M 277.494 501.766 C 277.494 502.197 279.526 515.552 279.64 515.87 C 279.948 516.73 281.471 515.966 281.292 515.042 C 281.198 514.558 280.715 511.387 280.219 507.995 L 279.317 501.828 L 278.406 501.723 C 277.904 501.665 277.494 501.684 277.494 501.766 M 226.516 503.151 C 231.438 503.709 232.85 508.408 228.41 509.458 C 227.625 509.643 223.213 509.159 222.908 508.854 C 222.498 508.443 223.669 502.67 224.137 502.798 C 224.425 502.876 225.495 503.035 226.516 503.151 M 267.827 502.847 C 267.552 502.906 266.346 503.047 265.148 503.161 L 262.969 503.366 L 263.589 510.264 C 264.323 518.42 264.215 517.956 265.315 517.746 C 266.271 517.563 266.241 517.988 265.643 513.181 L 265.459 511.7 L 267.059 511.596 C 268.659 511.493 268.663 511.496 271.536 514.279 C 274.224 516.884 274.481 517.051 275.469 516.834 L 276.527 516.601 L 273.635 513.896 L 270.744 511.19 L 272.035 510.637 C 277.643 508.234 274.011 501.511 267.827 502.847 M 236.048 504.604 C 235.943 505.461 235.755 508.732 235.631 511.873 L 235.405 517.584 L 238.425 517.823 C 242.485 518.144 244.043 517.846 245.402 516.486 C 247.215 514.674 246.657 511.792 244.33 510.951 C 243.083 510.5 242.781 510.002 243.744 509.984 C 245.343 509.955 246.463 507.757 245.84 505.869 C 245.247 504.071 243.884 503.588 238.283 503.192 L 236.239 503.047 L 236.048 504.604 M 253.16 503.788 C 253.16 503.857 252.04 507.157 250.671 511.121 L 248.181 518.328 L 249.151 518.328 C 250.06 518.328 250.17 518.178 250.877 515.983 L 251.632 513.638 L 254.646 513.733 L 257.659 513.828 L 258.365 515.828 C 259.008 517.647 259.167 517.838 260.12 517.933 L 261.167 518.038 L 260.541 516.433 L 257.792 509.245 L 255.67 503.662 L 254.415 503.662 C 253.725 503.662 253.16 503.718 253.16 503.788 M 272.165 504.852 C 274.567 507.254 272.269 509.987 267.44 510.471 L 265.552 510.661 L 265.373 509.411 C 264.693 504.662 264.712 504.389 265.723 504.22 C 268.065 503.827 271.475 504.162 272.165 504.852 M 243.16 505.298 C 245.746 507.148 243.869 509.662 239.903 509.662 L 237.403 509.662 L 237.615 508.115 C 237.732 507.265 237.827 506.047 237.827 505.41 L 237.827 504.251 L 240.077 504.477 C 241.383 504.608 242.676 504.952 243.16 505.298 M 255.834 508.495 L 257.078 512.245 C 257.192 512.555 256.584 512.662 254.696 512.662 C 253.301 512.662 252.157 512.549 252.153 512.412 C 252.131 511.719 254.356 504.737 254.536 504.933 C 254.65 505.059 255.235 506.662 255.834 508.495 M 242.66 511.409 C 246.544 513.38 244.82 516.662 239.902 516.662 L 237.067 516.662 L 237.278 514.912 C 237.393 513.949 237.489 512.599 237.491 511.912 L 237.494 510.662 L 239.744 510.866 C 240.981 510.979 242.294 511.223 242.66 511.409" fill="#060606"/>
  <path d="M 243.594 91.688 C 211.757 93.036 181.756 101.208 159.789 114.517 C 119.066 139.188 100.522 182.945 115.157 219.828 C 116.685 223.679 116.986 224.227 139.97 264.995 L 186.912 348.328 L 214.992 398.162 L 220.161 407.328 L 229.615 424.162 L 232.808 429.828 L 228.567 429.922 L 212.044 430.256 L 199.76 430.495 L 220.71 440.07 L 251.16 454.025 L 261.327 458.554 C 261.924 458.688 321.129 431.749 321.977 430.957 C 322.164 430.783 321.48 430.657 320.31 430.65 C 317.039 430.631 290.477 429.423 290.345 429.287 C 290.207 429.145 278.522 409.078 271.832 397.495 C 204.713 281.283 176.206 229.788 172.215 217.551 C 161.262 183.967 175.708 137.046 202.536 119.067 C 234.504 97.644 286.804 102.237 309.892 128.495 C 330.963 152.459 339.048 193.407 328.126 220.839 C 322.619 234.668 298.075 279.541 261.449 342.738 L 254.16 355.488 C 254.16 355.584 267.713 355.662 284.277 355.662 L 314.393 355.662 L 321.002 343.245 L 347.49 293.495 L 360.001 269.995 L 372.169 247.162 C 387.309 218.767 387.146 219.113 389.149 211.076 C 398.097 175.162 378.568 136.177 340.368 113.698 C 315.116 98.839 277.385 90.257 243.594 91.688 M 365.327 129.662 C 366.416 130.762 367.381 131.662 367.473 131.662 C 367.565 131.662 366.749 130.762 365.66 129.662 C 364.571 128.562 363.606 127.662 363.515 127.662 C 363.424 127.662 364.238 128.562 365.327 129.662 M 244.61 130.662 C 244.61 132.22 244.668 132.857 244.738 132.078 C 244.808 131.299 244.808 130.024 244.738 129.245 C 244.668 128.466 244.61 129.103 244.61 130.662 M 244.936 155.495 C 244.938 156.778 244.998 157.262 245.07 156.571 C 245.142 155.795 245.142 155.014 245.068 154.238 C 244.994 153.646 244.935 154.212 244.936 155.495 M 258.918 159.995 C 258.918 160.82 258.983 161.157 259.062 160.745 C 259.142 160.248 259.142 159.742 259.062 159.245 C 258.983 158.832 258.918 159.17 258.918 159.995 M 107.578 190.495 C 107.581 191.228 107.65 191.489 107.729 191.074 C 107.808 190.659 107.806 190.06 107.723 189.741 C 107.64 189.422 107.574 189.762 107.578 190.495 M 257.922 193.495 C 257.925 194.412 257.99 194.747 258.066 194.24 C 258.142 193.733 258.141 192.984 258.062 192.574 C 257.983 192.164 257.92 192.578 257.922 193.495 M 107.578 196.162 C 107.581 196.895 107.65 197.156 107.729 196.741 C 107.808 196.326 107.806 195.726 107.723 195.408 C 107.64 195.09 107.574 195.428 107.578 196.162 M 170.904 196.328 C 170.904 196.97 170.973 197.232 171.057 196.912 C 171.141 196.592 171.141 196.066 171.057 195.745 C 170.973 195.424 170.904 195.687 170.904 196.328 M 257.539 205.704 C 257.514 206.187 257.755 206.785 258.077 207.038 C 258.585 207.436 258.61 207.43 258.276 206.995 C 258.064 206.72 257.822 206.12 257.738 205.662 L 257.584 204.828 L 257.539 205.704 M 245.872 234.012 C 245.847 234.479 245.714 235.005 245.577 235.181 C 245.44 235.357 245.527 235.33 245.772 235.123 C 246.017 234.916 246.15 234.39 246.068 233.954 C 245.919 233.17 245.917 233.17 245.872 234.012 M 243.306 237.078 L 242.327 238.162 L 243.41 237.183 C 244.006 236.644 244.494 236.157 244.494 236.099 C 244.494 235.842 244.219 236.069 243.306 237.078 M 256.597 248.828 C 256.599 249.928 256.661 250.338 256.735 249.739 C 256.809 249.14 256.808 248.24 256.732 247.739 C 256.656 247.238 256.595 247.728 256.597 248.828 M 264.922 278.162 C 264.925 279.078 264.99 279.414 265.066 278.907 C 265.142 278.4 265.141 277.65 265.062 277.24 C 264.983 276.83 264.92 277.245 264.922 278.162 M 246.555 288.307 C 246.51 289.639 246.298 290.345 245.753 290.974 L 245.012 291.828 L 245.939 290.968 C 246.774 290.193 246.853 289.928 246.741 288.301 L 246.617 286.495 L 246.555 288.307 M 255.626 293.463 C 255.528 293.721 255.499 294.433 255.563 295.047 C 255.665 296.024 255.699 295.967 255.839 294.578 C 256.003 292.955 255.942 292.64 255.626 293.463 M 255.267 309.995 C 255.267 311.187 255.328 311.674 255.401 311.078 C 255.474 310.482 255.475 309.507 255.401 308.912 C 255.327 308.317 255.267 308.803 255.267 309.995 M 246.95 316.328 C 246.95 318.253 247.005 319.041 247.073 318.078 C 247.14 316.912 247.14 315.744 247.073 314.578 C 247.005 313.616 246.95 314.403 246.95 316.328 M 403.494 368.125 C 403.494 368.197 404.008 368.315 404.637 368.389 C 405.266 368.463 405.707 368.404 405.617 368.259 C 405.456 367.998 403.494 367.874 403.494 368.125 M 418.525 371.745 C 418.604 371.791 419.266 372.353 419.997 372.995 L 421.327 374.162 L 420.178 372.912 C 419.546 372.224 418.884 371.662 418.706 371.662 C 418.528 371.662 418.447 371.699 418.525 371.745 M 83.367 391.193 C 81.691 393.096 81.946 393.079 83.827 391.162 C 84.637 390.337 85.155 389.676 84.98 389.693 C 84.805 389.71 84.078 390.385 83.367 391.193 M 80.306 397.412 L 79.327 398.495 L 80.41 397.516 C 81.006 396.978 81.494 396.49 81.494 396.433 C 81.494 396.175 81.219 396.402 80.306 397.412 M 415.571 423.328 C 415.571 423.97 415.64 424.233 415.723 423.912 C 415.806 423.591 415.807 423.066 415.723 422.745 C 415.639 422.424 415.571 422.687 415.571 423.328 M 133.16 446.162 C 134.156 447.17 135.046 447.995 135.138 447.995 C 135.23 447.995 134.489 447.17 133.494 446.162 C 132.499 445.154 131.608 444.328 131.516 444.328 C 131.424 444.328 132.165 445.153 133.16 446.162 M 122.16 451.162 C 122.782 451.803 123.366 452.328 123.458 452.328 C 123.55 452.328 123.116 451.803 122.494 451.162 C 121.872 450.521 121.288 449.995 121.196 449.995 C 121.104 449.995 121.538 450.52 122.16 451.162 M 125.802 452.729 C 127.104 454.121 127.218 454.364 126.816 454.896 C 126.383 455.469 126.391 455.47 127.004 454.908 C 127.629 454.334 127.606 454.284 125.99 452.741 L 124.337 451.162 L 125.802 452.729 M 112.142 454.912 L 110.994 456.162 L 112.244 455.013 C 112.931 454.381 113.494 453.819 113.494 453.763 C 113.494 453.508 113.212 453.748 112.142 454.912 M 113.645 456.412 L 112.327 457.828 L 113.744 456.511 C 115.061 455.285 115.314 454.995 115.061 454.995 C 115.007 454.995 114.369 455.632 113.645 456.412 M 111.16 459.162 C 111.782 459.803 112.366 460.328 112.458 460.328 C 112.55 460.328 112.116 459.803 111.494 459.162 C 110.872 458.521 110.288 457.995 110.196 457.995 C 110.104 457.995 110.538 458.52 111.16 459.162 M 114.16 460.162 C 114.782 460.803 115.366 461.328 115.458 461.328 C 115.55 461.328 115.116 460.803 114.494 460.162 C 113.872 459.521 113.288 458.995 113.196 458.995 C 113.104 458.995 113.538 459.52 114.16 460.162 M 382.978 464.745 L 381.66 466.162 L 383.077 464.844 C 384.394 463.619 384.647 463.328 384.395 463.328 C 384.34 463.328 383.703 463.966 382.978 464.745 M 314.494 496.495 C 314.494 497.748 314.564 498.703 314.65 498.617 C 314.898 498.368 314.953 494.677 314.712 494.435 C 314.592 494.315 314.494 495.242 314.494 496.495 M 289.577 499.225 C 289.898 499.309 290.423 499.309 290.744 499.225 C 291.065 499.141 290.802 499.072 290.16 499.072 C 289.518 499.072 289.256 499.141 289.577 499.225 M 268.414 504.231 C 268.829 504.31 269.429 504.307 269.748 504.224 C 270.067 504.141 269.727 504.075 268.994 504.079 C 268.261 504.083 268 504.151 268.414 504.231 M 248.577 518.558 C 248.898 518.642 249.423 518.642 249.744 518.558 C 250.065 518.474 249.802 518.406 249.16 518.406 C 248.518 518.406 248.256 518.474 248.577 518.558" fill="#fbfbfb"/>
  <path d="M 244.414 89.231 C 244.829 89.31 245.429 89.307 245.748 89.224 C 246.067 89.141 245.727 89.075 244.994 89.079 C 244.261 89.083 244 89.151 244.414 89.231 M 255.744 89.23 C 256.241 89.31 256.747 89.31 257.244 89.23 C 257.656 89.151 257.319 89.086 256.494 89.086 C 255.669 89.086 255.331 89.151 255.744 89.23 M 246.244 91.567 C 246.853 91.643 247.469 91.643 248.077 91.567 C 248.581 91.491 248.169 91.428 247.16 91.428 C 246.151 91.428 245.739 91.491 246.244 91.567 M 253.577 91.567 C 254.186 91.643 254.802 91.643 255.41 91.567 C 255.915 91.491 255.502 91.428 254.494 91.428 C 253.486 91.428 253.073 91.491 253.577 91.567 M 250.244 105.234 C 250.853 105.31 251.469 105.31 252.077 105.234 C 252.581 105.157 252.169 105.095 251.16 105.095 C 250.151 105.095 249.739 105.157 250.244 105.234 M 256.244 107.891 C 256.628 107.975 257.026 107.975 257.41 107.891 C 257.731 107.808 257.469 107.739 256.827 107.739 C 256.185 107.739 255.923 107.808 256.244 107.891 M 135.973 129.745 L 134.994 130.828 L 136.077 129.849 C 136.673 129.311 137.16 128.823 137.16 128.766 C 137.16 128.508 136.885 128.735 135.973 129.745 M 249.994 129.177 L 247.244 129.637 C 247.099 129.68 247.244 144.874 247.456 151.967 L 247.66 158.772 L 251.994 160.546 L 256.368 162.324 C 256.39 162.326 256.518 159.891 256.652 156.912 C 256.982 149.601 257.689 147.951 263.465 141.015 C 265.414 138.674 265.773 138.058 265.604 137.348 C 265.313 136.131 265.254 136.118 264.24 137.054 C 257.389 143.381 252.935 141.298 254.138 132.328 C 254.704 128.109 255.028 128.355 249.994 129.177 M 231.077 130.897 C 231.574 130.976 232.08 130.976 232.577 130.897 C 232.989 130.817 232.652 130.752 231.827 130.752 C 231.002 130.752 230.665 130.817 231.077 130.897 M 256.256 135.162 C 256.258 136.078 256.323 136.414 256.4 135.907 C 256.477 135.4 256.474 134.65 256.395 134.24 C 256.316 133.83 256.253 134.245 256.256 135.162 M 232.416 142.903 C 233.015 142.977 233.915 142.976 234.416 142.9 C 234.917 142.824 234.427 142.763 233.327 142.765 C 232.227 142.767 231.817 142.829 232.416 142.903 M 244.952 149.828 C 244.952 151.845 245.007 152.627 245.074 151.566 C 245.141 150.505 245.139 148.855 245.072 147.899 C 245.005 146.943 244.951 147.812 244.952 149.828 M 220.827 154.433 C 220.827 154.49 221.314 154.978 221.91 155.516 L 222.994 156.495 L 222.015 155.412 C 221.102 154.402 220.827 154.175 220.827 154.433 M 258.911 157.495 C 258.915 158.228 258.983 158.489 259.063 158.074 C 259.143 157.659 259.139 157.06 259.056 156.741 C 258.973 156.422 258.907 156.762 258.911 157.495 M 247.766 183.078 L 247.871 195.828 L 248.802 197.849 C 249.705 199.807 252.014 202.466 254.105 203.955 L 255.096 204.661 L 255.291 201.245 C 256.104 187.026 255.484 175.539 253.81 173.807 C 252.946 172.913 248.447 170.329 247.753 170.328 C 247.702 170.328 247.708 176.066 247.766 183.078 M 239.973 177.745 L 238.994 178.828 L 240.077 177.849 C 240.673 177.311 241.16 176.823 241.16 176.766 C 241.16 176.508 240.885 176.735 239.973 177.745 M 257.927 189.995 C 257.927 191.003 257.989 191.416 258.066 190.912 C 258.143 190.408 258.142 189.582 258.066 189.078 C 257.99 188.574 257.927 188.987 257.927 189.995 M 330.623 192.495 C 330.624 194.878 330.677 195.81 330.741 194.564 C 330.805 193.318 330.805 191.369 330.74 190.231 C 330.675 189.093 330.623 190.112 330.623 192.495 M 391.238 189.662 C 391.238 190.303 391.306 190.566 391.39 190.245 C 391.474 189.924 391.474 189.399 391.39 189.078 C 391.306 188.757 391.238 189.02 391.238 189.662 M 107.584 193.328 C 107.584 194.153 107.649 194.491 107.729 194.078 C 107.808 193.581 107.808 193.075 107.729 192.578 C 107.649 192.166 107.584 192.503 107.584 193.328 M 235.571 194.995 C 235.571 195.637 235.64 195.899 235.723 195.578 C 235.807 195.194 235.807 194.796 235.723 194.412 C 235.64 194.091 235.571 194.353 235.571 194.995 M 332.904 196.995 C 332.904 197.637 332.973 197.899 333.057 197.578 C 333.141 197.194 333.141 196.796 333.057 196.412 C 332.973 196.091 332.904 196.353 332.904 196.995 M 391.238 196.995 C 391.238 197.637 391.306 197.899 391.39 197.578 C 391.474 197.194 391.474 196.796 391.39 196.412 C 391.306 196.091 391.238 196.353 391.238 196.995 M 257.594 202.995 C 257.594 204.003 257.656 204.416 257.732 203.912 C 257.809 203.303 257.809 202.687 257.732 202.078 C 257.656 201.574 257.594 201.987 257.594 202.995 M 241.66 207.328 C 242.749 208.428 243.714 209.328 243.806 209.328 C 243.898 209.328 243.082 208.428 241.994 207.328 C 240.906 206.228 239.94 205.328 239.848 205.328 C 239.756 205.328 240.572 206.228 241.66 207.328 M 261.16 209.766 C 261.16 209.823 261.648 210.311 262.244 210.849 L 263.327 211.828 L 262.348 210.745 C 261.435 209.735 261.16 209.508 261.16 209.766 M 248.35 230.245 C 248.672 252.072 248.691 252.204 252.05 256.478 C 254.155 259.158 254.052 259.839 254.437 240.662 L 254.768 224.162 L 253.934 222.62 C 253.156 221.183 248.861 216.328 248.366 216.328 C 248.244 216.328 248.237 222.591 248.35 230.245 M 245.953 229.662 C 245.953 231.77 246.007 232.632 246.073 231.578 C 246.139 230.524 246.139 228.799 246.073 227.745 C 246.007 226.691 245.953 227.553 245.953 229.662 M 257.238 229.328 C 257.238 229.97 257.306 230.232 257.39 229.912 C 257.474 229.592 257.474 229.066 257.39 228.745 C 257.306 228.424 257.238 228.687 257.238 229.328 M 256.918 237.328 C 256.918 238.153 256.983 238.491 257.062 238.078 C 257.142 237.581 257.142 237.075 257.062 236.578 C 256.983 236.166 256.918 236.503 256.918 237.328 M 246.238 246.995 C 246.238 247.637 246.306 247.899 246.39 247.578 C 246.474 247.194 246.474 246.796 246.39 246.412 C 246.306 246.091 246.238 246.353 246.238 246.995 M 240.918 249.995 C 240.918 250.82 240.983 251.157 241.062 250.745 C 241.142 250.248 241.142 249.742 241.062 249.245 C 240.983 248.833 240.918 249.17 240.918 249.995 M 256.264 259.495 C 256.265 260.595 256.328 261.005 256.402 260.406 C 256.476 259.807 256.475 258.907 256.399 258.406 C 256.323 257.905 256.262 258.395 256.264 259.495 M 250.827 267.162 C 252.008 268.353 253.049 269.328 253.141 269.328 C 253.233 269.328 252.341 268.353 251.16 267.162 C 249.979 265.971 248.938 264.995 248.846 264.995 C 248.754 264.995 249.646 265.97 250.827 267.162 M 249.041 284.162 C 249.509 322.498 249.599 325.525 250.295 326.293 C 252.364 328.579 252.491 327.359 253.082 299.492 C 253.678 271.42 253.855 273.878 251.019 270.828 L 248.849 268.495 L 249.041 284.162 M 246.618 282.828 C 246.619 284.845 246.674 285.627 246.74 284.566 C 246.806 283.505 246.806 281.855 246.739 280.899 C 246.672 279.943 246.618 280.812 246.618 282.828 M 255.911 282.495 C 255.915 283.228 255.983 283.489 256.063 283.074 C 256.143 282.659 256.139 282.06 256.056 281.741 C 255.973 281.422 255.907 281.762 255.911 282.495 M 258.639 288.412 L 257.66 289.495 L 258.744 288.516 C 259.339 287.978 259.827 287.49 259.827 287.433 C 259.827 287.175 259.552 287.402 258.639 288.412 M 255.571 289.662 C 255.571 290.303 255.64 290.566 255.723 290.245 C 255.806 289.924 255.807 289.399 255.723 289.078 C 255.639 288.757 255.571 289.02 255.571 289.662 M 243.809 296.245 L 242.66 297.495 L 243.91 296.346 C 245.074 295.277 245.314 294.995 245.059 294.995 C 245.003 294.995 244.441 295.558 243.809 296.245 M 237.973 298.412 L 236.994 299.495 L 238.077 298.516 C 238.673 297.978 239.16 297.49 239.16 297.433 C 239.16 297.175 238.885 297.402 237.973 298.412 M 237.494 302.162 C 236.498 303.17 235.865 303.995 236.088 303.995 C 236.311 303.995 236.494 303.836 236.494 303.642 C 236.494 303.448 236.681 303.397 236.91 303.529 C 237.139 303.661 237.211 303.641 237.069 303.485 C 236.927 303.329 237.447 302.556 238.222 301.765 C 238.997 300.974 239.559 300.328 239.468 300.328 C 239.377 300.328 238.489 301.153 237.494 302.162 M 255.272 305.662 C 255.272 307.037 255.331 307.599 255.403 306.912 C 255.475 306.225 255.475 305.099 255.403 304.412 C 255.331 303.725 255.272 304.287 255.272 305.662 M 246.952 309.495 C 246.952 311.512 247.007 312.294 247.074 311.233 C 247.141 310.172 247.139 308.522 247.072 307.566 C 247.005 306.61 246.951 307.478 246.952 309.495 M 254.93 321.495 C 254.932 322.595 254.994 323.005 255.069 322.406 C 255.144 321.807 255.141 320.907 255.065 320.406 C 254.989 319.905 254.928 320.395 254.93 321.495 M 422.494 375.433 C 422.494 375.49 422.981 375.978 423.577 376.516 L 424.66 377.495 L 423.681 376.412 C 422.769 375.402 422.494 375.175 422.494 375.433 M 293.081 429.564 C 293.496 429.644 294.096 429.641 294.414 429.557 C 294.732 429.473 294.394 429.409 293.66 429.412 C 292.926 429.415 292.666 429.484 293.081 429.564 M 300.744 429.897 C 301.241 429.976 301.747 429.976 302.244 429.897 C 302.656 429.817 302.319 429.752 301.494 429.752 C 300.669 429.752 300.331 429.817 300.744 429.897 M 212.244 430.24 C 213.298 430.309 214.356 430.309 215.41 430.24 C 216.281 430.171 215.569 430.115 213.827 430.115 C 212.085 430.115 211.373 430.171 212.244 430.24 M 308.414 430.231 C 308.829 430.31 309.429 430.307 309.748 430.224 C 310.067 430.141 309.727 430.075 308.994 430.079 C 308.261 430.083 308 430.151 308.414 430.231 M 316.414 430.564 C 316.829 430.644 317.429 430.641 317.748 430.557 C 318.067 430.473 317.727 430.409 316.994 430.412 C 316.261 430.415 316 430.484 316.414 430.564 M 120.494 447.433 C 120.494 447.49 120.981 447.978 121.577 448.516 L 122.66 449.495 L 121.681 448.412 C 120.769 447.402 120.494 447.175 120.494 447.433 M 116.476 450.912 L 115.327 452.162 L 116.577 451.013 C 117.74 449.944 117.98 449.662 117.726 449.662 C 117.67 449.662 117.108 450.224 116.476 450.912 M 117.973 452.078 L 116.994 453.162 L 118.077 452.183 C 118.673 451.644 119.16 451.157 119.16 451.099 C 119.16 450.842 118.885 451.069 117.973 452.078 M 118.16 456.162 C 118.782 456.803 119.366 457.328 119.458 457.328 C 119.55 457.328 119.116 456.803 118.494 456.162 C 117.872 455.521 117.288 454.995 117.196 454.995 C 117.104 454.995 117.538 455.52 118.16 456.162 M 114.494 462.433 C 114.494 462.49 114.981 462.978 115.577 463.516 L 116.66 464.495 L 115.681 463.412 C 114.769 462.402 114.494 462.175 114.494 462.433 M 385.811 462.755 C 386.198 463.268 386.152 463.47 385.469 464.255 L 384.679 465.162 L 385.66 464.247 C 386.621 463.351 386.628 463.321 386.002 462.747 C 385.392 462.188 385.384 462.188 385.811 462.755 M 151.468 484.245 L 150.66 485.162 L 151.66 484.328 C 152.21 483.87 152.723 483.457 152.799 483.412 C 152.875 483.367 152.789 483.328 152.607 483.328 C 152.425 483.328 151.913 483.741 151.468 484.245 M 244.244 492.9 C 244.748 492.977 245.573 492.977 246.077 492.9 C 246.581 492.823 246.169 492.762 245.16 492.762 C 244.151 492.762 243.739 492.824 244.244 492.9 M 252.91 492.9 C 253.519 492.977 254.135 492.977 254.744 492.9 C 255.248 492.824 254.835 492.762 253.827 492.762 C 252.819 492.762 252.406 492.824 252.91 492.9 M 253.91 503.558 C 254.231 503.642 254.756 503.642 255.077 503.558 C 255.398 503.474 255.135 503.406 254.494 503.406 C 253.853 503.406 253.589 503.474 253.91 503.558 M 237.494 508.662 C 237.494 509.212 237.618 509.662 237.769 509.662 C 237.92 509.662 237.979 509.212 237.898 508.662 C 237.817 508.112 237.693 507.662 237.623 507.662 C 237.553 507.662 237.494 508.112 237.494 508.662 M 255.16 512.328 L 253.327 512.553 L 255.244 512.607 C 256.335 512.638 257.16 512.518 257.16 512.328 C 257.16 512.145 257.123 512.019 257.077 512.049 C 257.031 512.079 256.169 512.205 255.16 512.328 M 273.16 513.433 C 273.16 513.49 273.648 513.978 274.244 514.516 L 275.327 515.495 L 274.348 514.412 C 273.435 513.402 273.16 513.175 273.16 513.433 M 252.577 513.904 C 253.265 513.976 254.39 513.976 255.077 513.904 C 255.764 513.832 255.202 513.774 253.827 513.774 C 252.452 513.774 251.89 513.833 252.577 513.904 M 237.244 515.495 C 237.248 516.228 237.316 516.489 237.396 516.074 C 237.476 515.659 237.473 515.06 237.389 514.741 C 237.305 514.422 237.241 514.762 237.244 515.495 M 236.41 517.897 C 236.907 517.976 237.413 517.976 237.91 517.897 C 238.323 517.817 237.985 517.752 237.16 517.752 C 236.335 517.752 235.998 517.817 236.41 517.897 M 259.12 518.088 C 259.281 518.249 259.843 518.327 260.37 518.261 C 261.251 518.151 261.228 518.128 260.077 517.969 C 259.361 517.869 258.952 517.92 259.12 518.088" fill="#b05c1c"/>
  <path d="M 307.48 126.078 L 309.063 127.662 C 309.313 127.662 309.049 127.362 307.577 125.981 L 305.994 124.495 L 307.48 126.078 M 227.827 133.665 C 219.949 135.02 216.496 139.273 217.5 146.384 C 218.696 154.849 224.984 159.74 242.494 165.827 C 254.97 170.164 257.498 172.132 257.541 177.547 C 257.566 180.68 257.698 181.087 258.546 180.634 C 261.216 179.205 263.49 175.686 263.483 172.995 C 263.469 167.928 259.693 165.686 238.494 158.157 C 224.396 153.15 221.841 151.438 221.008 146.434 C 220.283 142.079 223.307 140.192 228.411 141.816 C 230.551 142.497 231.695 142.669 233.568 142.593 L 235.974 142.495 L 233.878 141.38 C 230.739 139.711 230.666 138.338 233.696 137.956 C 237.466 137.479 240.532 136.607 240.428 136.041 C 240.078 134.141 232.912 132.79 227.827 133.665 M 237.057 135.207 C 237.28 135.787 236.846 136.711 236.259 136.907 C 235.567 137.137 234.799 136.004 235.173 135.305 C 235.593 134.52 236.77 134.459 237.057 135.207 M 242.056 179.412 C 237.784 183.702 236.03 188.077 236.008 194.495 C 235.985 201.083 238.033 204.296 247.175 212.003 C 257.55 220.75 257.845 221.528 257.013 237.942 L 256.787 242.389 L 257.876 241.776 C 262.718 239.046 266.48 232.356 266.49 226.457 C 266.502 219.089 264.037 215.095 254.978 207.81 C 245.457 200.153 245.113 199.39 245.149 185.977 C 245.177 175.658 245.375 176.077 242.056 179.412 M 244.596 239.584 C 238.26 247.468 239.937 255.482 250.16 266.184 C 252.452 268.583 254.76 271.343 255.29 272.317 C 256.374 274.311 256.363 274.131 255.979 284.245 C 255.709 291.335 255.645 291.239 258.637 288.245 C 265.385 281.492 263.633 272.922 253.178 261.54 C 246.917 254.725 246.249 252.918 246.124 242.453 C 246.074 238.267 245.907 237.953 244.596 239.584 M 241.145 299.034 C 238.495 301.614 236.702 303.514 237.16 303.255 L 242.244 300.349 L 246.494 297.913 L 246.489 296.538 C 246.479 293.969 246.227 294.087 241.145 299.034 M 115.451 454.578 C 115.037 455.107 115.048 455.119 115.577 454.704 C 116.071 454.316 116.249 454.316 116.744 454.704 C 117.272 455.119 117.284 455.107 116.87 454.578 C 116.618 454.257 116.299 453.995 116.16 453.995 C 116.021 453.995 115.703 454.257 115.451 454.578 M 112.494 460.433 C 112.494 460.49 112.981 460.978 113.577 461.516 L 114.66 462.495 L 113.681 461.412 C 112.769 460.402 112.494 460.175 112.494 460.433 M 271.827 514.828 C 272.449 515.47 273.033 515.995 273.124 515.995 C 273.215 515.995 272.782 515.47 272.16 514.828 C 271.538 514.186 270.955 513.662 270.863 513.662 C 270.771 513.662 271.205 514.187 271.827 514.828" fill="#f8c93e"/>
</svg>