<svg width="572" height="571" viewBox="0 0 572 571" fill="none" xmlns="http://www.w3.org/2000/svg">
<path d="M571.063 0H0.38208V570.681H571.063V0Z" fill="#E1F3FF"/>
<path d="M316.16 404.576H194.413V500.507H316.16V404.576Z" fill="#275F7C"/>
<path d="M165.5 275.83H54.7882C45.3328 275.83 37.6677 283.495 37.6677 292.951V475.189C37.6677 484.644 45.3328 492.309 54.7882 492.309H165.5C174.956 492.309 182.621 484.644 182.621 475.189V292.951C182.621 283.495 174.956 275.83 165.5 275.83Z" fill="#275F7C"/>
<path d="M212.01 276.495C225.705 295.614 234.758 317.661 238.45 340.888L193.937 336.796L212.01 276.495Z" fill="#FF9E9F"/>
<path d="M344.503 405.945C366.628 428.549 384.88 454.641 398.526 483.176L369.804 483.558L319.393 429.152L344.503 405.945Z" fill="#FF9E9F"/>
<path d="M199.741 330.233C218.319 331.44 236.666 335.021 254.335 340.888C303.565 357.272 335.338 387.592 351.351 405.563L325.479 432.767L187.374 345.262L199.741 330.233Z" fill="#F16D55"/>
<path d="M308.741 413.364C335.875 430.5 358.613 453.76 375.128 481.275L315.398 480.705C312.933 477.603 310.156 474.407 307.029 471.191C299.373 463.338 290.743 456.498 281.348 450.838L308.741 413.364Z" fill="#FF9E9F"/>
<path d="M308.741 413.364C335.875 430.5 358.613 453.76 375.129 481.275" stroke="#363946" stroke-width="1.4267" stroke-linecap="round" stroke-linejoin="round"/>
<path d="M178.149 342.979C197.568 343.206 216.864 346.086 235.503 351.54C279.011 364.3 308.533 388.2 324.244 403.186L282.013 462.252C265.158 447.856 246.077 436.292 225.516 428.011C190.094 413.769 158.489 412.659 139.914 413.458L124.791 370.943L178.149 342.979Z" fill="#F16D55"/>
<path d="M178.149 342.979C197.568 343.206 216.864 346.086 235.503 351.54C279.012 364.3 308.533 388.2 324.244 403.186L282.013 462.252" stroke="#363946" stroke-width="1.4267" stroke-linecap="round" stroke-linejoin="round"/>
<path d="M88.8375 256.998C86.5887 257.149 84.3499 256.581 82.4452 255.376C80.5405 254.171 79.0686 252.391 78.2425 250.294C77.4164 248.197 77.2789 245.891 77.8499 243.711C78.4208 241.53 79.6707 239.588 81.4187 238.165C80.1917 237.215 71.3661 230.133 70.9552 217.809C70.5757 206.367 77.7378 199.031 78.9447 197.835C77.1444 193.418 76.5869 188.593 77.3327 183.882C78.0785 179.172 80.099 174.755 83.1756 171.11C86.2521 167.465 90.2672 164.732 94.786 163.206C99.3049 161.68 104.155 161.42 108.811 162.453C109.208 161.357 113.947 148.894 127.453 145.332C141.48 141.637 152.032 150.951 152.754 151.61C160.347 146.676 170.025 146.374 177.673 150.851C186.104 155.785 190.627 165.689 188.898 175.579C189.469 175.747 201.227 179.362 204.306 191.178C206.949 201.325 201.042 209.254 200.311 210.202C201.393 211.152 210.438 219.364 209.442 231.505C208.538 242.5 199.786 252.101 187.757 254.715L88.8375 256.998Z" fill="#363946"/>
<path d="M59.479 341.142L67.089 338.605L76.3455 354.33C93.1663 356.099 121.472 356.821 153.895 346.212C172.057 340.257 189.189 331.531 204.686 320.343C205.131 306.266 205.575 292.19 206.018 278.113L214.008 272.594C211.369 268.373 208.24 264.479 204.686 260.992C176.269 233.18 130.072 242.051 123.079 243.395C106.278 246.623 82.7571 251.14 67.343 272.594C46.5588 301.522 58.0209 336.864 59.479 341.142Z" fill="#F5EE9E"/>
<path d="M182.649 263.54C177.483 272.812 172.313 282.083 167.141 291.353C166.817 291.935 166.703 292.611 166.816 293.267C167.94 299.762 169.063 306.257 170.185 312.753C170.256 313.167 170.416 313.56 170.653 313.906C170.89 314.252 171.199 314.542 171.559 314.757C171.919 314.973 172.321 315.107 172.738 315.152C173.155 315.198 173.577 315.152 173.975 315.019L200.309 306.205C201.04 305.958 201.645 305.432 201.989 304.741L216.385 275.782C216.57 275.409 216.673 275.001 216.687 274.585C216.7 274.169 216.625 273.755 216.465 273.37C216.305 272.986 216.065 272.64 215.76 272.357C215.455 272.073 215.093 271.859 214.699 271.727L186.113 262.197C185.47 261.982 184.771 261.999 184.139 262.245C183.507 262.49 182.98 262.948 182.649 263.54Z" fill="#74C0FC"/>
<path d="M184.806 264.302L169.304 292.115C168.979 292.695 168.864 293.371 168.978 294.026C170.099 300.523 171.221 307.019 172.345 313.515C172.417 313.928 172.577 314.321 172.815 314.667C173.052 315.012 173.362 315.303 173.722 315.517C174.082 315.732 174.484 315.867 174.901 315.912C175.318 315.957 175.74 315.911 176.138 315.778L202.469 306.967C203.202 306.721 203.807 306.194 204.152 305.503L218.548 276.544C218.731 276.171 218.832 275.763 218.844 275.348C218.857 274.933 218.78 274.521 218.62 274.138C218.46 273.755 218.219 273.41 217.915 273.128C217.611 272.846 217.25 272.632 216.856 272.5L188.267 262.97C187.626 262.755 186.929 262.77 186.297 263.013C185.665 263.257 185.138 263.712 184.806 264.302Z" fill="#275F7C"/>
<path d="M187.674 281.212L182.823 279.631C182.677 279.583 182.544 279.504 182.433 279.399C182.322 279.293 182.236 279.164 182.181 279.021C182.127 278.878 182.105 278.724 182.117 278.572C182.129 278.419 182.175 278.271 182.252 278.138L187.337 269.333C187.454 269.129 187.639 268.972 187.858 268.887C188.078 268.803 188.32 268.797 188.544 268.871L193.395 270.451C193.54 270.499 193.674 270.578 193.785 270.684C193.896 270.789 193.982 270.918 194.036 271.061C194.091 271.204 194.113 271.358 194.101 271.511C194.089 271.663 194.042 271.811 193.965 271.944L188.884 280.749C188.765 280.953 188.581 281.11 188.36 281.194C188.14 281.279 187.898 281.285 187.674 281.212Z" fill="#74C0FC"/>
<path d="M188.033 279.043L184.626 277.984C184.523 277.948 184.429 277.888 184.351 277.81C184.273 277.732 184.214 277.638 184.178 277.534C184.142 277.43 184.13 277.32 184.142 277.21C184.154 277.101 184.191 276.996 184.25 276.903L188.031 270.357C188.112 270.21 188.241 270.094 188.396 270.027C188.551 269.961 188.724 269.949 188.887 269.992L192.294 271.054C192.397 271.09 192.491 271.15 192.568 271.227C192.645 271.305 192.704 271.399 192.74 271.503C192.776 271.606 192.788 271.717 192.775 271.826C192.763 271.935 192.726 272.039 192.667 272.132L188.887 278.681C188.805 278.827 188.676 278.942 188.522 279.008C188.368 279.074 188.196 279.086 188.033 279.043Z" fill="#275F7C"/>
<path d="M174.631 303.888C173.469 303.548 172.69 302.569 171.586 300.178C169.258 295.136 169.874 293.33 168.068 290C167.546 289.044 165.246 284.81 162.932 285.055C159.793 285.386 158.48 293.712 158.366 294.471C157.861 297.81 157.51 304.764 162.455 313.683C159.485 318.831 155.544 323.354 150.85 327C146.239 330.567 137.876 337.036 126.882 335.752C118.242 334.742 112.384 329.454 109.898 326.869L63.0198 340.026C64.6405 346.269 68.2872 356.519 77.0443 365.615C96.145 385.464 123.746 383.421 130.118 382.927C172.242 379.668 194.947 339.301 197.076 335.369C200.607 333.884 203.907 331.898 206.874 329.474C209.408 327.397 216.211 321.679 218.667 312.257C219.649 308.49 220.776 300.914 217.749 299.291C216.57 298.66 215.044 299.077 213.722 299.702C213.939 299.054 216.556 290.962 212.421 286.861C211.973 286.419 210.838 285.323 209.157 285.149C206.589 284.887 203.858 286.861 202.212 290.191C202.032 285.506 199.975 281.985 197.361 281.44C196.527 281.284 195.666 281.384 194.89 281.725C192.065 283.044 191.751 287.458 191.275 289.621C190.504 293.159 187.745 297.927 178.625 302.84C177.998 303.294 176.317 304.384 174.631 303.888Z" fill="#FF9E9F"/>
<path d="M198.694 281.297C199.966 282.501 200.97 283.96 201.641 285.577C204.15 291.706 200.603 297.699 200.072 298.56" stroke="#363946" stroke-width="1.4267" stroke-linecap="round" stroke-linejoin="round"/>
<path d="M213.066 286.984C214.337 289.225 215.037 291.745 215.104 294.32C215.269 303.508 206.7 309.158 205.944 309.643" stroke="#363946" stroke-width="1.4267" stroke-linecap="round" stroke-linejoin="round"/>
<path d="M214.479 299.379C215.549 298.877 216.867 298.495 217.903 299.037C220.865 300.583 219.923 308.761 218.08 314.203C215.204 322.697 209.043 327.742 206.275 329.951C203.435 332.218 200.311 334.104 196.982 335.56" stroke="#363946" stroke-width="1.4267" stroke-linecap="round" stroke-linejoin="round"/>
<path d="M57.9265 341.458L112.141 326.238C111.364 314.841 109.828 303.508 107.544 292.314C106.292 286.194 104.876 280.396 103.358 274.943" stroke="#363946" stroke-width="1.4267" stroke-linecap="round" stroke-linejoin="round"/>
<path d="M37.6677 378.362H199.487C202.43 378.362 205.253 379.531 207.334 381.612C209.415 383.693 210.584 386.515 210.584 389.458V493.417C210.584 496.351 209.418 499.166 207.343 501.241C205.268 503.316 202.453 504.482 199.519 504.482H37.6677V378.362Z" fill="#74C0FC"/>
<path d="M174.6 378.362H199.55C202.476 378.362 205.283 379.524 207.352 381.593C209.421 383.663 210.584 386.469 210.584 389.396V493.451C210.583 496.377 209.42 499.183 207.351 501.251C205.282 503.32 202.476 504.482 199.55 504.482H173.424C170.414 504.482 167.527 503.286 165.398 501.157C163.269 499.029 162.073 496.142 162.073 493.131V390.885C162.073 389.24 162.397 387.612 163.027 386.092C163.656 384.572 164.579 383.192 165.742 382.029C166.906 380.866 168.286 379.943 169.806 379.314C171.326 378.685 172.955 378.361 174.6 378.362Z" fill="#275F7C"/>
<path d="M162.55 378.362H199.55C202.476 378.362 205.282 379.525 207.351 381.594C209.42 383.663 210.583 386.469 210.584 389.396V493.448C210.584 499.526 206.909 503.626 199.55 503.626" stroke="#363946" stroke-width="1.4267" stroke-linecap="round" stroke-linejoin="round"/>
<path d="M125.735 223.67L110.523 248.626C114.408 253.521 119.5 257.32 125.299 259.65C131.097 261.98 137.403 262.76 143.594 261.914L154.466 241.207C158.163 239.93 161.631 238.068 164.738 235.691C176.908 226.341 184.059 208.27 178.529 194.982C177.765 193.153 176.774 191.428 175.581 189.846C170.165 194.412 163.641 197.471 156.666 198.712C149.691 199.954 142.513 199.336 135.853 196.919C134.766 195.293 132.823 192.999 129.901 192.297C123.438 190.742 115.711 197.812 113.948 205.445C112.843 210.228 113.628 217.178 118.639 221.045C120.702 222.584 123.166 223.495 125.735 223.67Z" fill="#FF9E9F"/>
<path d="M155.93 222.851L164.664 223.065C163.796 218.738 164.241 214.251 165.942 210.179C166.128 209.76 167.144 207.611 169.455 206.875C171.952 206.096 174.936 207.308 176.588 209.965" stroke="#363946" stroke-width="1.4267" stroke-linecap="round" stroke-linejoin="round"/>
<path d="M160.19 205.708C159.511 204.432 158.073 202.098 155.624 200.489C154.448 199.699 153.114 199.175 151.714 198.954C150.314 198.733 148.883 198.821 147.521 199.211" stroke="#363946" stroke-width="1.4267" stroke-linecap="round" stroke-linejoin="round"/>
<path d="M143.469 225.73C144.464 228.025 146.185 229.93 148.368 231.151C152.982 233.674 157.63 231.845 158.272 231.579" stroke="#363946" stroke-width="1.4267" stroke-linecap="round" stroke-linejoin="round"/>
<path d="M135.254 234.042C136.681 235.754 139.785 238.93 144.765 240.382C150.574 242.08 155.453 240.399 158.081 239.495C161.754 238.221 165.107 236.166 167.909 233.471" stroke="#363946" stroke-width="1.4267" stroke-linecap="round" stroke-linejoin="round"/>
<path d="M125.424 200.055C126.521 203.435 127.621 206.818 128.722 210.202L119.717 211.785" stroke="#363946" stroke-width="1.4267" stroke-linecap="round" stroke-linejoin="round"/>
<path d="M524.47 479.195C524.468 478.787 524.304 478.397 524.015 478.109C523.726 477.822 523.334 477.66 522.926 477.66H287.435C287.027 477.66 286.636 477.822 286.347 478.109C286.058 478.397 285.895 478.788 285.894 479.195C285.883 481.018 285.872 482.842 285.863 484.668C285.861 484.871 285.901 485.073 285.978 485.261C286.055 485.45 286.168 485.621 286.312 485.765C286.455 485.909 286.626 486.024 286.814 486.102C287.001 486.18 287.203 486.22 287.406 486.22H298.646C299.612 498.435 303.897 510.154 311.038 520.111C318.179 530.068 327.904 537.885 339.164 542.718H471.194C482.455 537.886 492.181 530.069 499.322 520.112C506.463 510.155 510.747 498.435 511.712 486.22H522.952C523.155 486.22 523.357 486.18 523.545 486.102C523.733 486.024 523.903 485.909 524.047 485.765C524.19 485.621 524.304 485.45 524.381 485.261C524.458 485.073 524.497 484.871 524.496 484.668C524.49 482.849 524.481 481.025 524.47 479.195Z" fill="#E1F3FF"/>
<path d="M524.47 479.195C524.468 478.787 524.304 478.397 524.015 478.109C523.726 477.822 523.334 477.66 522.926 477.66H287.435C287.027 477.66 286.636 477.822 286.347 478.109C286.058 478.397 285.895 478.788 285.894 479.195C285.883 481.018 285.872 482.842 285.863 484.668C285.861 484.871 285.901 485.073 285.978 485.261C286.055 485.45 286.168 485.621 286.312 485.765C286.455 485.909 286.626 486.024 286.814 486.102C287.001 486.18 287.203 486.22 287.406 486.22H298.646C299.612 498.435 303.897 510.154 311.038 520.111C318.179 530.068 327.904 537.885 339.164 542.718H471.194C482.455 537.886 492.181 530.069 499.322 520.112C506.463 510.155 510.747 498.435 511.712 486.22H522.952C523.155 486.22 523.357 486.18 523.545 486.102C523.733 486.024 523.903 485.909 524.047 485.765C524.19 485.621 524.304 485.45 524.381 485.261C524.458 485.073 524.497 484.871 524.496 484.668C524.49 482.849 524.481 481.025 524.47 479.195Z" stroke="#363946" stroke-width="1.4267" stroke-linecap="round" stroke-linejoin="round"/>
<path d="M417.755 497.779C416.265 497.78 414.805 498.207 413.55 499.01C412.294 499.814 411.295 500.96 410.67 502.313C410.046 500.96 409.047 499.814 407.791 499.01C406.536 498.207 405.076 497.78 403.585 497.779C399.274 497.779 393.37 502.059 400.161 512.594C404.807 519.796 409.643 522.775 411.081 524.17C413.05 522.042 415.827 519.357 420.281 513.136C427.874 502.533 422.067 497.779 417.755 497.779Z" fill="#E1F3FF" stroke="#363946" stroke-width="1.4267" stroke-linecap="round" stroke-linejoin="round"/>
<path d="M508.365 33.479H332.747C322.555 33.479 314.294 41.7407 314.294 51.932V299.987C314.294 310.178 322.555 318.44 332.747 318.44H508.365C518.557 318.44 526.818 310.178 526.818 299.987V51.932C526.818 41.7407 518.557 33.479 508.365 33.479Z" stroke="#363946" stroke-width="1.4267" stroke-linecap="round" stroke-linejoin="round"/>
<path d="M468.201 228.432H372.908C368.89 228.432 365.632 231.69 365.632 235.708V245.989C365.632 250.008 368.89 253.265 372.908 253.265H468.201C472.219 253.265 475.477 250.008 475.477 245.989V235.708C475.477 231.69 472.219 228.432 468.201 228.432Z" stroke="#363946" stroke-width="1.4267" stroke-linecap="round" stroke-linejoin="round"/>
<path d="M422.315 260.867H371.105C368.082 260.867 365.632 263.317 365.632 266.34V280.227C365.632 283.25 368.082 285.7 371.105 285.7H422.315C425.338 285.7 427.788 283.25 427.788 280.227V266.34C427.788 263.317 425.338 260.867 422.315 260.867Z" stroke="#363946" stroke-width="1.4267" stroke-linecap="round" stroke-linejoin="round"/>
<path d="M420.558 203.137C463.127 203.137 497.637 168.627 497.637 126.058C497.637 83.4882 463.127 48.9787 420.558 48.9787C377.988 48.9787 343.479 83.4882 343.479 126.058C343.479 168.627 377.988 203.137 420.558 203.137Z" stroke="#363946" stroke-width="1.4267" stroke-linecap="round" stroke-linejoin="round"/>
<path d="M280.586 150.66C282.689 153.428 285.345 155.728 288.385 157.414C295.958 161.583 303.448 160.456 305.888 159.982C308.041 150.851 310.196 141.72 312.353 132.589L298.278 119.178C292.381 129.671 286.483 140.165 280.586 150.66Z" fill="#FF9E9F"/>
<path d="M312.607 127.958L353.188 140.008C356.343 135.088 360.248 130.691 364.762 126.977C398.235 99.5839 452.98 122.151 458.924 124.694C463.566 126.661 467.745 129.577 471.194 133.254C472.138 134.27 475.26 137.74 478.55 145.144C481.891 152.743 483.897 160.861 484.479 169.141C482.062 172.512 479.402 175.702 476.521 178.686C471.859 183.554 466.621 187.834 460.922 191.432C453.92 195.71 446.278 198.835 438.285 200.689C414.174 206.304 394.48 198.471 389.586 196.377C383.116 193.601 377.051 189.964 371.556 185.563C366.61 184.802 361.523 183.884 356.296 182.809C337.821 178.93 319.785 173.194 302.463 165.689L312.607 127.958Z" fill="white"/>
<path d="M486.856 165.392C479.882 177.151 469.904 186.843 457.947 193.473C445.991 200.103 432.485 203.432 418.817 203.12C393.835 202.535 376.872 189.88 371.556 185.563" stroke="#363946" stroke-width="1.4267" stroke-linecap="round" stroke-linejoin="round"/>
<path d="M458.259 146.728L447.628 198.215" stroke="#363946" stroke-width="1.4267" stroke-linecap="round" stroke-linejoin="round"/>
<path d="M377.793 138.867C375.714 154.431 373.635 169.996 371.556 185.563" stroke="#363946" stroke-width="1.4267" stroke-linecap="round" stroke-linejoin="round"/>
<path d="M423.733 62.6323C419.073 66.7227 415.106 71.5407 411.986 76.8993C411.034 75.0725 410.653 73.0016 410.893 70.9556C411.048 69.7206 411.436 68.526 412.034 67.4345L423.733 62.6323Z" fill="#363946"/>
<path d="M412.699 153.99C410.894 144.191 409.087 134.394 407.278 124.6L429.629 130.306L412.699 153.99Z" fill="#74C0FC"/>
<path d="M412.129 105.482C410.51 111.853 408.893 118.225 407.278 124.6C413.947 128.613 421.594 130.709 429.377 130.657L435.621 120.699C436.288 115.245 436.954 109.792 437.618 104.34C439.657 104.668 441.744 104.505 443.707 103.864C444.178 103.707 449.922 101.687 451.885 95.6833C452.282 94.4706 453.98 89.2831 450.65 85.2227C447.576 81.4733 442.66 81.6702 442.089 81.7016L422.116 63.0603C418.512 65.5906 415.495 68.8674 413.27 72.6677C410.842 76.8622 410.254 81.6131 409.084 91.1178C408.528 95.6547 408.348 99.4383 410.417 103.102C410.9 103.955 411.474 104.753 412.129 105.482Z" fill="#FF9E9F"/>
<path d="M412.793 80.1807C414.719 79.5313 416.813 79.5858 418.703 80.3344C420.592 81.0831 422.155 82.4774 423.114 84.2696C421.351 87.1723 419.08 89.7337 416.408 91.8311L419.405 94.8757" stroke="#363946" stroke-width="1.4267" stroke-linecap="round" stroke-linejoin="round"/>
<path d="M427.76 84.7148C428.139 84.5778 430.898 83.6219 433.592 85.2227C435.012 86.089 436.072 87.44 436.574 89.0263" stroke="#363946" stroke-width="1.4267" stroke-linecap="round" stroke-linejoin="round"/>
<path d="M414.888 98.4738C415.426 99.4755 416.184 100.343 417.105 101.011C419.798 102.939 422.889 102.349 423.511 102.215" stroke="#363946" stroke-width="1.4267" stroke-linecap="round" stroke-linejoin="round"/>
<path d="M446.529 90.8011L441.581 93.3377L445.513 97.0158" stroke="#363946" stroke-width="1.4267" stroke-linecap="round" stroke-linejoin="round"/>
<path d="M420.997 63.8934C422.052 67.0094 424.917 74.0059 432.008 79.5158C435.323 82.083 439.101 83.9876 443.136 85.1256C445.717 84.4525 448.444 84.6122 450.929 85.5822C452.068 83.3468 452.688 80.8829 452.741 78.3745C452.872 69.0467 444.532 63.0888 442.945 62.013C442.109 61.4424 432.456 55.1306 421.83 59.445C416.408 61.6421 413.332 65.5484 412.034 67.4345L419.071 64.5811L420.997 63.8934Z" fill="#363946"/>
<path d="M436.508 119.272C432.719 125.223 428.754 131.238 424.615 137.317C415.359 150.902 406.019 163.569 396.752 175.39L389.704 196.6" stroke="#363946" stroke-width="1.4267" stroke-linecap="round" stroke-linejoin="round"/>
<path d="M396.752 175.39L435.147 149.613L432.767 136.584L441.995 141.814L443.296 119.178" stroke="#363946" stroke-width="1.4267" stroke-linecap="round" stroke-linejoin="round"/>
<path d="M401.674 113.7L394.152 134.775L405.089 134.204L395.293 142.291L406.293 162.952" stroke="#363946" stroke-width="1.4267" stroke-linecap="round" stroke-linejoin="round"/>
<path d="M294.637 106.241H277.234C272.952 106.241 269.481 109.712 269.481 113.994V145.569C269.481 149.851 272.952 153.322 277.234 153.322H294.637C298.919 153.322 302.39 149.851 302.39 145.569V113.994C302.39 109.712 298.919 106.241 294.637 106.241Z" fill="#F5EE9E"/>
<path d="M295.23 99.2129H276.643C275.59 99.2129 274.737 100.066 274.737 101.119V104.62C274.737 105.673 275.59 106.526 276.643 106.526H295.23C296.283 106.526 297.136 105.673 297.136 104.62V101.119C297.136 100.066 296.283 99.2129 295.23 99.2129Z" fill="#DD3354"/>
<path d="M268.888 118.259L290.482 118.194L290.608 143.367L268.668 143.495C268.74 135.083 268.813 126.671 268.888 118.259Z" fill="#DD3354"/>
<path d="M295.487 110.267C293.992 110.267 292.697 112.946 292.254 114.707C290.542 121.498 298.041 128.432 299.419 129.67C298.446 131.85 297.907 134.198 297.833 136.584C297.659 142.816 300.803 147.287 301.956 148.774L310.77 131.319C310.124 128.708 309.006 126.238 307.472 124.029C304.655 120.034 302.621 120.174 299.545 115.785C297.242 112.504 296.851 110.261 295.487 110.267Z" fill="#FF9E9F"/>
<path d="M273.44 120.771C273.974 118.334 271.808 115.789 268.601 115.086C265.395 114.383 262.363 115.789 261.829 118.226C261.295 120.663 263.461 123.208 266.668 123.911C269.874 124.613 272.906 123.207 273.44 120.771Z" fill="#FF9E9F"/>
<path d="M267.081 134.441C270.364 134.441 273.025 132.419 273.025 129.924C273.025 127.429 270.364 125.407 267.081 125.407C263.798 125.407 261.137 127.429 261.137 129.924C261.137 132.419 263.798 134.441 267.081 134.441Z" fill="#FF9E9F"/>
<path d="M270.235 145.503C273.386 144.551 275.354 141.838 274.631 139.443C273.907 137.048 270.766 135.878 267.615 136.83C264.464 137.782 262.495 140.495 263.219 142.89C263.942 145.285 267.083 146.455 270.235 145.503Z" fill="#FF9E9F"/>
</svg>
