<svg width="571" height="571" viewBox="0 0 571 571" fill="none" xmlns="http://www.w3.org/2000/svg">
<path d="M570.681 0H0V570.681H570.681V0Z" fill="#E1F3FF"/>
<path d="M370.991 390.48C371.461 336.455 371.931 282.431 372.401 228.407L360.068 227.351C357.48 220.346 350.652 199.102 359.013 175.208C369.02 146.577 396.392 126.854 425.6 124.477C464.977 121.27 490.321 150.985 495.357 156.889C517.899 183.328 528.494 226.706 509.447 256.943C503.007 267.17 494.564 273.69 487.958 277.73C493.475 324.703 498.991 371.678 504.508 418.654L470.686 429.574L370.991 390.48Z" fill="white"/>
<path d="M456.382 128.275L471.163 141.526L451.409 144.705L457.475 158.079C451.169 160.981 445.209 164.585 439.71 168.822C431.269 175.328 424.079 183.311 418.486 192.382" stroke="#363946" stroke-width="1.4267" stroke-linecap="round" stroke-linejoin="round"/>
<path d="M414.295 133.905L402.481 143.812L408.833 145.646L395.174 159.134C395.326 164.74 395.967 170.321 397.088 175.815C398.864 184.47 401.801 192.846 405.82 200.714" stroke="#363946" stroke-width="1.4267" stroke-linecap="round" stroke-linejoin="round"/>
<path d="M423.905 134.635C432.713 128.589 441.253 126.472 445.199 129.528C446.011 130.168 446.639 131.012 447.02 131.973C439.917 138.227 433.548 145.269 428.036 152.963C421.367 162.269 416.073 172.487 412.317 183.303C410.214 173.326 410.76 162.971 413.9 153.271C416.12 146.522 419.506 140.214 423.905 134.635Z" fill="#74C0FC"/>
<path d="M420.735 139.109C420.925 134.532 421.121 129.955 421.323 125.376C420.19 125.355 419.064 125.207 417.964 124.936C416.535 124.582 415.166 124.018 413.901 123.264C411.618 121.815 410.445 119.66 409.567 117.597C408.636 115.42 406.402 109.425 406.394 91.2834C406.394 88.8523 406.431 85.3311 408.023 81.1937C408.669 79.5152 409.499 77.9133 410.497 76.4171L442.141 80.2007L459.381 97.1271C462.175 102.389 460.916 108.427 456.813 111.577C452.71 114.727 447.463 113.688 446.732 113.534C446.829 119.68 446.924 125.827 447.017 131.973L439.747 138.151C438.089 138.473 436.323 138.753 434.451 138.964C429.896 139.475 425.3 139.524 420.735 139.109Z" fill="#FF9E9F"/>
<path d="M400.144 397.083C400.935 288.728 405.146 209.429 409.367 193.147C411.061 186.794 413.2 180.569 415.77 174.517C422.963 158.229 433.629 143.709 447.02 131.973" stroke="#363946" stroke-width="1.4267" stroke-linecap="round" stroke-linejoin="round"/>
<path d="M454.37 101.844L447.793 103.293L452.79 107.465" stroke="#363946" stroke-width="1.4267" stroke-linecap="round" stroke-linejoin="round"/>
<path d="M418.024 115.372C419.19 116.096 420.511 116.533 421.879 116.647C423.932 116.794 425.974 116.245 427.677 115.089" stroke="#363946" stroke-width="1.4267" stroke-linecap="round" stroke-linejoin="round"/>
<path d="M446.059 96.6306C446.955 95.7745 448.012 95.105 449.169 94.6612C450.326 94.2174 451.56 94.0081 452.798 94.0454C457.452 94.2509 459.766 98.0088 459.915 98.2571C461.499 94.8169 462.119 91.011 461.71 87.2458C460.631 78.1434 453.386 72.896 451.198 71.3095C438.928 62.4012 418.863 63.2715 411.938 72.8931C410.915 74.3312 410.165 75.9443 409.723 77.6526C412.403 80.5774 419.83 87.8707 431.666 89.9622C436.23 90.7577 440.901 90.7045 445.445 89.8053L443.733 96.7105L446.059 96.6306Z" fill="#F16D55"/>
<path d="M423.936 108.715L416.934 108.755C419.662 104.811 421.013 100.077 420.777 95.2866C419.598 94.7051 418.341 94.2976 417.045 94.0767C414.141 93.6224 411.167 94.0696 408.525 95.3579" stroke="#363946" stroke-width="1.4267" stroke-linecap="round" stroke-linejoin="round"/>
<path d="M426.923 94.9185C428.43 94.0071 430.132 93.469 431.888 93.3491C434.48 93.2129 437.039 93.9703 439.139 95.4949" stroke="#363946" stroke-width="1.4267" stroke-linecap="round" stroke-linejoin="round"/>
<path d="M447.143 263.626C441.881 266.765 436.931 267.53 435.119 265.595C432.813 263.135 435.912 256.644 438.434 253.468C448.102 241.298 473.531 247.333 477.786 248.395L483.778 265.138L487.964 276.837C484.999 278.554 481.68 279.566 478.262 279.796C476.087 279.935 473.903 279.748 471.782 279.243C465.567 285.612 459.002 287.666 456.907 285.806C454.91 284.045 456.051 277.967 460.223 271.71C453.189 278.201 445.956 279.756 443.742 277.514C441.707 275.476 443.063 269.518 447.143 263.626Z" fill="#FF9E9F"/>
<path d="M456.185 284.69C456.504 279.675 458.209 274.848 461.11 270.745C462.907 268.237 465.128 266.061 467.673 264.317" stroke="#363946" stroke-width="1.4267" stroke-linecap="round" stroke-linejoin="round"/>
<path d="M442.766 273.331C443.725 268.399 446.035 263.83 449.437 260.134C451.544 257.878 454.027 256.007 456.776 254.604" stroke="#363946" stroke-width="1.4267" stroke-linecap="round" stroke-linejoin="round"/>
<path d="M487.958 277.742L474.687 240.163C478.341 236.775 481.294 232.704 483.379 228.178C484.311 226.135 485.057 224.012 485.61 221.835" stroke="#363946" stroke-width="1.4267" stroke-linecap="round" stroke-linejoin="round"/>
<path d="M384.924 255.3L337.518 247.653C336.677 247.517 335.895 247.136 335.27 246.557C334.645 245.978 334.205 245.228 334.005 244.4L315.25 166.656C315.082 165.963 315.088 165.239 315.268 164.548C315.449 163.858 315.797 163.223 316.283 162.7C316.768 162.178 317.376 161.784 318.051 161.553C318.726 161.323 319.448 161.263 320.152 161.38L367.558 169.024C368.399 169.161 369.18 169.542 369.804 170.121C370.429 170.7 370.868 171.45 371.068 172.277L389.826 250.021C389.993 250.714 389.986 251.438 389.806 252.128C389.625 252.818 389.277 253.453 388.791 253.976C388.306 254.498 387.699 254.893 387.024 255.124C386.349 255.355 385.628 255.415 384.924 255.3Z" fill="#275F7C"/>
<path d="M381.546 259.112L334.134 251.465C333.293 251.33 332.511 250.95 331.886 250.371C331.261 249.793 330.821 249.043 330.621 248.215L311.877 170.471C311.71 169.779 311.717 169.057 311.896 168.368C312.076 167.679 312.423 167.046 312.906 166.523C313.389 166.001 313.994 165.606 314.667 165.374C315.34 165.142 316.06 165.079 316.762 165.192L364.169 172.839C365.009 172.974 365.791 173.355 366.416 173.933C367.041 174.512 367.481 175.262 367.681 176.089L386.437 253.836C386.604 254.528 386.598 255.251 386.418 255.941C386.238 256.63 385.891 257.264 385.407 257.786C384.922 258.308 384.316 258.703 383.643 258.934C382.969 259.166 382.249 259.227 381.546 259.112Z" fill="#74C0FC"/>
<path d="M326.626 194.391C331.098 190.205 333.206 185.66 331.851 183.383C330.173 180.566 323.391 181.528 319.279 183.209C307.731 187.925 297.271 206.475 304.333 221.504C310.573 234.781 326.624 237.089 328.016 237.269C330.49 234.892 332.384 231.978 333.552 228.752C334.287 226.7 334.713 224.551 334.816 222.374C342.66 218.169 346.452 212.43 345.248 209.902C344.106 207.502 337.957 206.9 330.784 209.18C338.97 204.221 342.483 197.707 340.928 194.953C339.521 192.454 333.417 192.103 326.626 194.391Z" fill="#FF9E9F"/>
<path d="M344.36 208.918C339.455 207.83 334.344 208.127 329.597 209.774C326.69 210.805 323.986 212.337 321.607 214.299" stroke="#363946" stroke-width="1.4267" stroke-linecap="round" stroke-linejoin="round"/>
<path d="M337.161 192.873C332.157 192.43 327.129 193.383 322.634 195.627C319.888 197.027 317.406 198.896 315.301 201.148" stroke="#363946" stroke-width="1.4267" stroke-linecap="round" stroke-linejoin="round"/>
<path d="M204.783 401.688L141.866 401.665C141.221 401.664 140.588 401.841 140.037 402.176C139.486 402.51 139.038 402.99 138.741 403.563C136.528 407.858 135.193 412.551 134.815 417.368C134.743 418.247 134.343 419.067 133.693 419.665C133.044 420.262 132.193 420.593 131.311 420.592H126.406C125.944 420.592 125.487 420.682 125.06 420.859C124.633 421.035 124.246 421.294 123.919 421.621C123.593 421.947 123.334 422.335 123.157 422.762C122.981 423.188 122.89 423.646 122.89 424.107V499.24C122.889 499.703 122.979 500.162 123.155 500.59C123.331 501.018 123.589 501.407 123.916 501.734C124.242 502.062 124.63 502.323 125.058 502.5C125.485 502.678 125.943 502.77 126.406 502.77H136.316C136.778 502.77 137.235 502.679 137.662 502.502C138.089 502.325 138.477 502.065 138.803 501.738C139.13 501.411 139.389 501.023 139.565 500.596C139.741 500.169 139.832 499.711 139.831 499.249C139.82 491.45 139.807 483.656 139.794 475.868C139.793 475.406 139.884 474.948 140.06 474.521C140.236 474.094 140.495 473.706 140.822 473.379C141.148 473.052 141.536 472.792 141.963 472.615C142.39 472.438 142.847 472.347 143.309 472.347H204.783" fill="#E1F3FF"/>
<path d="M204.783 401.688L141.866 401.665C141.221 401.664 140.588 401.841 140.037 402.176C139.486 402.51 139.038 402.99 138.741 403.563C136.528 407.858 135.193 412.551 134.815 417.368C134.743 418.247 134.343 419.067 133.693 419.665C133.044 420.262 132.193 420.593 131.311 420.592H126.406C125.944 420.592 125.487 420.682 125.06 420.859C124.633 421.035 124.246 421.294 123.919 421.621C123.593 421.947 123.334 422.335 123.157 422.762C122.981 423.188 122.89 423.646 122.89 424.107V499.24C122.889 499.703 122.979 500.162 123.155 500.59C123.331 501.018 123.589 501.407 123.916 501.734C124.242 502.062 124.63 502.323 125.058 502.5C125.485 502.678 125.943 502.77 126.406 502.77H136.316C136.778 502.77 137.235 502.679 137.662 502.502C138.089 502.325 138.477 502.065 138.803 501.738C139.13 501.411 139.389 501.023 139.565 500.596C139.741 500.169 139.832 499.711 139.831 499.249C139.82 491.45 139.807 483.656 139.794 475.868C139.793 475.406 139.884 474.948 140.06 474.521C140.236 474.094 140.495 473.706 140.822 473.379C141.148 473.052 141.536 472.792 141.963 472.615C142.39 472.438 142.847 472.347 143.309 472.347H204.783" stroke="#363946" stroke-width="1.4267" stroke-linecap="round" stroke-linejoin="round"/>
<path d="M22.4478 507.835V256.136C22.4478 255.674 22.5388 255.217 22.7156 254.79C22.8925 254.363 23.1517 253.976 23.4784 253.649C23.8051 253.323 24.193 253.064 24.6199 252.887C25.0467 252.711 25.5041 252.62 25.966 252.621H177.197C178.128 252.621 179.022 252.992 179.68 253.651C180.339 254.31 180.709 255.204 180.709 256.136V406.83C180.709 407.292 180.8 407.749 180.977 408.176C181.154 408.603 181.413 408.99 181.74 409.317C182.066 409.643 182.454 409.902 182.881 410.079C183.308 410.255 183.765 410.346 184.227 410.345L530.271 410.226C530.916 410.225 531.549 410.401 532.1 410.736C532.651 411.071 533.099 411.55 533.396 412.123C535.609 416.418 536.943 421.111 537.322 425.928C537.393 426.807 537.793 427.627 538.442 428.225C539.091 428.823 539.941 429.154 540.823 429.152H545.728C546.66 429.152 547.555 429.523 548.214 430.182C548.873 430.841 549.243 431.735 549.243 432.668V507.801C549.243 508.733 548.872 509.626 548.213 510.285C547.554 510.945 546.66 511.315 545.728 511.316H535.818C535.356 511.316 534.898 511.225 534.472 511.048C534.045 510.871 533.657 510.611 533.33 510.284C533.004 509.957 532.745 509.569 532.569 509.142C532.392 508.715 532.302 508.257 532.303 507.795C532.314 499.996 532.327 492.202 532.34 484.414C532.341 483.952 532.25 483.494 532.074 483.067C531.898 482.64 531.639 482.252 531.312 481.925C530.986 481.598 530.598 481.338 530.171 481.161C529.744 480.984 529.287 480.893 528.825 480.893H44.3163C43.8544 480.893 43.3971 480.985 42.9705 481.162C42.544 481.339 42.1565 481.599 41.8303 481.926C41.5041 482.253 41.2456 482.641 41.0694 483.068C40.8933 483.495 40.803 483.952 40.8037 484.414V507.812C40.8045 508.273 40.7144 508.73 40.5385 509.157C40.3627 509.583 40.1046 509.971 39.779 510.297C39.4533 510.624 39.0665 510.883 38.6406 511.061C38.2148 511.238 37.7582 511.329 37.2969 511.33L25.9689 511.359C25.506 511.359 25.0476 511.269 24.6199 511.092C24.1921 510.915 23.8035 510.656 23.4764 510.328C23.1492 510.001 22.89 509.612 22.7134 509.184C22.5369 508.756 22.4466 508.298 22.4478 507.835Z" fill="#E1F3FF" stroke="#363946" stroke-width="1.4267" stroke-linecap="round" stroke-linejoin="round"/>
<path d="M474.581 410.248L411.663 410.226C411.016 410.222 410.381 410.397 409.827 410.732C409.273 411.067 408.822 411.548 408.525 412.123C406.317 416.419 404.987 421.112 404.613 425.928C404.542 426.807 404.142 427.627 403.493 428.225C402.844 428.823 401.994 429.154 401.112 429.152H396.207C395.274 429.152 394.38 429.523 393.721 430.182C393.062 430.841 392.691 431.735 392.691 432.668V507.801C392.692 508.733 393.063 509.626 393.722 510.286C394.381 510.945 395.274 511.315 396.207 511.316H406.116C406.579 511.316 407.036 511.225 407.463 511.048C407.89 510.871 408.278 510.611 408.604 510.284C408.931 509.957 409.19 509.569 409.366 509.142C409.542 508.715 409.633 508.257 409.632 507.795C409.62 499.996 409.608 492.202 409.595 484.414C409.594 483.952 409.684 483.494 409.861 483.067C410.037 482.64 410.296 482.252 410.622 481.925C410.949 481.598 411.337 481.338 411.764 481.161C412.19 480.984 412.648 480.893 413.11 480.893H474.581" fill="#E1F3FF"/>
<path d="M474.581 410.248L411.663 410.226C411.016 410.222 410.381 410.397 409.827 410.732C409.273 411.067 408.822 411.548 408.525 412.123C406.317 416.419 404.987 421.112 404.613 425.928C404.542 426.807 404.142 427.627 403.493 428.225C402.844 428.823 401.994 429.154 401.112 429.152H396.207C395.274 429.152 394.38 429.523 393.721 430.182C393.062 430.841 392.691 431.735 392.691 432.668V507.801C392.692 508.733 393.063 509.626 393.722 510.286C394.381 510.945 395.274 511.315 396.207 511.316H406.116C406.579 511.316 407.036 511.225 407.463 511.048C407.89 510.871 408.278 510.611 408.604 510.284C408.931 509.957 409.19 509.569 409.366 509.142C409.542 508.715 409.633 508.257 409.632 507.795C409.62 499.996 409.608 492.202 409.595 484.414C409.594 483.952 409.684 483.494 409.861 483.067C410.037 482.64 410.296 482.252 410.622 481.925C410.949 481.598 411.337 481.338 411.764 481.161C412.19 480.984 412.648 480.893 413.11 480.893H474.581" stroke="#363946" stroke-width="1.4267" stroke-linecap="round" stroke-linejoin="round"/>
<path d="M540.167 429.089L180.526 429.112L27.3926 372.846" stroke="#363946" stroke-width="1.4267" stroke-linecap="round" stroke-linejoin="round"/>
<path d="M27.3926 252.621V511.313V252.621Z" fill="#E1F3FF"/>
<path d="M27.3926 252.621V511.313" stroke="#363946" stroke-width="1.4267" stroke-linecap="round" stroke-linejoin="round"/>
<path d="M184.473 410.32L27.3926 349.257L184.473 410.32Z" fill="#E1F3FF"/>
<path d="M184.473 410.32L27.3926 349.257" stroke="#363946" stroke-width="1.4267" stroke-linecap="round" stroke-linejoin="round"/>
<path d="M52.999 239.115H169.418C179.422 239.115 187.879 244.973 189.195 252.812L204.692 345.142C206.278 354.596 196.988 362.993 184.915 362.993H68.4959C58.4918 362.993 50.0343 357.135 48.7189 349.297L33.2221 256.955C31.6356 247.502 40.9377 239.115 52.999 239.115Z" fill="#E1F3FF" stroke="#363946" stroke-width="1.4267" stroke-linecap="round" stroke-linejoin="round"/>
<path d="M113.309 103.579H110.592C109.253 103.579 108.167 104.665 108.167 106.004V236.681C108.167 238.021 109.253 239.107 110.592 239.107H113.309C114.648 239.107 115.734 238.021 115.734 236.681V106.004C115.734 104.665 114.648 103.579 113.309 103.579Z" fill="#E1F3FF" stroke="#363946" stroke-width="1.4267" stroke-linecap="round" stroke-linejoin="round"/>
<path d="M112.652 333.209C108.912 319.821 103.521 297.425 101.998 272.686C101.264 260.701 101.202 244.237 110.592 232.789C110.94 232.364 111.234 232.028 111.288 231.968C122.371 219.507 139.743 219.239 144.508 219.318C147.207 218.958 149.951 219.133 152.583 219.832C160.675 222.009 164.756 228.561 165.803 230.301C169.267 236.059 169.213 241.555 169.158 247.039C169.076 255.454 168.302 259.634 164.022 268.916C159.674 278.39 155.271 296.078 155.725 332.245L112.652 333.209Z" fill="#F5EE9E"/>
<path d="M139.406 289.207C158.524 281.217 182.778 287.914 199.544 306.738C201.436 306.941 214.522 308.544 220.659 319.293C222.193 322.01 223.157 325.011 223.49 328.113L427.725 342.409C431.406 332.111 440.962 325.225 451.409 325.194C460.34 325.166 468.697 330.15 473.286 338.129C474.176 336.046 478.268 327.086 487.17 324.623C487.17 324.623 493.69 322.82 501.437 326.335C514.848 332.413 520.304 366.243 517.416 409.655H177.291C163.674 402.207 151.498 392.385 141.338 380.653C130.295 367.855 106.192 339.918 115.657 313.504C121.595 296.925 137.5 290 139.406 289.207Z" fill="#74C0FC"/>
<path d="M218.317 312.796C214.017 312.601 209.718 313.203 205.636 314.571C201.297 316.068 197.29 318.394 193.837 321.419C190.198 321.643 186.595 322.27 183.094 323.288C141.48 335.426 129.165 399.776 127.262 410.343L523.314 410.226C523.978 381.34 524.644 352.456 525.312 323.573C506.522 320.5 491.536 318.437 482.796 317.296C327.197 296.863 246.819 313.726 218.317 312.796Z" fill="white"/>
<path d="M203.111 307.349C205.436 307.919 217.07 311.058 221.749 321.473C222.688 323.579 223.286 325.822 223.518 328.116L291.532 332.878L427.725 342.409C431.406 332.111 440.962 325.225 451.408 325.194C460.34 325.165 468.697 330.15 473.286 338.128C474.365 335.604 475.851 333.273 477.685 331.229C479.112 329.642 482.476 325.902 487.741 324.495C496.093 322.264 503.383 327.477 504.348 328.187C511.287 333.323 513.068 341.661 514.106 347.391C518.369 370.908 518.552 396.903 518.369 410.225" stroke="#363946" stroke-width="1.4267" stroke-linecap="round" stroke-linejoin="round"/>
<path d="M185.931 314.123C187.474 314.996 194.328 319.088 196.582 327.44C198.808 335.68 195.672 344.805 188.593 350.775" stroke="#363946" stroke-width="1.4267" stroke-linecap="round" stroke-linejoin="round"/>
<path d="M141.988 363.755C138.203 369.696 134.87 375.914 132.019 382.356C131.197 384.209 130.436 386.029 129.736 387.815C126.045 397.174 126.045 407.586 129.736 416.945C135.757 432.174 153.071 443.302 147.804 462.631C165.21 465.693 194.694 409.655 194.694 409.655L141.988 363.755Z" fill="white"/>
<path d="M149.918 389.504L194.696 410.334" stroke="#363946" stroke-width="1.4267" stroke-linecap="round" stroke-linejoin="round"/>
<path d="M447.699 332.707C442.952 334.914 438.884 338.355 435.923 342.672C432.961 346.989 431.214 352.023 430.864 357.246C431.054 369.168 431.244 381.088 431.435 393.008" stroke="#363946" stroke-width="1.4267" stroke-linecap="round" stroke-linejoin="round"/>
<path d="M151.801 335.435L180.906 363.684C184.698 367.369 189.417 369.958 194.562 371.177C199.255 372.288 204.088 373.349 209.061 374.361C215.528 375.674 221.806 376.815 227.893 377.785C228.273 388.406 228.648 399.027 229.017 409.649H194.697C172.022 401.971 151.399 389.221 134.396 372.369C137.977 359.129 143.869 346.625 151.801 335.435Z" fill="#74C0FC"/>
<path d="M228.29 388.822C231.955 388.55 235.634 388.487 239.307 388.634C247.142 388.948 254.715 389.25 261.943 392.534C265.293 394.052 273.41 398.404 279.728 409.749L229.017 409.655L228.29 388.822Z" fill="#FF9E9F"/>
<path d="M244.697 399.286C247.871 399.128 251.048 399.537 254.079 400.493C261.452 402.824 265.795 407.772 267.524 410.003" stroke="#363946" stroke-width="1.4267" stroke-linecap="round" stroke-linejoin="round"/>
<path d="M138.655 301.126C137.309 293.553 136.704 287.247 134.447 280.49C132.98 281.309 128.74 284.199 123.832 283.454C118.716 282.675 114.889 280.067 113.868 273.014C112.946 266.639 115.942 261.338 120.742 259.26C122.206 258.627 125.638 258.558 126.597 258.49C132.903 258.076 144.245 233.095 145.378 227.242C148.432 226.97 151.51 227.35 154.406 228.358C156.224 228.997 161.006 230.755 164.353 235.7C166.049 238.229 167.101 241.134 167.418 244.163C167.951 249.034 168.454 253.148 168.844 256.267C170.037 265.641 170.574 268.331 169.312 271.807C167.909 275.667 165.098 278.25 162.801 279.876L168.87 298.015C168.87 300.058 168.299 301.439 167.677 302.375C164.413 307.312 150.374 305.563 138.655 301.126Z" fill="#FF9E9F"/>
<path d="M164.756 247.273C163.286 246.322 161.527 245.923 159.791 246.149C158.795 246.302 157.84 246.655 156.984 247.186C156.128 247.717 155.388 248.415 154.809 249.239C155.017 250.365 155.352 251.464 155.807 252.515C156.92 255.024 158.663 257.202 160.866 258.838L158.906 262.579" stroke="#363946" stroke-width="1.4267" stroke-linecap="round" stroke-linejoin="round"/>
<path d="M163.335 268.009C163.443 270.052 159.785 276.173 151.048 270.329" stroke="#363946" stroke-width="1.4267" stroke-linecap="round" stroke-linejoin="round"/>
<path d="M148.611 249.459C146.53 248.452 144.172 248.171 141.912 248.658C139.652 249.146 137.62 250.375 136.139 252.15" stroke="#363946" stroke-width="1.4267" stroke-linecap="round" stroke-linejoin="round"/>
<path d="M118.879 268.169L128.212 270.072L124.049 277.859" stroke="#363946" stroke-width="1.4267" stroke-linecap="round" stroke-linejoin="round"/>
<path d="M274.766 30.8168H155.876C151.752 30.8168 148.408 34.1601 148.408 38.2842V161.591C148.408 165.715 151.752 169.059 155.876 169.059H274.766C278.89 169.059 282.233 165.715 282.233 161.591V38.2842C282.233 34.1601 278.89 30.8168 274.766 30.8168Z" fill="#E1F3FF" stroke="#363946" stroke-width="1.4267" stroke-linecap="round" stroke-linejoin="round"/>
<path d="M269.598 36.1555H161.043C156.919 36.1555 153.576 39.4987 153.576 43.6228V156.252C153.576 160.377 156.919 163.72 161.043 163.72H269.598C273.722 163.72 277.066 160.377 277.066 156.252V43.6228C277.066 39.4987 273.722 36.1555 269.598 36.1555Z" fill="#E1F3FF" stroke="#363946" stroke-width="1.4267" stroke-linecap="round" stroke-linejoin="round"/>
<path d="M277.066 97.0129H218.151V36.1555H212.49V97.0129H153.576V102.862H212.49V163.72H218.151V102.862H277.066V97.0129Z" fill="#E1F3FF" stroke="#363946" stroke-width="1.4267" stroke-linecap="round" stroke-linejoin="round"/>
<path d="M113.565 177.279H90.6668C90.21 177.279 89.7582 177.184 89.3404 176.999C88.9226 176.814 88.548 176.544 88.2407 176.206C87.9333 175.868 87.7 175.47 87.5557 175.037C87.4113 174.603 87.3591 174.144 87.4025 173.69L91.5371 130.033C91.6138 129.22 91.9909 128.465 92.5946 127.916C93.1982 127.366 93.9851 127.062 94.8014 127.062H117.697C118.154 127.062 118.606 127.157 119.023 127.342C119.441 127.527 119.816 127.797 120.123 128.135C120.431 128.473 120.664 128.871 120.808 129.305C120.953 129.738 121.005 130.197 120.961 130.652L116.83 174.309C116.752 175.121 116.375 175.876 115.771 176.425C115.168 176.974 114.381 177.279 113.565 177.279Z" fill="#E1F3FF"/>
<path d="M90.5472 144.739H119.081C118.242 154.606 117.402 164.474 116.562 174.343C116.48 174.826 116.284 175.283 115.991 175.676C115.605 176.185 115.075 176.565 114.47 176.768L90.3103 177.005C89.9042 176.946 89.514 176.806 89.1626 176.594C88.8113 176.382 88.5059 176.102 88.2644 175.77C87.8626 175.185 87.6779 174.479 87.7423 173.772C88.6782 164.094 89.6132 154.416 90.5472 144.739Z" fill="#74C0FC"/>
<path d="M113.565 177.279H90.6668C90.21 177.279 89.7582 177.184 89.3404 176.999C88.9226 176.814 88.548 176.544 88.2407 176.206C87.9333 175.868 87.7 175.47 87.5557 175.037C87.4113 174.603 87.3591 174.144 87.4025 173.69L91.5371 130.033C91.6138 129.22 91.9909 128.465 92.5946 127.916C93.1982 127.366 93.9851 127.062 94.8014 127.062H117.697C118.154 127.062 118.606 127.157 119.023 127.342C119.441 127.527 119.816 127.797 120.123 128.135C120.431 128.473 120.664 128.871 120.808 129.305C120.953 129.738 121.005 130.197 120.961 130.652L116.83 174.309C116.752 175.121 116.375 175.876 115.771 176.425C115.168 176.974 114.381 177.279 113.565 177.279V177.279Z" stroke="#363946" stroke-width="1.4267" stroke-linecap="round" stroke-linejoin="round"/>
<path d="M94.228 132.969L120.736 133.043L94.228 132.969Z" fill="#E1F3FF"/>
<path d="M94.228 132.969L120.736 133.043" stroke="#363946" stroke-width="1.4267" stroke-linecap="round" stroke-linejoin="round"/>
<path d="M106.908 129.736C106.908 129.999 106.83 130.257 106.684 130.476C106.537 130.695 106.329 130.866 106.086 130.967C105.842 131.068 105.574 131.094 105.316 131.043C105.057 130.991 104.82 130.864 104.634 130.678C104.447 130.492 104.32 130.254 104.269 129.996C104.218 129.737 104.244 129.469 104.345 129.226C104.446 128.982 104.616 128.774 104.836 128.628C105.055 128.481 105.312 128.403 105.576 128.403C105.929 128.403 106.268 128.544 106.518 128.794C106.768 129.043 106.908 129.382 106.908 129.736Z" fill="#E1F3FF" stroke="#363946" stroke-width="1.4267" stroke-linecap="round" stroke-linejoin="round"/>
<path d="M103.738 124.217C102.908 125.644 102.905 127.31 103.738 128.466C104.196 129.078 104.841 129.524 105.576 129.736" stroke="#363946" stroke-width="1.4267" stroke-linecap="round" stroke-linejoin="round"/>
<path d="M275.89 83.3195H218.151" stroke="#363946" stroke-width="1.4267" stroke-linecap="round" stroke-linejoin="round"/>
<path d="M212.49 83.3195H170.043C170.043 83.3195 175.122 69.9827 182.239 71.1212C189.355 72.2597 191.267 76.4171 191.267 76.4171C191.267 76.4171 198.335 61.4424 212.49 61.7278" stroke="#363946" stroke-width="1.4267" stroke-linecap="round" stroke-linejoin="round"/>
<path d="M218.151 61.722C224.651 63.7194 227.747 70.4905 227.747 70.4905C227.747 70.4905 231.482 51.1958 249.131 52.9021C266.779 54.6084 267.079 68.2734 267.079 68.2734C267.079 68.2734 274.269 54.6113 277.066 54.6113" stroke="#363946" stroke-width="1.4267" stroke-linecap="round" stroke-linejoin="round"/>
<path d="M99.2986 314.888C100.058 323.237 106.98 349.128 116.505 355.058C103.094 351.702 86.1416 335.435 86.1416 335.435" fill="#E1F3FF"/>
<path d="M99.2987 314.888C100.058 323.237 106.98 349.128 116.505 355.058C103.094 351.702 86.1416 335.435 86.1416 335.435" stroke="#363946" stroke-width="1.4267" stroke-linecap="round" stroke-linejoin="round"/>
</svg>
