<svg width="571" height="571" viewBox="0 0 571 571" fill="none" xmlns="http://www.w3.org/2000/svg">
<path d="M570.681 0H0V570.681H570.681V0Z" fill="#E1F3FF"/>
<path d="M174.12 212.168L211.406 198.471L222.44 228.652L207.728 234.741L174.12 212.168Z" fill="#FF9E9F"/>
<path d="M388.443 461.49L430.864 460.54C429.9 465.105 429.36 471.528 432.576 477.281C435.144 481.877 438.283 482.776 440.945 487.17C443.054 490.657 444.886 496.393 442.849 506.003H377.026C374.837 498.236 374.74 490.028 376.744 482.211C378.748 474.394 382.783 467.245 388.44 461.49H388.443Z" fill="#363946"/>
<path d="M434.42 464.101L367.915 464.258L367.499 378.584C362.039 407.466 356.58 436.349 351.12 465.231L315.355 467.308L310.268 379.646L430.256 372.683C431.643 403.156 433.031 433.628 434.42 464.101Z" fill="#74C0FC"/>
<path d="M206.778 189.275C212.991 206.65 219.204 224.025 225.419 241.398C241.044 241.646 254.418 240.956 264.987 240.066C278.969 238.89 287.657 237.398 295.233 230.935C297.912 228.639 300.222 225.944 302.081 222.945C301.922 275.798 301.763 328.649 301.605 381.5H452.265L441.422 240.257C448.124 236.262 459.378 228.272 467.673 214.291C480.873 192.034 479.538 166.51 473.665 149.518C457.498 102.743 395.67 88.096 360.1 87.5995C342.831 87.3598 315.141 86.9718 291.333 107.003C258.887 134.298 259.968 177.368 260.231 183.759L206.778 189.275Z" fill="white"/>
<path d="M341.267 93.021C345.427 114.317 352.2 135.018 361.432 154.655C368.697 134.29 371.99 112.722 371.134 91.1178L341.267 93.021Z" fill="#74C0FC"/>
<path d="M404.447 227.956C399.619 230.835 395.077 231.537 393.416 229.762C391.299 227.505 394.144 221.55 396.458 218.634C405.329 207.468 428.653 213.007 432.562 213.98L438.058 229.342C439.34 232.921 440.62 236.5 441.898 240.08C439.173 241.656 436.122 242.584 432.982 242.793C430.986 242.919 428.983 242.748 427.038 242.285C421.331 248.129 415.313 250.013 413.39 248.309C411.564 246.694 412.597 241.118 416.432 235.375C409.98 241.33 403.343 242.759 401.309 240.702C399.477 238.83 400.704 233.363 404.447 227.956Z" fill="#FF9E9F"/>
<path d="M412.745 247.285C413.036 242.684 414.598 238.254 417.256 234.487C418.906 232.186 420.944 230.19 423.28 228.589" stroke="#363946" stroke-width="1.4267" stroke-linecap="round" stroke-linejoin="round"/>
<path d="M400.433 236.858C401.313 232.334 403.432 228.143 406.553 224.751C408.487 222.682 410.765 220.966 413.287 219.678" stroke="#363946" stroke-width="1.4267" stroke-linecap="round" stroke-linejoin="round"/>
<path d="M363.333 381.215C360.546 322.625 357.756 264.035 354.964 205.445" stroke="#363946" stroke-width="1.4267" stroke-linecap="round" stroke-linejoin="round"/>
<path d="M356.636 178.951L325.351 141.326C324.5 140.304 323.992 139.041 323.897 137.715C323.801 136.389 324.124 135.066 324.82 133.933L337.272 113.66L318.971 120.562C318.618 120.695 318.233 120.714 317.869 120.618C317.505 120.522 317.18 120.314 316.939 120.024C316.698 119.735 316.554 119.377 316.526 119.001C316.497 118.626 316.587 118.251 316.782 117.928L333.372 90.5357" stroke="#363946" stroke-width="1.4267" stroke-linecap="round" stroke-linejoin="round"/>
<path d="M441.898 240.257C436.696 225.609 431.496 210.962 426.299 196.314L425.349 151.801" stroke="#363946" stroke-width="1.4267" stroke-linecap="round" stroke-linejoin="round"/>
<path d="M289.05 165.403L303.696 161.694L301.128 337.843" stroke="#363946" stroke-width="1.4267" stroke-linecap="round" stroke-linejoin="round"/>
<path d="M364.445 527.443C376.999 527.443 387.176 517.267 387.176 504.713C387.176 492.16 376.999 481.983 364.445 481.983C351.892 481.983 341.715 492.16 341.715 504.713C341.715 517.267 351.892 527.443 364.445 527.443Z" fill="#E1F3FF" stroke="#363946" stroke-width="1.4267" stroke-linecap="round" stroke-linejoin="round"/>
<path d="M387.176 468.338H337.718V481.273H387.176V468.338Z" fill="#363946"/>
<path d="M385.341 469.651H295.941C294.543 457.096 293.146 444.541 291.749 431.986L286.767 378.932L323.861 383.783L329.414 431.415C332.077 435.98 334.741 440.546 337.404 445.111C343.002 444.843 352.219 445.28 361.658 450.247C363.955 451.457 366.141 452.868 368.189 454.465C370.817 451.577 374.735 450.969 377.257 452.624C379.523 454.111 379.868 456.904 379.919 457.381C381.806 454.391 385.341 453.155 388.194 454.242C391.587 455.538 392.403 459.518 392.189 461.946C391.878 465.456 389.164 468.529 385.341 469.651Z" fill="#FF9E9F"/>
<path d="M380.111 456.048C380.177 457.199 380.07 458.353 379.794 459.472C378.576 464.375 374.427 466.951 373.2 467.653" stroke="#363946" stroke-width="1.4267" stroke-linecap="round" stroke-linejoin="round"/>
<path d="M355.432 452.014C355.64 451.871 359.346 449.38 363.484 451.189C364.825 451.759 365.986 452.683 366.844 453.861C367.702 455.039 368.224 456.428 368.354 457.879C368.484 459.331 368.218 460.791 367.584 462.103C366.95 463.415 365.972 464.531 364.754 465.33" stroke="#363946" stroke-width="1.4267" stroke-linecap="round" stroke-linejoin="round"/>
<path d="M239.971 389.49C245.203 417.834 250.434 446.178 255.665 474.521H337.843C338.845 473.734 345.947 467.959 346.118 458.257C346.278 448.926 339.9 443.023 337.843 441.328C332.39 436.834 326.281 436.331 318.725 435.715C313.964 435.328 309.173 435.52 304.458 436.286C301.127 420.307 297.798 404.328 294.471 388.349L239.971 389.49Z" fill="white"/>
<mask id="mask0_701_651" style="mask-type:alpha" maskUnits="userSpaceOnUse" x="239" y="388" width="108" height="87">
<path d="M239.971 389.49C245.203 417.834 250.434 446.178 255.665 474.521H337.843C338.845 473.734 345.947 467.959 346.118 458.257C346.278 448.926 339.9 443.023 337.843 441.328C332.39 436.834 326.281 436.331 318.725 435.715C313.964 435.328 309.173 435.52 304.458 436.286C301.127 420.307 297.798 404.328 294.471 388.349L239.971 389.49Z" fill="white"/>
</mask>
<g mask="url(#mask0_701_651)">
<path d="M253.573 477.469C255.476 473.649 257.636 469.964 260.039 466.438C273.89 446.141 292.902 435.541 305.694 430.102" stroke="#363946" stroke-width="1.4267" stroke-linecap="round" stroke-linejoin="round"/>
<path d="M270.34 486.868C271.449 482.746 272.838 478.705 274.498 474.772C284.045 452.131 300.578 437.964 312.037 430.102" stroke="#363946" stroke-width="1.4267" stroke-linecap="round" stroke-linejoin="round"/>
<path d="M285.674 491.165C286.288 486.942 287.191 482.766 288.377 478.667C295.202 455.061 309.96 439.059 320.417 429.903" stroke="#363946" stroke-width="1.4267" stroke-linecap="round" stroke-linejoin="round"/>
<path d="M302.855 493.554C303.193 489.299 303.821 485.073 304.735 480.904C310 456.904 323.676 439.969 333.512 430.148" stroke="#363946" stroke-width="1.4267" stroke-linecap="round" stroke-linejoin="round"/>
<path d="M322.192 497.948C322.006 493.684 322.11 489.412 322.503 485.162C324.786 460.697 336.277 442.212 344.831 431.255" stroke="#363946" stroke-width="1.4267" stroke-linecap="round" stroke-linejoin="round"/>
<path d="M250.923 467.653C252.825 463.832 254.986 460.145 257.391 456.619C271.239 436.323 290.251 425.722 303.046 420.287" stroke="#363946" stroke-width="1.4267" stroke-linecap="round" stroke-linejoin="round"/>
<path d="M248.691 455.118C250.593 451.297 252.753 447.611 255.157 444.084C269.008 423.788 288.02 413.187 300.812 407.752" stroke="#363946" stroke-width="1.4267" stroke-linecap="round" stroke-linejoin="round"/>
<path d="M246.28 444.846C248.183 441.026 250.344 437.34 252.749 433.815C266.596 413.518 285.612 402.918 298.403 397.479" stroke="#363946" stroke-width="1.4267" stroke-linecap="round" stroke-linejoin="round"/>
<path d="M243.729 435.715C245.631 431.894 247.792 428.207 250.198 424.681C264.046 404.385 283.061 393.784 295.852 388.349" stroke="#363946" stroke-width="1.4267" stroke-linecap="round" stroke-linejoin="round"/>
<path d="M239.064 428.271C240.965 424.45 243.126 420.765 245.53 417.239C259.38 396.94 278.392 386.343 291.184 380.904" stroke="#363946" stroke-width="1.4267" stroke-linecap="round" stroke-linejoin="round"/>
<path d="M232.404 421.163C234.307 417.343 236.468 413.657 238.873 410.131C252.723 389.835 271.735 379.235 284.527 373.796" stroke="#363946" stroke-width="1.4267" stroke-linecap="round" stroke-linejoin="round"/>
</g>
<path d="M228.749 287.432L262.607 291.427C267.116 290.541 271.725 290.285 276.304 290.668C282.279 291.17 294.363 292.189 301.984 301.511C303.725 303.639 306.738 308.039 307.788 315.207L211.628 313.875L206.538 289.05L228.749 287.432Z" fill="#FF9E9F"/>
<path d="M280.901 298.783C283.254 299.423 285.484 300.452 287.498 301.827C294.209 306.43 296.289 313.504 296.88 315.903" stroke="#363946" stroke-width="1.4267" stroke-linecap="round" stroke-linejoin="round"/>
<path d="M311.686 311.592H211.34C209.082 311.592 207.251 313.423 207.251 315.681V319.867C207.251 322.125 209.082 323.956 211.34 323.956H311.686C313.944 323.956 315.775 322.125 315.775 319.867V315.681C315.775 313.423 313.944 311.592 311.686 311.592Z" fill="#363946"/>
<path d="M85.8276 236.547H50.0915C49.0193 236.552 47.9609 236.789 46.9891 237.242C46.0174 237.695 45.1553 238.353 44.4624 239.172C43.7695 239.99 43.2622 240.948 42.9754 241.982C42.6886 243.015 42.6291 244.098 42.8011 245.156C49.9631 288.638 57.1271 332.122 64.2929 375.608C64.5896 377.39 65.5264 379.003 66.9275 380.143C68.3286 381.284 70.0977 381.874 71.903 381.803L112.313 380.145C116.747 379.962 117.42 374.395 119.267 371.271C121.315 367.807 131.051 351.328 123.567 337.178C122.331 334.839 118.742 329.003 109.87 325.051C112.353 311.826 119.055 267.698 93.0923 242.479C90.8447 240.298 88.4142 238.313 85.8276 236.547Z" fill="#363946"/>
<path d="M334.04 393.895H211.026C166.298 363.039 121.573 332.18 76.8507 301.32L66.199 303.602C64.3956 299.282 54.4515 274.315 66.5785 247.296C81.6473 213.72 117.275 207.083 120.223 206.587C130.264 204.381 145.789 202.572 163.594 206.966C195.144 214.753 212.624 236.833 218.254 244.126C230.809 260.41 236.028 276.997 238.354 287.909L206.458 289.729L214.259 310.325C220.956 310.399 230.92 310.667 242.985 311.592C267.207 313.447 279.32 314.374 290.417 319.319C295.553 321.602 313.107 329.728 324.658 349.636C335.712 368.703 334.704 387.238 334.04 393.895Z" fill="#74C0FC"/>
<path d="M190.416 249.767C194.634 259.874 198.819 270.21 202.971 280.775C207.075 291.219 210.999 301.519 214.744 311.677" stroke="#363946" stroke-width="1.4267" stroke-linecap="round" stroke-linejoin="round"/>
<path d="M295.804 393.895C296.665 386.025 296.15 378.065 294.28 370.372C293.359 366.588 291.293 358.411 286.102 350.969C282.521 345.833 275.916 338.848 256.045 331.375C244.223 326.929 225.43 321.456 200.689 320.723" stroke="#363946" stroke-width="1.4267" stroke-linecap="round" stroke-linejoin="round"/>
<path d="M71.2296 302.524L112.678 292.505L117.686 301.066L175.199 300.749C183.491 299.476 196.374 298.817 208.869 304.173C213.828 306.299 216.425 308.387 218.126 310.071C225.139 317.002 226.169 326.164 226.369 329.854H87.3142C79.0606 322.787 73.4002 313.17 71.2296 302.524Z" fill="#FF9E9F"/>
<path d="M193.906 311.338C198.389 312.422 202.453 314.806 205.586 318.191C208.719 321.576 210.782 325.811 211.517 330.364" stroke="#363946" stroke-width="1.4267" stroke-linecap="round" stroke-linejoin="round"/>
<path d="M66.199 303.602L116.927 291.427C113.545 275.195 110.162 258.963 106.78 242.731" stroke="#363946" stroke-width="1.4267" stroke-linecap="round" stroke-linejoin="round"/>
<path d="M197.456 300.795C199.972 300.869 208.541 301.425 216.145 308.025C220.588 311.911 223.782 317.023 225.325 322.72" stroke="#363946" stroke-width="1.4267" stroke-linecap="round" stroke-linejoin="round"/>
<path d="M169.695 160.564C170.501 157.982 170.841 155.276 170.696 152.574C170.26 144.722 165.774 139.409 164.102 137.608L157.762 148.009L169.695 160.564Z" fill="#363946"/>
<path d="M154.135 214.973L153.074 199.678C154.385 199.599 155.682 199.364 156.937 198.979C158.591 198.47 160.158 197.711 161.583 196.728C164.185 194.831 165.452 192.12 166.399 189.532C169.218 181.81 171.444 168.947 169.121 156.906C168.456 153.462 167.372 149.835 164.302 147.27C163.575 146.664 162.779 146.147 161.931 145.729L127.33 144.873L107.979 166.559C104.934 173.182 106.609 180.578 111.48 184.273C116.35 187.968 122.383 186.447 123.221 186.222C123.267 194.812 123.311 203.402 123.353 211.991C127.915 214.802 133.061 216.53 138.396 217.044C143.73 217.558 149.111 216.844 154.127 214.956L154.135 214.973Z" fill="#FF9E9F"/>
<path d="M164.102 137.597C160.629 135.917 156.982 134.62 153.228 133.731C148.254 132.552 135.006 129.422 121.84 136.107C117.654 138.233 107.185 143.549 105.005 154.56C103.738 160.961 105.838 166.428 107.074 169.05C107.719 167.723 108.673 166.57 109.856 165.689C113.654 162.915 119.438 163.589 123.173 166.448C126.802 169.23 127.564 173.367 127.738 174.534C127.579 170.507 127.42 166.48 127.262 162.453C131.151 161.415 134.964 160.113 138.675 158.555C147.797 154.703 156.217 149.368 163.594 142.764C163.765 141.045 163.935 139.322 164.102 137.597Z" fill="#363946"/>
<path d="M113.565 169.683L122.126 175.961L115.024 180.398" stroke="#363946" stroke-width="1.4267" stroke-linecap="round" stroke-linejoin="round"/>
<path d="M165.563 165.712C161.705 164.225 156.769 164.807 156.295 168.793C156.01 171.119 157.459 174.215 158.37 175.821C158.446 175.95 158.491 176.095 158.501 176.244C158.511 176.394 158.487 176.543 158.43 176.682C158.372 176.82 158.284 176.943 158.171 177.041C158.058 177.14 157.924 177.21 157.779 177.248C156.395 177.624 154.58 177.953 153.339 178.389" stroke="#363946" stroke-width="1.4267" stroke-linecap="round" stroke-linejoin="round"/>
<path d="M148.836 165.937C147.307 165.48 146.034 165.001 143.326 165.047C140.27 165.095 138.593 165.791 137 166.379" stroke="#363946" stroke-width="1.4267" stroke-linecap="round" stroke-linejoin="round"/>
<path d="M145.124 185.271C147.721 189.075 156.823 189.129 159.916 184.963" stroke="#363946" stroke-width="1.4267" stroke-linecap="round" stroke-linejoin="round"/>
<path d="M238.368 322.438H79.4045C77.1715 322.438 75.3613 324.248 75.3613 326.481V334.248C75.3613 336.481 77.1715 338.291 79.4045 338.291H238.368C240.601 338.291 242.411 336.481 242.411 334.248V326.481C242.411 324.248 240.601 322.438 238.368 322.438Z" fill="#363946"/>
<path d="M256.495 474.521H387.181V483.938C387.181 484.713 386.873 485.457 386.325 486.006C385.776 486.554 385.032 486.862 384.257 486.862H256.495C255.72 486.862 254.977 486.553 254.429 486.005C253.881 485.456 253.574 484.713 253.574 483.938V477.438C253.576 476.664 253.885 475.923 254.432 475.376C254.98 474.829 255.722 474.522 256.495 474.521Z" fill="#363946"/>
<path d="M149.073 526.801C201.842 526.801 244.62 484.024 244.62 431.255C244.62 378.486 201.842 335.709 149.073 335.709C96.3045 335.709 53.527 378.486 53.527 431.255C53.527 484.024 96.3045 526.801 149.073 526.801Z" fill="#E1F3FF" stroke="#363946" stroke-width="1.4267" stroke-linecap="round" stroke-linejoin="round"/>
<path d="M150.68 335.723C150.143 399.417 149.608 463.111 149.073 526.804L150.68 335.723Z" fill="#E1F3FF"/>
<path d="M150.68 335.723C150.143 399.417 149.608 463.111 149.073 526.804" stroke="#363946" stroke-width="1.4267" stroke-linecap="round" stroke-linejoin="round"/>
<path d="M245.416 432.066L54.3374 430.462L245.416 432.066Z" fill="#E1F3FF"/>
<path d="M245.416 432.066L54.3374 430.462" stroke="#363946" stroke-width="1.4267" stroke-linecap="round" stroke-linejoin="round"/>
<path d="M216.859 499.386L82.8857 363.139L216.859 499.386Z" fill="#E1F3FF"/>
<path d="M216.859 499.386L82.8857 363.139" stroke="#363946" stroke-width="1.4267" stroke-linecap="round" stroke-linejoin="round"/>
<path d="M81.7529 498.253L218 364.274L81.7529 498.253Z" fill="#E1F3FF"/>
<path d="M81.7529 498.253L218 364.274" stroke="#363946" stroke-width="1.4267" stroke-linecap="round" stroke-linejoin="round"/>
<path d="M149.875 441.353C155.448 441.353 159.965 436.836 159.965 431.264C159.965 425.691 155.448 421.174 149.875 421.174C144.303 421.174 139.786 425.691 139.786 431.264C139.786 436.836 144.303 441.353 149.875 441.353Z" fill="#E1F3FF" stroke="#363946" stroke-width="1.4267" stroke-linecap="round" stroke-linejoin="round"/>
<path d="M322.104 527.443C334.657 527.443 344.834 517.267 344.834 504.713C344.834 492.16 334.657 481.983 322.104 481.983C309.55 481.983 299.374 492.16 299.374 504.713C299.374 517.267 309.55 527.443 322.104 527.443Z" fill="#E1F3FF" stroke="#363946" stroke-width="1.4267" stroke-linecap="round" stroke-linejoin="round"/>
<path d="M204.429 203.753C201.646 205.625 199.064 207.78 196.725 210.185C194.443 212.532 192.38 215.084 190.565 217.809C174.366 225.273 170.942 228.937 171.276 230.897C171.478 232.102 173.122 232.732 174.255 233.18C178.01 234.621 181.117 232.815 185.825 231.5C188.965 230.622 192.2 230.128 195.458 230.027L211.788 230.732L204.429 203.753Z" fill="#FF9E9F"/>
<path d="M215.971 228.398C209.595 231.049 202.566 231.712 195.806 230.301" stroke="#363946" stroke-width="1.4267" stroke-linecap="round" stroke-linejoin="round"/>
<path d="M385.723 66.0107C393.708 66.0107 400.181 59.5375 400.181 51.5525C400.181 43.5674 393.708 37.0943 385.723 37.0943C377.738 37.0943 371.265 43.5674 371.265 51.5525C371.265 59.5375 377.738 66.0107 385.723 66.0107Z" fill="#363946"/>
<path d="M378.031 39.7279L381.6 40.0475C382.475 42.9387 382.679 45.9912 382.197 48.973C381.548 52.8349 379.787 56.4237 377.129 59.2994L373.748 57.5047C375.174 51.5791 376.602 45.6535 378.031 39.7279Z" fill="#363946"/>
<path d="M341.901 95.8744L341.498 81.7871C339.988 81.2053 338.541 80.472 337.178 79.5986C322.72 70.3136 324.25 48.7818 324.489 45.4148C324.877 39.9476 326.923 37.5394 327.722 36.709C328.277 36.1302 328.901 35.6214 329.58 35.1939L358.476 31.7698L376.478 49.0215C377.955 51.6022 378.598 54.5758 378.322 57.536C378.188 58.8572 377.751 62.0672 375.017 64.6125C371.987 67.4259 368.261 67.4088 367.422 67.386C368.671 75.5448 369.919 83.7046 371.165 91.8653C362.102 96.3366 351.831 97.7387 341.901 95.8601V95.8744Z" fill="#FF9E9F"/>
<path d="M363.475 49.1727C363.812 48.7646 366.086 46.0796 369.847 46.071C374.39 46.071 376.915 49.963 377.078 50.2227C378.376 46.4055 378.703 42.3248 378.028 38.3497C376.296 28.5083 368.743 23.1753 366.648 21.8228C354.59 14.0387 339.598 19.5201 333.004 25.2468C330.472 27.471 328.408 30.1761 326.932 33.205C325.322 37.3961 324.475 41.8413 324.429 46.3307C325.285 44.1878 326.467 43.1919 327.191 42.7068C327.916 42.2218 328.878 41.7995 333.62 41.38C335.415 41.2202 336.91 41.1375 337.957 41.0947C338.602 42.1733 343.396 49.886 352.618 51.0445C356.342 51.4802 360.112 50.8302 363.475 49.1727Z" fill="#363946"/>
<path d="M372.78 50.9161L367.456 57.4476L374.304 60.1754" stroke="#363946" stroke-width="1.4267" stroke-linecap="round" stroke-linejoin="round"/>
<path d="M326.809 51.6466C328.486 50.3365 330.535 49.5905 332.661 49.5151C335.278 49.4324 336.308 52.2972 336.573 54.5257C336.859 56.8455 336.003 59.8444 335.184 61.5137C334.804 62.2927 335.047 63.5396 335.911 63.5624C337.273 63.5967 339.301 63.2543 340.149 63.2543" stroke="#363946" stroke-width="1.4267" stroke-linecap="round" stroke-linejoin="round"/>
<path d="M341.998 49.5122C343.595 48.691 345.342 48.2055 347.134 48.0855C349.137 47.9672 351.14 48.2997 352.998 49.0585" stroke="#363946" stroke-width="1.4267" stroke-linecap="round" stroke-linejoin="round"/>
<path d="M349.462 69.1294C342.868 75.1387 336.585 72.3452 334.533 71.5035" stroke="#363946" stroke-width="1.4267" stroke-linecap="round" stroke-linejoin="round"/>
<path d="M312.733 393.896H334.04C336.055 374.694 330.395 355.474 318.295 340.428" stroke="#363946" stroke-width="1.4267" stroke-linecap="round" stroke-linejoin="round"/>
<path d="M371.265 88.4869C371.608 96.0113 371.471 110.047 369.268 123.655C367.113 137.038 364.112 144.676 361.418 154.654C358.305 166.171 354.964 183.16 354.949 205.445C368.174 184.844 381.4 164.241 394.629 143.638C395.124 142.867 395.429 141.99 395.518 141.078C395.606 140.167 395.477 139.247 395.14 138.396L385.387 113.757L398.25 116.359C398.515 116.408 398.789 116.372 399.032 116.255C399.275 116.138 399.474 115.947 399.601 115.709C399.728 115.472 399.776 115.2 399.739 114.933C399.701 114.666 399.579 114.418 399.391 114.225C391.864 106.586 385.301 96.4992 377.777 88.8607" stroke="#363946" stroke-width="1.4267" stroke-linecap="round" stroke-linejoin="round"/>
<path d="M341.267 93.021C345.425 114.317 352.198 135.019 361.432 154.655" stroke="#363946" stroke-width="1.4267" stroke-linecap="round" stroke-linejoin="round"/>
</svg>
